<?xml version="1.0" standalone="no"?>
<!DOCTYPE svg PUBLIC "-//W3C//DTD SVG 1.1//EN" "http://www.w3.org/Graphics/SVG/1.1/DTD/svg11.dtd" >
<svg xmlns="http://www.w3.org/2000/svg" xmlns:xlink="http://www.w3.org/1999/xlink" version="1.1">
<metadata>
Created by FontForge 20150504 at Sat Jul 25 10:31:28 2015
 By Jimmy Wärting
(c) 1992, 1994, 1997, 2000, 2004, 2010 Adobe Systems Incorporated. All rights reserved.
</metadata>
<defs>
<font id="MyriadArabic-Regular" horiz-adv-x="0" >
  <font-face 
    font-family="Myriad Arabic"
    font-weight="400"
    font-stretch="normal"
    units-per-em="1400"
    panose-1="1 1 1 1 1 1 1 1 1 1"
    ascent="950"
    descent="-450"
    x-height="484"
    cap-height="674"
    bbox="-171 -635 2471 1297"
    underline-thickness="24"
    underline-position="-49"
    stemh="72"
    stemv="68"
    unicode-range="U+0020-FD3F"
  />
<missing-glyph horiz-adv-x="500" 
d="M0 0v700h500v-700h-500zM250 395l170 255h-340zM280 350l170 -255v510zM80 50h340l-170 255zM50 95l170 255l-170 255v-510z" />
    <glyph glyph-name="uni0627.f" unicode="&#x627;" horiz-adv-x="266" arabic-form="final" 
d="M78 207l-20 514l75 5l19 -494c4 -107 46 -137 114 -141c29 0 53 -14 53 -45c0 -20 -9 -46 -53 -46c-117 0 -182 54 -188 207z" />
    <glyph glyph-name="uni0622.f" unicode="&#x622;" horiz-adv-x="266" arabic-form="final" 
d="M78 207l-20 514l75 5l19 -494c4 -107 46 -137 114 -141c29 0 53 -14 53 -45c0 -20 -9 -46 -53 -46c-117 0 -182 54 -188 207zM138 814c-45 0 -80 24 -114 24c-12 0 -31 -4 -37 -47l-47 17c1 50 27 90 81 90c48 0 84 -26 126 -26c22 0 43 9 70 34l9 -48
c-17 -30 -51 -44 -88 -44z" />
    <glyph glyph-name="uni0623.f" unicode="&#x623;" horiz-adv-x="266" arabic-form="final" 
d="M78 207l-20 514l75 5l19 -494c4 -107 46 -137 114 -141c29 0 53 -14 53 -45c0 -20 -9 -46 -53 -46c-117 0 -182 54 -188 207zM115 809c-37 0 -95 -1 -134 -17l6 47c9 5 31 12 46 12c-14 10 -36 29 -36 62c0 55 48 85 102 85c44 0 73 -14 86 -26l-16 -46
c-17 13 -45 22 -72 22c-33 0 -51 -19 -51 -36c0 -32 37 -52 88 -52h66l-20 -51h-65z" />
    <glyph glyph-name="uni0625.f" unicode="&#x625;" horiz-adv-x="266" arabic-form="final" 
d="M78 207l-20 514l75 5l19 -494c4 -107 46 -137 114 -141c29 0 53 -14 53 -45c0 -20 -9 -46 -53 -46c-117 0 -182 54 -188 207zM173 -71c44 0 72 -14 86 -26l-16 -46c-17 13 -46 22 -72 22c-34 0 -51 -19 -51 -36c0 -32 37 -52 88 -52h66l-21 -51h-65
c-36 0 -95 -1 -133 -17l6 47c9 5 31 12 46 12c-15 10 -36 29 -36 62c0 55 48 85 102 85z" />
    <glyph glyph-name="uni0671.f" unicode="&#x671;" horiz-adv-x="266" arabic-form="final" 
d="M78 207l-20 514l75 5l19 -494c4 -107 46 -137 114 -141c29 0 53 -14 53 -45c0 -20 -9 -46 -53 -46c-117 0 -182 54 -188 207zM99 802c-54 0 -91 35 -120 35c-8 0 -28 -5 -43 -23v56c14 21 30 26 45 26c11 0 17 -3 21 -4c38 60 75 93 117 93c50 0 82 -40 82 -89
c0 -56 -47 -94 -102 -94zM106 858c27 0 47 13 49 33c0 21 -13 39 -38 40c-27 0 -51 -19 -76 -57c15 -9 38 -16 65 -16z" />
    <glyph glyph-name="uni0628.i" unicode="&#x628;" horiz-adv-x="286" arabic-form="initial" 
d="M0 0c-40 0 -50 26 -50 47c0 18 11 44 50 44h20c72 0 117 7 141 23c1 6 1 13 1 19c-3 86 -40 168 -77 232l73 29c31 -57 71 -173 71 -268c0 -26 -3 -55 -11 -77c-28 -24 -69 -49 -203 -49h-15zM127 -144c31 0 52 -22 52 -54c0 -34 -21 -55 -52 -55c-30 0 -52 21 -52 55
c0 32 22 54 52 54z" />
    <glyph glyph-name="uni0628.m" unicode="&#x628;" horiz-adv-x="314" arabic-form="medial" 
d="M-3 0c-40 0 -51 24 -51 46c0 20 14 44 52 44c110 0 132 66 142 153l59 5c-1 -8 -2 -22 -2 -34c0 -63 20 -123 117 -124c29 0 53 -13 53 -44c0 -20 -9 -46 -53 -46c-87 0 -134 33 -154 100c-26 -71 -82 -100 -163 -100zM160 -144c31 0 52 -22 52 -54
c0 -34 -21 -55 -52 -55c-30 0 -52 21 -52 55c0 32 22 54 52 54z" />
    <glyph glyph-name="uni0628.f" unicode="&#x628;" horiz-adv-x="916" arabic-form="final" 
d="M49 245c0 47 9 91 21 124l55 -10c-7 -30 -11 -55 -11 -85c0 -144 108 -204 283 -204c172 0 290 46 338 77c-2 16 -3 22 -3 42c0 19 4 43 11 67l59 6c-3 -17 -5 -31 -5 -54c0 -90 56 -114 119 -117v-1c29 0 54 -13 54 -44c0 -20 -10 -46 -54 -46c-86 0 -131 34 -156 75
c-86 -57 -212 -97 -371 -97c-210 0 -338 82 -340 267zM457 -144c31 0 52 -22 52 -54c0 -34 -21 -55 -52 -55c-30 0 -52 21 -52 55c0 32 22 54 52 54z" />
    <glyph glyph-name="uni062A.i" unicode="&#x62a;" horiz-adv-x="286" arabic-form="initial" 
d="M0 0c-40 0 -50 26 -50 47c0 18 11 44 50 44h20c72 0 117 7 141 23c1 6 1 13 1 19c-3 86 -40 168 -77 232l73 29c31 -57 71 -173 71 -268c0 -26 -3 -55 -11 -77c-28 -24 -69 -49 -203 -49h-15zM143 510c-29 0 -49 20 -49 53c0 32 20 53 49 53c31 0 51 -21 51 -53
c0 -33 -20 -53 -51 -53zM9 510c-29 0 -51 20 -51 53c0 32 22 53 51 53c30 0 51 -21 51 -53c0 -33 -21 -53 -51 -53z" />
    <glyph glyph-name="uni062A.m" unicode="&#x62a;" horiz-adv-x="314" arabic-form="medial" 
d="M-3 0c-40 0 -51 24 -51 46c0 20 14 44 52 44c110 0 132 66 142 153l59 5c-1 -8 -2 -22 -2 -34c0 -63 20 -123 117 -124c29 0 53 -13 53 -44c0 -20 -9 -46 -53 -46c-87 0 -134 33 -154 100c-26 -71 -82 -100 -163 -100zM225 404c-30 0 -49 20 -49 53c0 32 19 53 49 53
s51 -21 51 -53c0 -33 -21 -53 -51 -53zM91 404c-29 0 -51 20 -51 53c0 32 22 53 51 53c30 0 51 -21 51 -53c0 -33 -21 -53 -51 -53z" />
    <glyph glyph-name="uni062A.f" unicode="&#x62a;" horiz-adv-x="916" arabic-form="final" 
d="M49 245c0 47 9 91 21 124l55 -10c-7 -30 -11 -55 -11 -85c0 -144 108 -204 283 -204c172 0 290 46 338 77c-2 16 -3 22 -3 42c0 19 4 43 11 67l59 6c-3 -17 -5 -31 -5 -54c0 -90 56 -114 119 -117v-1c29 0 54 -13 54 -44c0 -20 -10 -46 -54 -46c-86 0 -131 34 -156 75
c-86 -57 -212 -97 -371 -97c-210 0 -338 82 -340 267zM497 422c-29 0 -49 20 -49 53c0 32 20 53 49 53c31 0 51 -21 51 -53c0 -33 -20 -53 -51 -53zM363 422c-29 0 -51 20 -51 53c0 32 22 53 51 53c30 0 51 -21 51 -53c0 -33 -21 -53 -51 -53z" />
    <glyph glyph-name="uni062B.i" unicode="&#x62b;" horiz-adv-x="286" arabic-form="initial" 
d="M0 0c-40 0 -50 26 -50 47c0 18 11 44 50 44h20c72 0 117 7 141 23c1 6 1 13 1 19c-3 86 -40 168 -77 232l73 29c31 -57 71 -173 71 -268c0 -26 -3 -55 -11 -77c-28 -24 -69 -49 -203 -49h-15zM143 510c-30 0 -50 20 -50 54c0 29 20 52 50 52s49 -23 49 -52
c0 -33 -19 -54 -49 -54zM10 510c-29 0 -50 20 -50 54c0 29 22 52 50 52c30 0 51 -23 51 -52c0 -33 -21 -54 -51 -54zM77 631c-29 0 -48 19 -48 53c0 31 19 53 48 53c31 0 51 -22 51 -53c0 -33 -20 -53 -51 -53z" />
    <glyph glyph-name="uni062B.m" unicode="&#x62b;" horiz-adv-x="314" arabic-form="medial" 
d="M-3 0c-40 0 -51 24 -51 46c0 20 14 44 52 44c110 0 132 66 142 153l59 5c-1 -8 -2 -22 -2 -34c0 -63 20 -123 117 -124c29 0 53 -13 53 -44c0 -20 -9 -46 -53 -46c-87 0 -134 33 -154 100c-26 -71 -82 -100 -163 -100zM224 404c-29 0 -50 20 -50 54c0 29 21 52 50 52
c30 0 49 -23 49 -52c0 -33 -19 -54 -49 -54zM92 404c-30 0 -50 20 -50 54c0 29 22 52 50 52c29 0 50 -23 50 -52c0 -33 -21 -54 -50 -54zM159 525c-29 0 -49 19 -49 53c0 31 20 53 49 53c31 0 50 -22 50 -53c0 -33 -19 -53 -50 -53z" />
    <glyph glyph-name="uni062B.f" unicode="&#x62b;" horiz-adv-x="916" arabic-form="final" 
d="M49 245c0 47 9 91 21 124l55 -10c-7 -30 -11 -55 -11 -85c0 -144 108 -204 283 -204c172 0 290 46 338 77c-2 16 -3 22 -3 42c0 19 4 43 11 67l59 6c-3 -17 -5 -31 -5 -54c0 -90 56 -114 119 -117v-1c29 0 54 -13 54 -44c0 -20 -10 -46 -54 -46c-86 0 -131 34 -156 75
c-86 -57 -212 -97 -371 -97c-210 0 -338 82 -340 267zM497 422c-30 0 -50 20 -50 54c0 29 20 52 50 52s49 -23 49 -52c0 -33 -19 -54 -49 -54zM364 422c-29 0 -50 20 -50 54c0 29 22 52 50 52c30 0 51 -23 51 -52c0 -33 -21 -54 -51 -54zM431 543c-29 0 -48 19 -48 53
c0 31 19 53 48 53c31 0 51 -22 51 -53c0 -33 -20 -53 -51 -53z" />
    <glyph glyph-name="uni0679.i" unicode="&#x679;" horiz-adv-x="286" arabic-form="initial" 
d="M0 0c-40 0 -50 26 -50 47c0 18 11 44 50 44h20c72 0 117 7 141 23c1 6 1 13 1 19c-3 86 -40 168 -77 232l73 29c31 -57 71 -173 71 -268c0 -26 -3 -55 -11 -77c-28 -24 -69 -49 -203 -49h-15zM40 501h-69l-28 54l58 -4c10 20 12 46 10 79l-12 164l45 4l7 -115
c1 -18 2 -40 -1 -57c30 45 64 63 100 63c43 0 68 -33 68 -72c0 -87 -89 -116 -178 -116zM43 552c105 0 131 29 131 57c0 16 -12 30 -34 30c-31 0 -61 -23 -97 -87z" />
    <glyph glyph-name="uni0679.m" unicode="&#x679;" horiz-adv-x="314" arabic-form="medial" 
d="M-3 0c-40 0 -51 24 -51 46c0 20 14 44 52 44c110 0 132 66 142 153l59 5c-1 -8 -2 -22 -2 -34c0 -63 20 -123 117 -124c29 0 53 -13 53 -44c0 -20 -9 -46 -53 -46c-87 0 -134 33 -154 100c-26 -71 -82 -100 -163 -100zM121 395h-68l-28 54l57 -4c10 20 13 46 10 79
l-12 164l46 4l7 -115c1 -18 1 -40 -2 -57c31 45 64 63 101 63c43 0 68 -33 68 -72c0 -87 -89 -116 -179 -116zM124 446c105 0 132 29 132 57c0 16 -12 30 -35 30c-30 0 -60 -23 -97 -87z" />
    <glyph glyph-name="uni0679.f" unicode="&#x679;" horiz-adv-x="916" arabic-form="final" 
d="M49 245c0 47 9 91 21 124l55 -10c-7 -30 -11 -55 -11 -85c0 -144 108 -204 283 -204c172 0 290 46 338 77c-2 16 -3 22 -3 42c0 19 4 43 11 67l59 6c-3 -17 -5 -31 -5 -54c0 -90 56 -114 119 -117v-1c29 0 54 -13 54 -44c0 -20 -10 -46 -54 -46c-86 0 -131 34 -156 75
c-86 -57 -212 -97 -371 -97c-210 0 -338 82 -340 267zM394 413h-69l-28 54l58 -4c10 20 12 46 10 79l-12 164l45 4l7 -115c1 -18 2 -40 -1 -57c30 45 64 63 100 63c43 0 68 -33 68 -72c0 -87 -89 -116 -178 -116zM397 464c105 0 131 29 131 57c0 16 -12 30 -34 30
c-31 0 -61 -23 -97 -87z" />
    <glyph glyph-name="uni067E.i" unicode="&#x67e;" horiz-adv-x="286" arabic-form="initial" 
d="M0 0c-40 0 -50 26 -50 47c0 18 11 44 50 44h20c72 0 117 7 141 23c1 6 1 13 1 19c-3 86 -40 168 -77 232l73 29c31 -57 71 -173 71 -268c0 -26 -3 -55 -11 -77c-28 -24 -69 -49 -203 -49h-15zM127 -265c27 0 49 -20 49 -53c0 -31 -22 -53 -50 -53c-30 0 -51 22 -51 53
c0 33 22 53 52 53zM60 -144c29 0 51 -21 51 -54c0 -29 -21 -52 -51 -52c-28 0 -49 23 -49 52c0 33 21 54 49 54zM194 -144c29 0 48 -21 48 -54c0 -29 -19 -52 -49 -52c-29 0 -50 23 -50 52c0 33 21 54 51 54z" />
    <glyph glyph-name="uni067E.m" unicode="&#x67e;" horiz-adv-x="314" arabic-form="medial" 
d="M-3 0c-40 0 -51 24 -51 46c0 20 14 44 52 44c110 0 132 66 142 153l59 5c-1 -8 -2 -22 -2 -34c0 -63 20 -123 117 -124c29 0 53 -13 53 -44c0 -20 -9 -46 -53 -46c-87 0 -134 33 -154 100c-26 -71 -82 -100 -163 -100zM160 -265c27 0 49 -20 49 -53
c0 -31 -22 -53 -50 -53c-30 0 -51 22 -51 53c0 33 22 53 52 53zM93 -144c29 0 51 -21 51 -54c0 -29 -21 -52 -51 -52c-28 0 -49 23 -49 52c0 33 21 54 49 54zM227 -144c29 0 48 -21 48 -54c0 -29 -19 -52 -49 -52c-29 0 -50 23 -50 52c0 33 21 54 51 54z" />
    <glyph glyph-name="uni067E.f" unicode="&#x67e;" horiz-adv-x="916" arabic-form="final" 
d="M49 245c0 47 9 91 21 124l55 -10c-7 -30 -11 -55 -11 -85c0 -144 108 -204 283 -204c172 0 290 46 338 77c-2 16 -3 22 -3 42c0 19 4 43 11 67l59 6c-3 -17 -5 -31 -5 -54c0 -90 56 -114 119 -117v-1c29 0 54 -13 54 -44c0 -20 -10 -46 -54 -46c-86 0 -131 34 -156 75
c-86 -57 -212 -97 -371 -97c-210 0 -338 82 -340 267zM457 -265c27 0 49 -20 49 -53c0 -31 -22 -53 -50 -53c-30 0 -51 22 -51 53c0 33 22 53 52 53zM390 -144c29 0 51 -21 51 -54c0 -29 -21 -52 -51 -52c-28 0 -49 23 -49 52c0 33 21 54 49 54zM524 -144
c29 0 48 -21 48 -54c0 -29 -19 -52 -49 -52c-29 0 -50 23 -50 52c0 33 21 54 51 54z" />
    <glyph glyph-name="uni062D.i" unicode="&#x62d;" horiz-adv-x="653" arabic-form="initial" 
d="M1 0c-33 0 -51 20 -51 45c0 23 14 46 51 46h12c114 0 228 15 339 66c47 21 76 36 105 45c-76 27 -181 88 -269 88c-43 0 -95 -6 -134 -23l14 82c35 17 87 22 121 22c92 0 174 -40 257 -77c73 -32 101 -39 140 -39h37l-14 -83h-16c-46 0 -95 -18 -174 -64
c-148 -86 -255 -108 -407 -108h-11z" />
    <glyph glyph-name="uni062D.m" unicode="&#x62d;" horiz-adv-x="682" arabic-form="medial" 
d="M603 181h-27c-8 0 -17 -1 -26 -2c7 -73 64 -88 132 -88c29 0 53 -14 53 -45c0 -20 -9 -46 -53 -46c-117 1 -183 47 -190 160c-25 -10 -53 -24 -82 -42c-137 -88 -232 -118 -398 -118h-11c-33 0 -51 20 -51 45c0 23 14 46 51 46h12c127 0 224 18 309 60
c68 32 95 49 127 59c-76 23 -172 80 -270 80c-41 0 -92 -4 -132 -27l15 83c35 20 90 25 121 25c87 0 164 -30 250 -70c72 -32 111 -37 155 -37h29z" />
    <glyph glyph-name="uni062D.f" unicode="&#x62d;" horiz-adv-x="672" arabic-form="final" 
d="M614 291l-21 -87c-16 2 -41 2 -62 2c7 -83 58 -116 141 -115c30 0 54 -14 54 -45c0 -20 -10 -46 -54 -46c-129 -1 -203 60 -203 203c-21 -3 -42 -7 -63 -12c-140 -34 -269 -119 -269 -257c0 -159 151 -236 345 -236c37 0 93 5 131 14l-33 -78c-29 -10 -80 -17 -131 -17
c-223 0 -398 108 -398 309c0 199 217 299 357 323c-43 12 -136 54 -217 54c-39 0 -89 -3 -135 -25l17 85c28 12 62 22 122 22c94 0 190 -44 270 -71c37 -15 69 -23 98 -23h51z" />
    <glyph glyph-name="uni062C.i" unicode="&#x62c;" horiz-adv-x="653" arabic-form="initial" 
d="M1 0c-33 0 -51 20 -51 45c0 23 14 46 51 46h12c114 0 228 15 339 66c47 21 76 36 105 45c-76 27 -181 88 -269 88c-43 0 -95 -6 -134 -23l14 82c35 17 87 22 121 22c92 0 174 -40 257 -77c73 -32 101 -39 140 -39h37l-14 -83h-16c-46 0 -95 -18 -174 -64
c-148 -86 -255 -108 -407 -108h-11zM319 -105c31 0 51 -22 51 -54c0 -34 -20 -55 -52 -55c-30 0 -51 21 -51 55c0 32 21 54 52 54z" />
    <glyph glyph-name="uni062C.m" unicode="&#x62c;" horiz-adv-x="682" arabic-form="medial" 
d="M603 181h-27c-8 0 -17 -1 -26 -2c7 -73 64 -88 132 -88c29 0 53 -14 53 -45c0 -20 -9 -46 -53 -46c-117 1 -183 47 -190 160c-25 -10 -53 -24 -82 -42c-137 -88 -232 -118 -398 -118h-11c-33 0 -51 20 -51 45c0 23 14 46 51 46h12c127 0 224 18 309 60
c68 32 95 49 127 59c-76 23 -172 80 -270 80c-41 0 -92 -4 -132 -27l15 83c35 20 90 25 121 25c87 0 164 -30 250 -70c72 -32 111 -37 155 -37h29zM319 -105c31 0 51 -22 51 -54c0 -34 -20 -55 -52 -55c-30 0 -51 21 -51 55c0 32 21 54 52 54z" />
    <glyph glyph-name="uni062C.f" unicode="&#x62c;" horiz-adv-x="672" arabic-form="final" 
d="M614 291l-21 -87c-16 2 -41 2 -62 2c7 -83 58 -116 141 -115c30 0 54 -14 54 -45c0 -20 -10 -46 -54 -46c-129 -1 -203 60 -203 203c-21 -3 -42 -7 -63 -12c-140 -34 -269 -119 -269 -257c0 -159 151 -236 345 -236c37 0 93 5 131 14l-33 -78c-29 -10 -80 -17 -131 -17
c-223 0 -398 108 -398 309c0 199 217 299 357 323c-43 12 -136 54 -217 54c-39 0 -89 -3 -135 -25l17 85c28 12 62 22 122 22c94 0 190 -44 270 -71c37 -15 69 -23 98 -23h51zM320 -52c0 32 21 54 52 54s52 -22 52 -54c0 -33 -21 -55 -53 -55c-30 0 -51 22 -51 55z" />
    <glyph glyph-name="uni062E.i" unicode="&#x62e;" horiz-adv-x="653" arabic-form="initial" 
d="M1 0c-33 0 -51 20 -51 45c0 23 14 46 51 46h12c114 0 228 15 339 66c47 21 76 36 105 45c-76 27 -181 88 -269 88c-43 0 -95 -6 -134 -23l14 82c35 17 87 22 121 22c92 0 174 -40 257 -77c73 -32 101 -39 140 -39h37l-14 -83h-16c-46 0 -95 -18 -174 -64
c-148 -86 -255 -108 -407 -108h-11zM347 494c-30 0 -51 21 -51 55c0 31 21 54 52 54s52 -23 52 -54c0 -34 -21 -55 -53 -55z" />
    <glyph glyph-name="uni062E.m" unicode="&#x62e;" horiz-adv-x="682" arabic-form="medial" 
d="M347 494c-30 0 -51 21 -51 55c0 31 21 54 52 54s52 -23 52 -54c0 -34 -21 -55 -53 -55zM603 181h-27c-8 0 -17 -1 -26 -2c7 -73 64 -88 132 -88c29 0 53 -14 53 -45c0 -20 -9 -46 -53 -46c-117 1 -183 47 -190 160c-25 -10 -53 -24 -82 -42c-137 -88 -232 -118 -398 -118
h-11c-33 0 -51 20 -51 45c0 23 14 46 51 46h12c127 0 224 18 309 60c68 32 95 49 127 59c-76 23 -172 80 -270 80c-41 0 -92 -4 -132 -27l15 83c35 20 90 25 121 25c87 0 164 -30 250 -70c72 -32 111 -37 155 -37h29z" />
    <glyph glyph-name="uni062E.f" unicode="&#x62e;" horiz-adv-x="672" arabic-form="final" 
d="M354 508c-30 0 -51 21 -51 55c0 31 21 54 52 54s52 -23 52 -54c0 -34 -21 -55 -53 -55zM614 291l-21 -87c-16 2 -41 2 -62 2c7 -83 58 -116 141 -115c30 0 54 -14 54 -45c0 -20 -10 -46 -54 -46c-129 -1 -203 60 -203 203c-21 -3 -42 -7 -63 -12
c-140 -34 -269 -119 -269 -257c0 -159 151 -236 345 -236c37 0 93 5 131 14l-33 -78c-29 -10 -80 -17 -131 -17c-223 0 -398 108 -398 309c0 199 217 299 357 323c-43 12 -136 54 -217 54c-39 0 -89 -3 -135 -25l17 85c28 12 62 22 122 22c94 0 190 -44 270 -71
c37 -15 69 -23 98 -23h51z" />
    <glyph glyph-name="uni0686.i" unicode="&#x686;" horiz-adv-x="653" arabic-form="initial" 
d="M1 0c-33 0 -51 20 -51 45c0 23 14 46 51 46h12c114 0 228 15 339 66c47 21 76 36 105 45c-76 27 -181 88 -269 88c-43 0 -95 -6 -134 -23l14 82c35 17 87 22 121 22c92 0 174 -40 257 -77c73 -32 101 -39 140 -39h37l-14 -83h-16c-46 0 -95 -18 -174 -64
c-148 -86 -255 -108 -407 -108h-11zM318 -226c28 0 49 -20 49 -53c0 -31 -21 -53 -49 -53c-30 0 -52 22 -52 53c0 33 23 53 52 53zM252 -105c28 0 51 -21 51 -54c0 -29 -22 -52 -51 -52c-28 0 -50 23 -50 52c0 33 22 54 50 54zM385 -105c30 0 49 -21 49 -54
c0 -29 -19 -52 -49 -52s-50 23 -50 52c0 33 20 54 50 54z" />
    <glyph glyph-name="uni0686.m" unicode="&#x686;" horiz-adv-x="682" arabic-form="medial" 
d="M603 181h-27c-8 0 -17 -1 -26 -2c7 -73 64 -88 132 -88c29 0 53 -14 53 -45c0 -20 -9 -46 -53 -46c-117 1 -183 47 -190 160c-25 -10 -53 -24 -82 -42c-137 -88 -232 -118 -398 -118h-11c-33 0 -51 20 -51 45c0 23 14 46 51 46h12c127 0 224 18 309 60
c68 32 95 49 127 59c-76 23 -172 80 -270 80c-41 0 -92 -4 -132 -27l15 83c35 20 90 25 121 25c87 0 164 -30 250 -70c72 -32 111 -37 155 -37h29zM303 -159c0 -29 -22 -52 -51 -52c-28 0 -50 23 -50 52c0 33 22 54 50 54s51 -21 51 -54zM385 -105c30 0 49 -21 49 -54
c0 -29 -19 -52 -49 -52s-50 23 -50 52c0 33 20 54 50 54zM318 -226c28 0 49 -20 49 -53c0 -31 -21 -53 -49 -53c-30 0 -52 22 -52 53c0 33 23 53 52 53z" />
    <glyph glyph-name="uni0686.f" unicode="&#x686;" horiz-adv-x="672" arabic-form="final" 
d="M614 291l-21 -87c-16 2 -41 2 -62 2c7 -83 58 -116 141 -115c30 0 54 -14 54 -45c0 -20 -10 -46 -54 -46c-129 -1 -203 60 -203 203c-21 -3 -42 -7 -63 -12c-140 -34 -269 -119 -269 -257c0 -159 151 -236 345 -236c37 0 93 5 131 14l-33 -78c-29 -10 -80 -17 -131 -17
c-223 0 -398 108 -398 309c0 199 217 299 357 323c-43 12 -136 54 -217 54c-39 0 -89 -3 -135 -25l17 85c28 12 62 22 122 22c94 0 190 -44 270 -71c37 -15 69 -23 98 -23h51zM356 -20c0 -25 -18 -44 -43 -44c-23 0 -40 19 -40 44c0 26 17 45 40 45c24 0 43 -19 43 -45z
M471 -20c0 -26 -15 -44 -40 -44s-43 18 -43 44s18 45 43 45s40 -19 40 -45zM371 -171c-24 0 -43 18 -43 44c0 28 19 44 44 44c23 0 40 -16 40 -44c0 -26 -17 -44 -41 -44z" />
    <glyph glyph-name="uni062F.f" unicode="&#x62f;" horiz-adv-x="577" arabic-form="final" 
d="M50 156l57 11c14 -49 40 -74 116 -74c53 0 109 14 140 42c15 14 25 35 24 42c-8 34 -42 169 -82 303l73 25c34 -132 50 -202 81 -314c23 -82 57 -100 118 -100c29 0 53 -14 53 -45c0 -20 -10 -46 -53 -46c-99 0 -134 35 -165 102c-16 -57 -98 -102 -195 -102
c-109 0 -162 45 -167 156z" />
    <glyph glyph-name="uni0630.f" unicode="&#x630;" horiz-adv-x="577" arabic-form="final" 
d="M50 156l57 11c14 -49 40 -74 116 -74c53 0 109 14 140 42c15 14 25 35 24 42c-8 34 -42 169 -82 303l73 25c34 -132 50 -202 81 -314c23 -82 57 -100 118 -100c29 0 53 -14 53 -45c0 -20 -10 -46 -53 -46c-99 0 -134 35 -165 102c-16 -57 -98 -102 -195 -102
c-109 0 -162 45 -167 156zM334 606c-30 0 -52 21 -52 55c0 31 22 54 52 54c31 0 52 -23 52 -54c0 -34 -21 -55 -52 -55z" />
    <glyph glyph-name="uni0688.f" unicode="&#x688;" horiz-adv-x="577" arabic-form="final" 
d="M50 156l57 11c14 -49 40 -74 116 -74c53 0 109 14 140 42c15 14 25 35 24 42c-8 34 -42 169 -82 303l73 25c34 -132 50 -202 81 -314c23 -82 57 -100 118 -100c29 0 53 -14 53 -45c0 -20 -10 -46 -53 -46c-99 0 -134 35 -165 102c-16 -57 -98 -102 -195 -102
c-109 0 -162 45 -167 156zM297 597h-68l-28 54l57 -4c10 20 13 46 10 79l-12 164l46 4l7 -115c1 -18 1 -40 -2 -57c31 45 64 63 101 63c43 0 68 -33 68 -72c0 -87 -89 -116 -179 -116zM300 648c105 0 132 29 132 57c0 16 -12 30 -35 30c-30 0 -60 -23 -97 -87z" />
    <glyph glyph-name="uni0631.f" unicode="&#x631;" horiz-adv-x="471" arabic-form="final" 
d="M241 246l73 37c21 -42 40 -85 55 -124c26 -53 58 -68 102 -68c29 0 53 -14 53 -45c0 -20 -9 -46 -53 -46c-18 0 -49 2 -71 17c-1 -15 -2 -34 -4 -46c-26 -146 -144 -220 -237 -220c-49 0 -109 16 -145 54l9 65c43 -26 88 -34 135 -34c83 0 173 73 178 187
c-5 50 -59 157 -95 223z" />
    <glyph glyph-name="uni0632.f" unicode="&#x632;" horiz-adv-x="471" arabic-form="final" 
d="M244 395c-30 0 -51 21 -51 55c0 31 21 54 52 54s52 -23 52 -54c0 -34 -21 -55 -53 -55zM241 246l73 37c21 -42 40 -85 55 -124c26 -53 58 -68 102 -68c29 0 53 -14 53 -45c0 -20 -9 -46 -53 -46c-18 0 -49 2 -71 17c-1 -15 -2 -34 -4 -46c-26 -146 -144 -220 -237 -220
c-49 0 -109 16 -145 54l9 65c43 -26 88 -34 135 -34c83 0 173 73 178 187c-5 50 -59 157 -95 223z" />
    <glyph glyph-name="uni0691.f" unicode="&#x691;" horiz-adv-x="471" arabic-form="final" 
d="M111 440l58 -4c10 20 12 46 10 79l-12 164l45 4l7 -115c1 -18 2 -40 -1 -57c30 45 64 63 100 63c43 0 68 -33 68 -72c0 -87 -89 -116 -178 -116h-69zM308 524c-31 0 -61 -23 -98 -87c106 0 132 29 132 57c0 16 -12 30 -34 30zM241 246l73 37c21 -42 40 -85 55 -124
c26 -53 58 -68 102 -68c29 0 53 -14 53 -45c0 -20 -9 -46 -53 -46c-18 0 -49 2 -71 17c-1 -15 -2 -34 -4 -46c-26 -146 -144 -220 -237 -220c-49 0 -109 16 -145 54l9 65c43 -26 88 -34 135 -34c83 0 173 73 178 187c-5 50 -59 157 -95 223z" />
    <glyph glyph-name="uni0698.f" unicode="&#x698;" horiz-adv-x="471" arabic-form="final" 
d="M245 516c-29 0 -48 19 -48 53c0 31 19 53 48 53c31 0 51 -22 51 -53c0 -33 -20 -53 -51 -53zM178 395c-29 0 -50 20 -50 54c0 29 22 52 50 52c30 0 51 -23 51 -52c0 -33 -21 -54 -51 -54zM261 449c0 29 20 52 50 52s49 -23 49 -52c0 -33 -19 -54 -49 -54s-50 20 -50 54z
M241 246l73 37c21 -42 40 -85 55 -124c26 -53 58 -68 102 -68c29 0 53 -14 53 -45c0 -20 -9 -46 -53 -46c-18 0 -49 2 -71 17c-1 -15 -2 -34 -4 -46c-26 -146 -144 -220 -237 -220c-49 0 -109 16 -145 54l9 65c43 -26 88 -34 135 -34c83 0 173 73 178 187
c-5 50 -59 157 -95 223z" />
    <glyph glyph-name="uni0633.i" unicode="&#x633;" horiz-adv-x="672" arabic-form="initial" 
d="M0 0c-39 0 -51 23 -51 45c0 25 15 46 51 46c97 0 131 55 147 139l64 3c-7 -23 -13 -45 -14 -69c-2 -35 7 -77 55 -77c53 0 85 29 103 131l63 3c-3 -14 -8 -34 -8 -55c-2 -63 30 -78 68 -78c44 0 77 32 77 77c0 35 -17 89 -34 123l73 21c13 -25 24 -75 24 -130
c0 -114 -66 -179 -149 -179c-64 0 -93 35 -107 70c-24 -44 -62 -70 -119 -70c-61 0 -86 35 -96 73c-26 -43 -81 -73 -147 -73z" />
    <glyph glyph-name="uni0633.m" unicode="&#x633;" horiz-adv-x="731" arabic-form="medial" 
d="M1 0c-39 0 -51 23 -51 45c0 25 15 46 51 46c97 0 129 54 147 139l64 3c-4 -13 -12 -41 -14 -65c-4 -35 4 -81 54 -81c47 0 85 22 104 130l62 3c-3 -15 -7 -34 -8 -58c-2 -54 18 -74 52 -74c70 0 90 108 98 169l60 5c-2 -16 -4 -24 -5 -45c-4 -73 18 -125 116 -126
c29 0 53 -14 53 -45c0 -20 -9 -46 -53 -46c-85 -1 -132 30 -154 90c-24 -58 -70 -90 -120 -90c-63 0 -84 38 -94 71c-25 -46 -64 -71 -120 -71c-60 0 -86 37 -96 74c-24 -41 -80 -74 -146 -74z" />
    <glyph glyph-name="uni0633.f" unicode="&#x633;" horiz-adv-x="1083" arabic-form="final" 
d="M51 22c0 71 20 137 41 179l53 -10c-12 -41 -24 -90 -24 -142c0 -114 78 -176 174 -176c95 0 162 48 190 126c3 10 6 25 6 36c-7 72 -31 137 -64 213l72 27c19 -42 32 -87 48 -146c8 -28 31 -42 59 -42c52 0 82 24 101 130l62 3c-3 -18 -7 -38 -7 -58c0 -56 17 -74 52 -74
c70 0 88 106 98 169l60 5c-3 -21 -6 -44 -6 -55c-1 -73 28 -115 117 -116c29 0 53 -14 53 -45c0 -20 -9 -46 -53 -46c-83 -1 -130 29 -153 90c-26 -58 -76 -90 -122 -90c-66 0 -83 40 -93 71c-24 -45 -57 -71 -115 -71c-17 0 -33 5 -48 17c-1 -11 -2 -31 -7 -49
c-38 -117 -142 -184 -264 -184c-141 0 -230 103 -230 238z" />
    <glyph glyph-name="uni0634.i" unicode="&#x634;" horiz-adv-x="672" arabic-form="initial" 
d="M0 0c-39 0 -51 23 -51 45c0 25 15 46 51 46c97 0 131 55 147 139l64 3c-7 -23 -13 -45 -14 -69c-2 -35 7 -77 55 -77c53 0 85 29 103 131l63 3c-3 -14 -8 -34 -8 -55c-2 -63 30 -78 68 -78c44 0 77 32 77 77c0 35 -17 89 -34 123l73 21c13 -25 24 -75 24 -130
c0 -114 -66 -179 -149 -179c-64 0 -93 35 -107 70c-24 -44 -62 -70 -119 -70c-61 0 -86 35 -96 73c-26 -43 -81 -73 -147 -73zM427 388c-29 0 -50 20 -50 54c0 29 21 52 50 52c30 0 49 -23 49 -52c0 -33 -19 -54 -49 -54zM295 388c-30 0 -50 20 -50 54c0 29 22 52 50 52
c29 0 50 -23 50 -52c0 -33 -21 -54 -50 -54zM362 509c-29 0 -49 19 -49 53c0 31 20 53 49 53c31 0 50 -22 50 -53c0 -33 -19 -53 -50 -53z" />
    <glyph glyph-name="uni0634.m" unicode="&#x634;" horiz-adv-x="731" arabic-form="medial" 
d="M1 0c-39 0 -51 23 -51 45c0 25 15 46 51 46c97 0 129 54 147 139l64 3c-4 -13 -12 -41 -14 -65c-4 -35 4 -81 54 -81c47 0 85 22 104 130l62 3c-3 -15 -7 -34 -8 -58c-2 -54 18 -74 52 -74c70 0 90 108 98 169l60 5c-2 -16 -4 -24 -5 -45c-4 -73 18 -125 116 -126
c29 0 53 -14 53 -45c0 -20 -9 -46 -53 -46c-85 -1 -132 30 -154 90c-24 -58 -70 -90 -120 -90c-63 0 -84 38 -94 71c-25 -46 -64 -71 -120 -71c-60 0 -86 37 -96 74c-24 -41 -80 -74 -146 -74zM426 388c-30 0 -50 20 -50 54c0 29 20 52 50 52s49 -23 49 -52
c0 -33 -19 -54 -49 -54zM293 388c-29 0 -50 20 -50 54c0 29 22 52 50 52c30 0 51 -23 51 -52c0 -33 -21 -54 -51 -54zM360 509c-29 0 -48 19 -48 53c0 31 19 53 48 53c31 0 51 -22 51 -53c0 -33 -20 -53 -51 -53z" />
    <glyph glyph-name="uni0634.f" unicode="&#x634;" horiz-adv-x="1083" arabic-form="final" 
d="M51 22c0 71 20 137 41 179l53 -10c-12 -41 -24 -90 -24 -142c0 -114 78 -176 174 -176c95 0 162 48 190 126c3 10 6 25 6 36c-7 72 -31 137 -64 213l72 27c19 -42 32 -87 48 -146c8 -28 31 -42 59 -42c52 0 82 24 101 130l62 3c-3 -18 -7 -38 -7 -58c0 -56 17 -74 52 -74
c70 0 88 106 98 169l60 5c-3 -21 -6 -44 -6 -55c-1 -73 28 -115 117 -116c29 0 53 -14 53 -45c0 -20 -9 -46 -53 -46c-83 -1 -130 29 -153 90c-26 -58 -76 -90 -122 -90c-66 0 -83 40 -93 71c-24 -45 -57 -71 -115 -71c-17 0 -33 5 -48 17c-1 -11 -2 -31 -7 -49
c-38 -117 -142 -184 -264 -184c-141 0 -230 103 -230 238zM779 388c-30 0 -50 20 -50 54c0 29 20 52 50 52s49 -23 49 -52c0 -33 -19 -54 -49 -54zM646 388c-29 0 -50 20 -50 54c0 29 22 52 50 52c30 0 51 -23 51 -52c0 -33 -21 -54 -51 -54zM713 509c-29 0 -48 19 -48 53
c0 31 19 53 48 53c31 0 51 -22 51 -53c0 -33 -20 -53 -51 -53z" />
    <glyph glyph-name="uni0635.i" unicode="&#x635;" horiz-adv-x="871" arabic-form="initial" 
d="M-1 0c-37 0 -51 24 -51 45c0 24 17 46 51 46c114 0 130 90 142 188l63 4c-4 -19 -6 -40 -6 -58c-2 -66 24 -98 63 -117c79 127 212 279 366 279c121 0 198 -98 198 -189c0 -79 -62 -134 -143 -166c-57 -23 -151 -39 -254 -39c-198 0 -241 51 -273 107
c-25 -57 -82 -100 -156 -100zM322 92c31 -7 53 -10 115 -10c74 0 159 7 204 21c63 18 121 49 121 92c0 51 -52 112 -149 112c-71 0 -187 -57 -291 -215z" />
    <glyph glyph-name="uni0635.m" unicode="&#x635;" horiz-adv-x="893" arabic-form="medial" 
d="M141 279l63 4c-4 -19 -6 -40 -6 -58c-2 -66 24 -98 63 -117c79 127 212 279 366 279c121 0 198 -98 198 -189c0 -36 -13 -67 -34 -93c30 -9 75 -14 102 -14c29 0 53 -14 53 -45c0 -20 -9 -46 -53 -46h-15c-71 0 -133 20 -169 44c-8 -4 -18 -8 -27 -12
c-57 -23 -151 -39 -254 -39c-198 0 -241 51 -273 107c-25 -57 -82 -100 -156 -100c-37 0 -51 24 -51 45c0 24 17 46 51 46c114 0 130 90 142 188zM641 103c63 18 121 49 121 92c0 51 -52 112 -149 112c-71 0 -187 -57 -291 -215c31 -7 53 -10 115 -10c74 0 159 7 204 21z
" />
    <glyph glyph-name="uni0635.f" unicode="&#x635;" horiz-adv-x="1225" arabic-form="final" 
d="M431 232l70 32c2 -5 4 -13 9 -26c26 -79 43 -106 84 -128c79 127 211 277 365 277c121 0 199 -98 199 -189c0 -36 -13 -67 -34 -93c29 -9 74 -15 101 -15c30 0 54 -13 54 -44c0 -20 -10 -46 -54 -46h-15c-71 0 -132 21 -168 44c-9 -4 -18 -8 -28 -12
c-57 -23 -150 -39 -247 -39c-116 0 -178 20 -217 52c0 -35 -2 -70 -8 -90c-34 -111 -133 -177 -262 -177c-145 0 -229 95 -229 231c0 49 13 108 37 154l54 -10c-17 -47 -23 -87 -23 -119c0 -113 80 -168 172 -168c84 0 162 38 190 120c4 9 7 25 7 31c0 62 -23 138 -57 215z
M973 103c63 19 120 50 120 93c0 50 -52 111 -145 111c-74 0 -189 -57 -294 -213c30 -8 60 -12 116 -12c74 0 158 8 203 21z" />
    <glyph glyph-name="uni0636.i" unicode="&#x636;" horiz-adv-x="871" arabic-form="initial" 
d="M-1 0c-37 0 -51 24 -51 45c0 24 17 46 51 46c114 0 130 90 142 188l63 4c-4 -19 -6 -40 -6 -58c-2 -66 24 -98 63 -117c79 127 212 279 366 279c121 0 198 -98 198 -189c0 -79 -62 -134 -143 -166c-57 -23 -151 -39 -254 -39c-198 0 -241 51 -273 107
c-25 -57 -82 -100 -156 -100zM322 92c31 -7 53 -10 115 -10c74 0 159 7 204 21c63 18 121 49 121 92c0 51 -52 112 -149 112c-71 0 -187 -57 -291 -215zM485 513c-30 0 -52 21 -52 55c0 31 22 54 52 54c31 0 52 -23 52 -54c0 -34 -21 -55 -52 -55z" />
    <glyph glyph-name="uni0636.m" unicode="&#x636;" horiz-adv-x="893" arabic-form="medial" 
d="M484 513c-30 0 -51 21 -51 55c0 31 21 54 52 54s52 -23 52 -54c0 -34 -21 -55 -53 -55zM141 279l63 4c-4 -19 -6 -40 -6 -58c-2 -66 24 -98 63 -117c79 127 212 279 366 279c121 0 198 -98 198 -189c0 -36 -13 -67 -34 -93c30 -9 75 -14 102 -14c29 0 53 -14 53 -45
c0 -20 -9 -46 -53 -46h-15c-71 0 -133 20 -169 44c-8 -4 -18 -8 -27 -12c-57 -23 -151 -39 -254 -39c-198 0 -241 51 -273 107c-25 -57 -82 -100 -156 -100c-37 0 -51 24 -51 45c0 24 17 46 51 46c114 0 130 90 142 188zM641 103c63 18 121 49 121 92c0 51 -52 112 -149 112
c-71 0 -187 -57 -291 -215c31 -7 53 -10 115 -10c74 0 159 7 204 21z" />
    <glyph glyph-name="uni0636.f" unicode="&#x636;" horiz-adv-x="1225" arabic-form="final" 
d="M817 513c-30 0 -52 21 -52 55c0 31 22 54 52 54c31 0 52 -23 52 -54c0 -34 -21 -55 -52 -55zM431 232l70 32c2 -5 4 -13 9 -26c26 -79 43 -106 84 -128c79 127 211 277 365 277c121 0 199 -98 199 -189c0 -36 -13 -67 -34 -93c29 -9 74 -15 101 -15c30 0 54 -13 54 -44
c0 -20 -10 -46 -54 -46h-15c-71 0 -132 21 -168 44c-9 -4 -18 -8 -28 -12c-57 -23 -150 -39 -247 -39c-116 0 -178 20 -217 52c0 -35 -2 -70 -8 -90c-34 -111 -133 -177 -262 -177c-145 0 -229 95 -229 231c0 49 13 108 37 154l54 -10c-17 -47 -23 -87 -23 -119
c0 -113 80 -168 172 -168c84 0 162 38 190 120c4 9 7 25 7 31c0 62 -23 138 -57 215zM973 103c63 19 120 50 120 93c0 50 -52 111 -145 111c-74 0 -189 -57 -294 -213c30 -8 60 -12 116 -12c74 0 158 8 203 21z" />
    <glyph glyph-name="uni0637.i" unicode="&#x637;" horiz-adv-x="694" arabic-form="initial" 
d="M0 0c-40 0 -50 27 -50 47c0 17 10 44 50 44h66c10 17 20 34 27 49c12 29 10 56 8 98l-19 482l76 6l13 -361c3 -82 2 -120 -1 -147c75 95 176 169 280 169c118 0 198 -94 198 -188c0 -53 -20 -115 -111 -154c-55 -24 -148 -45 -379 -45h-158zM147 91h31
c139 0 269 9 316 24c53 17 88 37 88 83c0 45 -46 109 -143 109c-83 0 -197 -68 -292 -216z" />
    <glyph glyph-name="uni0637.m" unicode="&#x637;" horiz-adv-x="715" arabic-form="medial" 
d="M158 726l13 -361c3 -82 2 -120 -1 -147c75 95 176 169 280 169c118 0 198 -94 198 -188c0 -31 -7 -65 -30 -95c29 -11 71 -14 97 -14c29 0 53 -13 53 -44c0 -20 -9 -46 -53 -46h-16c-71 0 -129 18 -165 44c-55 -24 -149 -44 -376 -44h-158c-40 0 -50 27 -50 47
c0 17 10 44 50 44h66c10 17 20 34 27 49c12 29 10 56 8 98l-19 482zM147 91h31c139 0 269 9 316 24c53 17 88 37 88 83c0 45 -46 109 -143 109c-83 0 -197 -68 -292 -216z" />
    <glyph glyph-name="uni0637.f" unicode="&#x637;" horiz-adv-x="788" arabic-form="final" 
d="M229 726l14 -361c4 -82 3 -120 0 -147c75 95 176 169 279 169c119 0 198 -94 198 -188c0 -31 -7 -66 -31 -97c31 -9 75 -12 99 -12c29 0 53 -13 53 -44c0 -20 -9 -46 -53 -46h-15c-70 0 -132 17 -170 42c-56 -23 -152 -42 -373 -42c-36 0 -108 -1 -184 13l-31 93
c40 -12 103 -15 124 -15c10 17 20 34 27 49c12 29 10 56 8 98l-19 482zM219 91h31c138 0 270 9 317 24c53 17 88 37 88 83c0 45 -47 109 -143 109c-84 0 -199 -68 -293 -216z" />
    <glyph glyph-name="uni0638.i" unicode="&#x638;" horiz-adv-x="694" arabic-form="initial" 
d="M0 0c-40 0 -50 27 -50 47c0 17 10 44 50 44h66c10 17 20 34 27 49c12 29 10 56 8 98l-19 482l76 6l13 -361c3 -82 2 -120 -1 -147c75 95 176 169 280 169c118 0 198 -94 198 -188c0 -53 -20 -115 -111 -154c-55 -24 -148 -45 -379 -45h-158zM147 91h31
c139 0 269 9 316 24c53 17 88 37 88 83c0 45 -46 109 -143 109c-83 0 -197 -68 -292 -216zM390 513c-30 0 -52 21 -52 55c0 31 22 54 52 54c31 0 52 -23 52 -54c0 -34 -21 -55 -52 -55z" />
    <glyph glyph-name="uni0638.m" unicode="&#x638;" horiz-adv-x="715" arabic-form="medial" 
d="M158 726l13 -361c3 -82 2 -120 -1 -147c75 95 176 169 280 169c118 0 198 -94 198 -188c0 -31 -7 -65 -30 -95c29 -11 71 -14 97 -14c29 0 53 -13 53 -44c0 -20 -9 -46 -53 -46h-16c-71 0 -129 18 -165 44c-55 -24 -149 -44 -376 -44h-158c-40 0 -50 27 -50 47
c0 17 10 44 50 44h66c10 17 20 34 27 49c12 29 10 56 8 98l-19 482zM390 513c-30 0 -52 21 -52 55c0 31 22 54 52 54c31 0 52 -23 52 -54c0 -34 -21 -55 -52 -55zM147 91h31c139 0 269 9 316 24c53 17 88 37 88 83c0 45 -46 109 -143 109c-83 0 -197 -68 -292 -216z" />
    <glyph glyph-name="uni0638.f" unicode="&#x638;" horiz-adv-x="788" arabic-form="final" 
d="M229 726l14 -361c4 -82 3 -120 0 -147c75 95 176 169 279 169c119 0 198 -94 198 -188c0 -31 -7 -66 -31 -97c31 -9 75 -12 99 -12c29 0 53 -13 53 -44c0 -20 -9 -46 -53 -46h-15c-70 0 -132 17 -170 42c-56 -23 -152 -42 -373 -42c-36 0 -108 -1 -184 13l-31 93
c40 -12 103 -15 124 -15c10 17 20 34 27 49c12 29 10 56 8 98l-19 482zM461 513c-30 0 -52 21 -52 55c0 31 22 54 52 54c31 0 52 -23 52 -54c0 -34 -21 -55 -52 -55zM219 91h31c138 0 270 9 317 24c53 17 88 37 88 83c0 45 -47 109 -143 109c-84 0 -199 -68 -293 -216z" />
    <glyph glyph-name="uni0639.i" unicode="&#x639;" horiz-adv-x="497" arabic-form="initial" 
d="M-1 0c-35 0 -50 23 -50 47c0 18 11 44 51 44h12c26 0 116 5 143 7c-38 23 -92 74 -92 146c0 112 92 190 200 190c57 0 99 -15 126 -35l9 -76c-31 20 -85 31 -133 31c-81 0 -137 -48 -137 -106c0 -44 37 -85 97 -117c23 -13 49 -18 64 -18c40 0 119 12 176 38l-13 -87
c-76 -37 -279 -64 -438 -64h-15z" />
    <glyph glyph-name="uni0639.m" unicode="&#x639;" horiz-adv-x="608" arabic-form="medial" 
d="M604 91h4c29 0 53 -14 53 -45c0 -20 -10 -46 -53 -46h-12c-99 0 -186 27 -259 67c-89 -40 -203 -67 -337 -67c-38 0 -50 26 -50 45c0 17 12 46 50 46h3c97 0 181 13 250 32c-64 51 -111 110 -139 163c-21 -8 -39 -15 -55 -24l-9 72c40 20 141 62 269 62
c169 0 220 -52 220 -114c0 -54 -40 -114 -113 -165c53 -17 112 -26 178 -26zM177 304c35 -59 89 -112 161 -151c89 39 136 87 136 117c0 18 -25 52 -159 52c-39 0 -89 -7 -138 -18z" />
    <glyph glyph-name="uni0639.f" unicode="&#x639;" horiz-adv-x="620" arabic-form="final" 
d="M577 91h43c30 0 54 -14 54 -45c0 -20 -10 -46 -54 -46h-45c-110 0 -199 33 -269 80c-147 -74 -184 -129 -184 -191c0 -102 123 -188 319 -188c68 0 127 6 165 16l-31 -76c-37 -12 -95 -20 -164 -20c-188 0 -362 88 -362 264c0 81 37 154 201 239c-55 50 -96 108 -123 160
c-21 -7 -39 -15 -55 -24l-9 73c41 22 148 63 270 63c159 0 220 -50 220 -115c0 -42 -18 -85 -159 -158c51 -20 112 -32 183 -32zM190 303c30 -55 73 -106 132 -144c154 71 167 99 167 112c0 20 -29 51 -161 51c-41 0 -91 -7 -138 -19z" />
    <glyph glyph-name="uni063A.i" unicode="&#x63a;" horiz-adv-x="497" arabic-form="initial" 
d="M-1 0c-35 0 -50 23 -50 47c0 18 11 44 51 44h12c26 0 116 5 143 7c-38 23 -92 74 -92 146c0 112 92 190 200 190c57 0 99 -15 126 -35l9 -76c-31 20 -85 31 -133 31c-81 0 -137 -48 -137 -106c0 -44 37 -85 97 -117c23 -13 49 -18 64 -18c40 0 119 12 176 38l-13 -87
c-76 -37 -279 -64 -438 -64h-15zM218 557c-30 0 -52 21 -52 54c0 32 22 54 52 54c31 0 52 -22 52 -54c0 -33 -21 -54 -52 -54z" />
    <glyph glyph-name="uni063A.m" unicode="&#x63a;" horiz-adv-x="608" arabic-form="medial" 
d="M323 546c-30 0 -52 21 -52 55c0 31 22 54 52 54c31 0 52 -23 52 -54c0 -34 -21 -55 -52 -55zM604 91h4c29 0 53 -14 53 -45c0 -20 -10 -46 -53 -46h-12c-99 0 -186 27 -259 67c-89 -40 -203 -67 -337 -67c-38 0 -50 26 -50 45c0 17 12 46 50 46h3c97 0 181 13 250 32
c-64 51 -111 110 -139 163c-21 -8 -39 -15 -55 -24l-9 72c40 20 141 62 269 62c169 0 220 -52 220 -114c0 -54 -40 -114 -113 -165c53 -17 112 -26 178 -26zM177 304c35 -59 89 -112 161 -151c89 39 136 87 136 117c0 18 -25 52 -159 52c-39 0 -89 -7 -138 -18z" />
    <glyph glyph-name="uni063A.f" unicode="&#x63a;" horiz-adv-x="620" arabic-form="final" 
d="M330 546c-30 0 -51 21 -51 55c0 31 21 54 52 54s52 -23 52 -54c0 -34 -21 -55 -53 -55zM577 91h43c30 0 54 -14 54 -45c0 -20 -10 -46 -54 -46h-45c-110 0 -199 33 -269 80c-147 -74 -184 -129 -184 -191c0 -102 123 -188 319 -188c68 0 127 6 165 16l-31 -76
c-37 -12 -95 -20 -164 -20c-188 0 -362 88 -362 264c0 81 37 154 201 239c-55 50 -96 108 -123 160c-21 -7 -39 -15 -55 -24l-9 73c41 22 148 63 270 63c159 0 220 -50 220 -115c0 -42 -18 -85 -159 -158c51 -20 112 -32 183 -32zM190 303c30 -55 73 -106 132 -144
c154 71 167 99 167 112c0 20 -29 51 -161 51c-41 0 -91 -7 -138 -19z" />
    <glyph glyph-name="uni0641.i" unicode="&#x641;" horiz-adv-x="436" arabic-form="initial" 
d="M193 620c-30 0 -52 21 -52 55c0 31 22 54 52 54c31 0 52 -23 52 -54c0 -34 -21 -55 -52 -55zM58 0h-58c-34 0 -51 23 -51 47c0 22 17 44 51 44h67c102 0 209 16 236 29c2 10 5 21 5 34c-187 -8 -255 79 -255 161c0 34 9 81 52 126c36 38 83 54 117 54
c76 0 159 -90 159 -256c0 -49 -8 -130 -26 -174c-32 -23 -105 -65 -297 -65zM117 325c0 -60 72 -98 196 -95c6 67 -27 186 -103 186c-54 0 -93 -43 -93 -91z" />
    <glyph glyph-name="uni0641.m" unicode="&#x641;" horiz-adv-x="458" arabic-form="medial" 
d="M209 551c-30 0 -51 21 -51 55c0 31 21 54 52 54s52 -23 52 -54c0 -34 -21 -55 -53 -55zM431 91h27c30 0 54 -14 54 -45c0 -20 -10 -46 -54 -46h-34c-67 0 -136 14 -195 39c-57 -25 -123 -39 -190 -39h-39c-33 0 -51 16 -51 46c0 16 11 45 51 45h33c32 0 68 1 103 6
c-41 37 -66 84 -66 139c0 107 96 192 172 192c66 0 144 -75 144 -186c0 -56 -25 -104 -65 -143c35 -5 73 -8 110 -8zM134 240c0 -57 41 -95 101 -119c51 21 87 57 87 115c0 60 -45 112 -89 112c-59 0 -99 -57 -99 -108z" />
    <glyph glyph-name="uni0641.f" unicode="&#x641;" horiz-adv-x="917" arabic-form="final" 
d="M680 551c-30 0 -51 21 -51 55c0 31 21 54 52 54s52 -23 52 -54c0 -34 -21 -55 -53 -55zM894 91h23c29 0 53 -14 53 -45c0 -20 -9 -46 -53 -46h-23c-69 0 -139 13 -199 37c-74 -35 -178 -57 -320 -57c-249 0 -325 128 -325 257c0 56 11 108 28 151l53 -11
c-10 -35 -15 -74 -15 -112c0 -140 110 -197 286 -197c72 0 144 5 206 18c-48 39 -79 90 -79 152c0 107 98 190 171 190c65 0 144 -76 144 -184c0 -52 -18 -103 -60 -146c36 -5 73 -7 110 -7zM593 243c0 -64 44 -103 106 -125c51 26 82 64 82 119c0 57 -42 111 -90 111
c-57 0 -98 -55 -98 -105z" />
    <glyph glyph-name="uni06A4.i" unicode="&#x6a4;" horiz-adv-x="436" arabic-form="initial" 
d="M194 741c-29 0 -49 19 -49 53c0 31 20 53 49 53c31 0 50 -22 50 -53c0 -33 -19 -53 -50 -53zM127 620c-30 0 -50 20 -50 54c0 29 22 52 50 52c29 0 50 -23 50 -52c0 -33 -21 -54 -50 -54zM259 620c-29 0 -50 20 -50 54c0 29 21 52 50 52c30 0 49 -23 49 -52
c0 -33 -19 -54 -49 -54zM58 0h-58c-34 0 -51 23 -51 47c0 22 17 44 51 44h67c102 0 209 16 236 29c2 10 5 21 5 34c-187 -8 -255 79 -255 161c0 34 9 81 52 126c36 38 83 54 117 54c76 0 159 -90 159 -256c0 -49 -8 -130 -26 -174c-32 -23 -105 -65 -297 -65zM117 325
c0 -60 72 -98 196 -95c6 67 -27 186 -103 186c-54 0 -93 -43 -93 -91z" />
    <glyph glyph-name="uni06A4.m" unicode="&#x6a4;" horiz-adv-x="458" arabic-form="medial" 
d="M210 672c-29 0 -48 19 -48 53c0 31 19 53 48 53c31 0 51 -22 51 -53c0 -33 -20 -53 -51 -53zM143 551c-29 0 -50 20 -50 54c0 29 22 52 50 52c30 0 51 -23 51 -52c0 -33 -21 -54 -51 -54zM226 605c0 29 20 52 50 52s49 -23 49 -52c0 -33 -19 -54 -49 -54s-50 20 -50 54z
M431 91h27c30 0 54 -14 54 -45c0 -20 -10 -46 -54 -46h-34c-67 0 -136 14 -195 39c-57 -25 -123 -39 -190 -39h-39c-33 0 -51 16 -51 46c0 16 11 45 51 45h33c32 0 68 1 103 6c-41 37 -66 84 -66 139c0 107 96 192 172 192c66 0 144 -75 144 -186c0 -56 -25 -104 -65 -143
c35 -5 73 -8 110 -8zM134 240c0 -57 41 -95 101 -119c51 21 87 57 87 115c0 60 -45 112 -89 112c-59 0 -99 -57 -99 -108z" />
    <glyph glyph-name="uni06A4.f" unicode="&#x6a4;" horiz-adv-x="917" arabic-form="final" 
d="M681 672c-29 0 -48 19 -48 53c0 31 19 53 48 53c31 0 51 -22 51 -53c0 -33 -20 -53 -51 -53zM614 551c-29 0 -50 20 -50 54c0 29 22 52 50 52c30 0 51 -23 51 -52c0 -33 -21 -54 -51 -54zM697 605c0 29 20 52 50 52s49 -23 49 -52c0 -33 -19 -54 -49 -54s-50 20 -50 54z
M894 91h23c29 0 53 -14 53 -45c0 -20 -9 -46 -53 -46h-23c-69 0 -139 13 -199 37c-74 -35 -178 -57 -320 -57c-249 0 -325 128 -325 257c0 56 11 108 28 151l53 -11c-10 -35 -15 -74 -15 -112c0 -140 110 -197 286 -197c72 0 144 5 206 18c-48 39 -79 90 -79 152
c0 107 98 190 171 190c65 0 144 -76 144 -184c0 -52 -18 -103 -60 -146c36 -5 73 -7 110 -7zM593 243c0 -64 44 -103 106 -125c51 26 82 64 82 119c0 57 -42 111 -90 111c-57 0 -98 -55 -98 -105z" />
    <glyph glyph-name="uni0642.i" unicode="&#x642;" horiz-adv-x="436" arabic-form="initial" 
d="M126 620c-29 0 -51 20 -51 53c0 32 22 53 51 53c30 0 51 -21 51 -53c0 -33 -21 -53 -51 -53zM260 620c-30 0 -49 20 -49 53c0 32 19 53 49 53s51 -21 51 -53c0 -33 -21 -53 -51 -53zM58 0h-58c-34 0 -51 23 -51 47c0 22 17 44 51 44h67c102 0 209 16 236 29
c2 10 5 21 5 34c-187 -8 -255 79 -255 161c0 34 9 81 52 126c36 38 83 54 117 54c76 0 159 -90 159 -256c0 -49 -8 -130 -26 -174c-32 -23 -105 -65 -297 -65zM117 325c0 -60 72 -98 196 -95c6 67 -27 186 -103 186c-54 0 -93 -43 -93 -91z" />
    <glyph glyph-name="uni0642.m" unicode="&#x642;" horiz-adv-x="458" arabic-form="medial" 
d="M142 551c-29 0 -51 20 -51 53c0 32 22 53 51 53c30 0 51 -21 51 -53c0 -33 -21 -53 -51 -53zM276 551c-29 0 -49 20 -49 53c0 32 20 53 49 53c31 0 51 -21 51 -53c0 -33 -20 -53 -51 -53zM431 91h27c30 0 54 -14 54 -45c0 -20 -10 -46 -54 -46h-34c-67 0 -136 14 -195 39
c-57 -25 -123 -39 -190 -39h-39c-33 0 -51 16 -51 46c0 16 11 45 51 45h33c32 0 68 1 103 6c-41 37 -66 84 -66 139c0 107 96 192 172 192c66 0 144 -75 144 -186c0 -56 -25 -104 -65 -143c35 -5 73 -8 110 -8zM134 240c0 -57 41 -95 101 -119c51 21 87 57 87 115
c0 60 -45 112 -89 112c-59 0 -99 -57 -99 -108z" />
    <glyph glyph-name="uni0642.f" unicode="&#x642;" horiz-adv-x="714" arabic-form="final" 
d="M378 474c-29 0 -51 20 -51 53c0 32 22 53 51 53c30 0 51 -21 51 -53c0 -33 -21 -53 -51 -53zM512 474c-29 0 -49 20 -49 53c0 32 20 53 49 53c31 0 51 -21 51 -53c0 -33 -20 -53 -51 -53zM639 91h75c30 0 54 -14 54 -45c0 -20 -10 -46 -54 -46h-81
c-5 -39 -13 -66 -16 -72c-36 -78 -136 -171 -301 -171c-153 0 -266 93 -266 278c0 64 18 130 33 166l56 -7c-8 -30 -20 -91 -20 -138c0 -148 90 -212 209 -212c122 0 198 61 227 115c2 5 6 21 10 41h-22c-180 0 -232 87 -232 177c-1 87 70 171 160 171
c65 0 164 -53 168 -257zM559 91h15c-3 113 -55 181 -118 181c-47 0 -82 -42 -82 -83c0 -49 28 -98 185 -98z" />
    <glyph glyph-name="uni0643.i" unicode="&#x643;" horiz-adv-x="395" arabic-form="initial" 
d="M0 0c-41 0 -51 27 -51 47c0 15 11 44 51 44h85c160 0 189 37 189 82c0 47 -62 138 -268 276c1 22 4 65 13 83c3 5 15 15 40 29c83 50 228 123 355 165l-17 -88c-91 -32 -247 -102 -318 -146c130 -100 259 -197 259 -322c0 -58 -29 -106 -71 -132
c-48 -29 -104 -38 -198 -38h-69z" />
    <glyph glyph-name="uni0643.m" unicode="&#x643;" horiz-adv-x="446" arabic-form="medial" 
d="M0 0c-41 0 -51 25 -51 47c0 17 11 44 51 44h30c131 0 182 26 182 81c0 21 -8 37 -40 85c-49 70 -108 131 -167 188c2 15 8 74 11 81c2 5 16 17 48 35c86 46 258 119 393 161l-17 -88c-95 -30 -299 -110 -369 -150c110 -109 155 -174 250 -309c54 -80 86 -81 125 -84
c29 0 53 -14 53 -45c0 -20 -10 -46 -53 -46c-74 1 -115 16 -186 125c-16 -82 -80 -125 -231 -125h-29z" />
    <glyph glyph-name="uni0643.f" unicode="&#x643;" horiz-adv-x="855" arabic-form="final" 
d="M50 214c0 26 5 57 14 84l55 -10c-3 -17 -5 -42 -5 -55c0 -120 103 -164 235 -164c154 0 281 46 313 94c4 5 7 24 6 61l-21 496l75 6l18 -485c7 -122 49 -148 115 -150c29 0 53 -14 53 -45c0 -20 -9 -46 -53 -46c-96 0 -141 51 -158 109c-36 -65 -180 -127 -356 -127
c-236 0 -291 128 -291 232zM311 279l-17 44c97 2 153 35 153 51c0 9 -16 13 -59 16c-53 3 -68 21 -68 50c0 58 57 126 146 138v-63c-70 -11 -98 -37 -98 -58c0 -8 13 -12 49 -15c66 -6 77 -26 77 -54c0 -70 -85 -112 -149 -112c-17 0 -28 1 -34 3z" />
    <glyph glyph-name="uni06AD.i" unicode="&#x6ad;" horiz-adv-x="395" arabic-form="initial" 
d="M0 0c-41 0 -51 27 -51 47c0 15 11 44 51 44h85c160 0 189 37 189 82c0 47 -62 138 -268 276c1 22 4 65 13 83c3 5 15 15 40 29c83 50 228 123 355 165l-17 -88c-91 -32 -247 -102 -318 -146c130 -100 259 -197 259 -322c0 -58 -29 -106 -71 -132
c-48 -29 -104 -38 -198 -38h-69zM171 727c-28 0 -47 18 -47 50c0 30 19 50 47 50c29 0 48 -20 48 -50c0 -31 -19 -50 -48 -50zM45 727c-28 0 -48 18 -48 50c0 30 21 50 48 50c28 0 49 -20 49 -50c0 -31 -21 -50 -49 -50zM109 843c-28 0 -47 17 -47 49c0 30 19 50 47 50
c29 0 49 -20 49 -50c0 -31 -20 -49 -49 -49z" />
    <glyph glyph-name="uni06AD.m" unicode="&#x6ad;" horiz-adv-x="446" arabic-form="medial" 
d="M0 0c-41 0 -51 25 -51 47c0 17 11 44 51 44h30c131 0 182 26 182 81c0 21 -8 37 -40 85c-49 70 -108 131 -167 188c2 15 8 74 11 81c2 5 16 17 48 35c86 46 258 119 393 161l-17 -88c-95 -30 -299 -110 -369 -150c110 -109 155 -174 250 -309c54 -80 86 -81 125 -84
c29 0 53 -14 53 -45c0 -20 -10 -46 -53 -46c-74 1 -115 16 -186 125c-16 -82 -80 -125 -231 -125h-29zM171 727c-28 0 -47 18 -47 50c0 30 19 50 47 50c29 0 48 -20 48 -50c0 -31 -19 -50 -48 -50zM45 727c-28 0 -48 18 -48 50c0 30 21 50 48 50c28 0 49 -20 49 -50
c0 -31 -21 -50 -49 -50zM109 843c-28 0 -47 17 -47 49c0 30 19 50 47 50c29 0 49 -20 49 -50c0 -31 -20 -49 -49 -49z" />
    <glyph glyph-name="uni06AD.f" unicode="&#x6ad;" horiz-adv-x="855" arabic-form="final" 
d="M50 214c0 26 5 57 14 84l55 -10c-3 -17 -5 -42 -5 -55c0 -120 103 -164 235 -164c154 0 281 46 313 94c4 5 7 24 6 61l-21 496l75 6l18 -485c7 -122 49 -148 115 -150c29 0 53 -14 53 -45c0 -20 -9 -46 -53 -46c-96 0 -141 51 -158 109c-36 -65 -180 -127 -356 -127
c-236 0 -291 128 -291 232zM311 279l-17 44c97 2 153 35 153 51c0 9 -16 13 -59 16c-53 3 -68 21 -68 50c0 58 57 126 146 138v-63c-70 -11 -98 -37 -98 -58c0 -8 13 -12 49 -15c66 -6 77 -26 77 -54c0 -70 -85 -112 -149 -112c-17 0 -28 1 -34 3zM430 682
c-28 0 -48 18 -48 50c0 30 20 50 48 50c29 0 48 -20 48 -50c0 -31 -19 -50 -48 -50zM304 682c-28 0 -48 18 -48 50c0 30 21 50 48 50c28 0 49 -20 49 -50c0 -31 -21 -50 -49 -50zM368 798c-28 0 -47 17 -47 49c0 30 19 50 47 50c29 0 49 -20 49 -50c0 -31 -20 -49 -49 -49z
" />
    <glyph glyph-name="uni06A9.f" unicode="&#x6a9;" horiz-adv-x="962" arabic-form="final" 
d="M50 214c0 18 4 57 13 84l56 -10c-3 -18 -5 -42 -5 -55c0 -120 125 -167 284 -167c238 0 316 71 316 102c0 17 -6 47 -59 119c-34 48 -85 110 -132 157c2 29 5 69 12 85c3 6 15 15 49 32c88 48 241 112 389 162l-16 -89c-82 -29 -289 -104 -368 -152
c77 -82 136 -164 218 -285c62 -92 98 -106 155 -106c29 0 53 -14 53 -45c0 -20 -9 -46 -53 -46h-9c-69 0 -122 21 -192 127c-27 -97 -165 -148 -373 -148c-267 0 -338 118 -338 235z" />
    <glyph glyph-name="uni06AF.i" unicode="&#x6af;" horiz-adv-x="395" arabic-form="initial" 
d="M0 0c-41 0 -51 27 -51 47c0 15 11 44 51 44h85c160 0 189 37 189 82c0 47 -62 138 -268 276c1 22 4 65 13 83c3 5 15 15 40 29c83 50 228 123 355 165l-17 -88c-91 -32 -247 -102 -318 -146c130 -100 259 -197 259 -322c0 -58 -29 -106 -71 -132
c-48 -29 -104 -38 -198 -38h-69zM39 715c83 46 237 114 376 160l-14 -67c-139 -46 -282 -109 -373 -158z" />
    <glyph glyph-name="uni06AF.m" unicode="&#x6af;" horiz-adv-x="446" arabic-form="medial" 
d="M0 0c-41 0 -51 25 -51 47c0 17 11 44 51 44h30c131 0 182 26 182 81c0 21 -8 37 -40 85c-49 70 -108 131 -167 188c2 15 8 74 11 81c2 5 16 17 48 35c86 46 258 119 393 161l-17 -88c-95 -30 -299 -110 -369 -150c110 -109 155 -174 250 -309c54 -80 86 -81 125 -84
c29 0 53 -14 53 -45c0 -20 -10 -46 -53 -46c-74 1 -115 16 -186 125c-16 -82 -80 -125 -231 -125h-29zM53 715c83 46 237 114 376 160l-14 -67c-139 -46 -282 -109 -373 -158z" />
    <glyph glyph-name="uni06AF.f" unicode="&#x6af;" horiz-adv-x="962" arabic-form="final" 
d="M50 214c0 18 4 57 13 84l56 -10c-3 -18 -5 -42 -5 -55c0 -120 125 -167 284 -167c238 0 316 71 316 102c0 17 -6 47 -59 119c-34 48 -85 110 -132 157c2 29 5 69 12 85c3 6 15 15 49 32c88 48 241 112 389 162l-16 -89c-82 -29 -289 -104 -368 -152
c77 -82 136 -164 218 -285c62 -92 98 -106 155 -106c29 0 53 -14 53 -45c0 -20 -9 -46 -53 -46h-9c-69 0 -122 21 -192 127c-27 -97 -165 -148 -373 -148c-267 0 -338 118 -338 235zM571 715c83 46 237 114 376 160l-14 -67c-139 -46 -282 -109 -374 -158z" />
    <glyph glyph-name="uni0644.i" unicode="&#x644;" horiz-adv-x="285" arabic-form="initial" 
d="M0 0c-40 0 -51 25 -51 47c0 17 13 44 51 44c73 0 121 36 116 129l-24 500l75 6l24 -507c8 -152 -67 -219 -191 -219z" />
    <glyph glyph-name="uni0644.m" unicode="&#x644;" horiz-adv-x="303" arabic-form="medial" 
d="M-1 0c-40 0 -51 25 -51 47c0 20 14 44 52 44c84 0 118 45 113 168l-17 461l75 6l18 -466c4 -126 35 -166 114 -169c30 0 54 -14 54 -45c0 -19 -10 -46 -54 -46c-73 0 -125 31 -144 95c-29 -64 -84 -95 -160 -95z" />
    <glyph glyph-name="uni0644.f" unicode="&#x644;" horiz-adv-x="690" arabic-form="final" 
d="M559 726l20 -535c13 -87 67 -101 111 -101c30 0 54 -13 54 -44c0 -20 -10 -46 -54 -46c-41 0 -83 13 -106 49l1 -17c3 -65 -11 -109 -30 -135c-51 -84 -152 -131 -254 -131c-151 0 -249 93 -249 241c0 50 10 100 34 161l58 -10c-13 -44 -20 -86 -20 -122
c0 -135 97 -185 187 -185c87 0 162 40 191 90c10 18 12 35 11 61l-30 718z" />
    <glyph glyph-name="uni0645.i" unicode="&#x645;" horiz-adv-x="458" arabic-form="initial" 
d="M2 0h-2c-30 0 -54 14 -54 46c0 21 12 45 55 45c49 -1 70 30 90 88c42 120 82 169 158 169c103 0 163 -127 163 -221c0 -75 -50 -127 -114 -127c-56 0 -114 22 -182 74c-26 -52 -56 -74 -114 -74zM302 88c26 0 47 9 47 42c0 60 -49 140 -104 140c-39 0 -67 -22 -96 -115
c37 -34 100 -67 153 -67z" />
    <glyph glyph-name="uni0645.m" unicode="&#x645;" horiz-adv-x="495" arabic-form="medial" 
d="M0 91h5c43 2 62 19 86 88c43 114 82 157 158 157c84 0 142 -87 159 -170c29 -66 57 -75 87 -75c29 0 53 -14 53 -45c0 -20 -9 -46 -53 -46c-30 0 -69 11 -96 50c-19 -38 -56 -62 -99 -62c-57 0 -117 22 -185 74c-28 -43 -59 -62 -113 -62h-2c-29 0 -54 14 -54 45
c0 20 10 46 54 46zM302 76c26 0 47 9 47 42c0 60 -44 140 -104 140c-39 0 -69 -22 -98 -115c37 -34 102 -67 155 -67z" />
    <glyph glyph-name="uni0645.f" unicode="&#x645;" horiz-adv-x="806" arabic-form="final" 
d="M78 -209l-48 50c142 58 281 136 327 203c15 15 33 75 49 122c39 121 81 170 157 170c81 0 141 -82 158 -161c31 -77 59 -84 85 -85c29 0 53 -13 53 -44c0 -20 -9 -46 -53 -46c-37 0 -72 15 -97 54c-19 -39 -54 -66 -95 -66c-57 0 -112 20 -180 72c-8 -25 -19 -64 -41 -93
c-55 -74 -198 -149 -315 -176zM616 75c26 0 46 22 46 55c0 60 -48 129 -104 129c-39 0 -68 -23 -96 -116c36 -34 100 -68 154 -68z" />
    <glyph glyph-name="uni0646.i" unicode="&#x6ba;" horiz-adv-x="286" 
d="M0 0c-40 0 -50 26 -50 47c0 18 11 44 50 44h20c72 0 117 7 141 23c1 6 1 13 1 19c-3 86 -40 168 -77 232l73 29c31 -57 71 -173 71 -268c0 -26 -3 -55 -11 -77c-28 -24 -69 -49 -203 -49h-15zM76 510c-30 0 -51 21 -51 55c0 31 21 54 52 54s52 -23 52 -54
c0 -34 -21 -55 -53 -55z" />
    <glyph glyph-name="uni0646.m" unicode="&#x6ba;" horiz-adv-x="314" 
d="M-3 0c-40 0 -51 24 -51 46c0 20 14 44 52 44c110 0 132 66 142 153l59 5c-1 -8 -2 -22 -2 -34c0 -63 20 -123 117 -124c29 0 53 -13 53 -44c0 -20 -9 -46 -53 -46c-87 0 -134 33 -154 100c-26 -71 -82 -100 -163 -100zM158 404c-30 0 -52 21 -52 55c0 31 22 54 52 54
c31 0 52 -23 52 -54c0 -34 -21 -55 -52 -55z" />
    <glyph glyph-name="uni06BA.f" unicode="&#x6ba;" horiz-adv-x="639" arabic-form="final" 
d="M50 30c0 58 18 121 38 161l59 -9c-14 -45 -25 -87 -25 -135c0 -104 69 -174 180 -174c66 0 141 26 183 100c11 17 18 43 18 52c0 28 -1 45 -6 67c-20 81 -51 143 -67 175l73 31c14 -29 51 -115 64 -194c18 -10 45 -14 72 -14c29 0 53 -13 53 -44c0 -20 -9 -46 -53 -46
c-23 0 -57 3 -72 11c-4 -30 -17 -68 -32 -93c-46 -78 -125 -134 -243 -134c-152 0 -242 100 -242 246z" />
    <glyph glyph-name="uni0646.f" unicode="&#x646;" horiz-adv-x="639" arabic-form="final" 
d="M50 30c0 58 18 121 38 161l59 -9c-14 -45 -25 -87 -25 -135c0 -104 69 -174 180 -174c66 0 141 26 183 100c11 17 18 43 18 52c0 28 -1 45 -6 67c-20 81 -51 143 -67 175l73 31c14 -29 51 -115 64 -194c18 -10 45 -14 72 -14c29 0 53 -13 53 -44c0 -20 -9 -46 -53 -46
c-23 0 -57 3 -72 11c-4 -30 -17 -68 -32 -93c-46 -78 -125 -134 -243 -134c-152 0 -242 100 -242 246zM288 369c-30 0 -51 21 -51 55c0 31 21 54 52 54s52 -23 52 -54c0 -34 -21 -55 -53 -55z" />
    <glyph glyph-name="uni0647.i" unicode="&#x647;" horiz-adv-x="631" arabic-form="initial" 
d="M190 463l43 64c44 -31 118 -80 174 -123c100 -73 176 -154 176 -250c1 -96 -79 -163 -192 -163c-57 0 -114 17 -163 44c-57 -22 -129 -35 -215 -35h-13c-40 0 -49 25 -49 46c0 17 10 45 49 45h23c43 0 86 2 126 9c-34 39 -55 85 -55 134c0 89 63 161 140 195zM161 245
c0 -50 31 -92 74 -122c64 28 106 76 106 159c0 68 -43 98 -64 98c-38 0 -116 -48 -116 -135zM395 74c83 0 124 30 124 80c0 57 -50 117 -119 171c7 -27 7 -40 7 -58c0 -69 -29 -133 -90 -182c26 -7 53 -11 78 -11z" />
    <glyph glyph-name="uni0647.m" unicode="&#x647;" horiz-adv-x="479" arabic-form="medial" 
d="M356 91h123c30 0 54 -14 54 -45c0 -19 -10 -46 -54 -46h-105c39 -27 62 -58 62 -104c0 -86 -75 -140 -147 -140c-140 0 -205 130 -216 244h-73c-37 0 -50 27 -50 46c0 22 16 45 50 45h75c16 119 78 243 138 331h27c47 -54 140 -157 140 -243c0 -30 -9 -61 -24 -88z
M140 91h59c98 0 118 29 118 70c0 49 -44 114 -90 161c-32 -53 -74 -137 -87 -231zM202 0h-64c12 -88 69 -169 153 -169c49 0 80 25 80 66c0 40 -44 103 -169 103z" />
    <glyph glyph-name="uni0647.f" unicode="&#x647;" horiz-adv-x="480" arabic-form="final" 
d="M358 528l12 -309c5 -108 53 -128 110 -128c29 0 54 -14 54 -45c0 -20 -10 -46 -54 -46c-62 0 -126 17 -157 91c-33 -21 -90 -31 -124 -31c-91 0 -152 50 -152 126c0 63 34 117 98 168c37 30 99 62 148 87l-3 80zM304 190l-8 177c-128 -54 -181 -110 -181 -158
c0 -41 39 -60 95 -60c29 0 68 7 95 19c0 7 -1 14 -1 22z" />
    <glyph glyph-name="uni0629.f" unicode="&#x629;" horiz-adv-x="480" arabic-form="final" 
d="M247 620c-29 0 -51 19 -51 52c0 32 22 53 51 53c30 0 51 -21 51 -53s-21 -52 -51 -52zM381 620c-29 0 -49 19 -49 52c0 32 20 53 49 53c31 0 51 -21 51 -53s-20 -52 -51 -52zM358 528l12 -309c5 -108 53 -128 110 -128c29 0 54 -14 54 -45c0 -20 -10 -46 -54 -46
c-62 0 -126 17 -157 91c-33 -21 -90 -31 -124 -31c-91 0 -152 50 -152 126c0 63 34 117 98 168c37 30 99 62 148 87l-3 80zM304 190l-8 177c-128 -54 -181 -110 -181 -158c0 -41 39 -60 95 -60c29 0 68 7 95 19c0 7 -1 14 -1 22z" />
    <glyph glyph-name="uni06BE.f" unicode="&#x6be;" horiz-adv-x="519" arabic-form="final" 
d="M395 91h124c30 0 54 -14 54 -45c0 -20 -10 -46 -54 -46h-105c39 -27 62 -58 62 -104c0 -86 -75 -140 -147 -140c-134 0 -198 114 -214 223c-26 -2 -54 -3 -81 -3l-22 90c37 -1 70 0 100 1c11 126 77 261 141 355h27c47 -54 140 -158 140 -247c0 -32 -9 -60 -25 -84z
M267 321c-34 -57 -80 -145 -89 -249c144 15 178 55 179 89c0 49 -44 113 -90 160zM331 -169c49 0 79 25 79 66c0 39 -41 101 -166 103c-20 -5 -41 -10 -62 -13c15 -85 70 -156 149 -156z" />
    <glyph glyph-name="uni06C0.f" unicode="&#x6c0;" horiz-adv-x="480" arabic-form="final" 
d="M402 629h-65c-37 0 -96 -2 -134 -17l6 47c9 5 31 11 46 12c-14 10 -36 28 -36 62c0 55 48 85 102 85c44 0 73 -14 86 -27l-16 -46c-17 13 -45 23 -72 23c-33 0 -51 -20 -51 -36c0 -33 37 -53 88 -53h66zM358 528l12 -309c5 -108 53 -128 110 -128c29 0 54 -14 54 -45
c0 -20 -10 -46 -54 -46c-62 0 -126 17 -157 91c-33 -21 -90 -31 -124 -31c-91 0 -152 50 -152 126c0 63 34 117 98 168c37 30 99 62 148 87l-3 80zM304 190l-8 177c-128 -54 -181 -110 -181 -158c0 -41 39 -60 95 -60c29 0 68 7 95 19c0 7 -1 14 -1 22z" />
    <glyph glyph-name="uni06C1.i" unicode="&#x6c1;" horiz-adv-x="460" arabic-form="initial" 
d="M0 0c-39 0 -51 23 -51 45c0 25 15 46 51 46c70 0 124 25 143 127l63 3c-3 -14 -8 -34 -8 -55c-2 -63 30 -78 68 -78c44 0 77 32 77 77c0 35 -17 89 -34 123l73 21c13 -25 24 -75 24 -130c0 -114 -66 -179 -149 -179c-64 0 -95 40 -108 75c-25 -44 -84 -75 -149 -75z
M262 -78l58 -23c-24 -32 -44 -64 -44 -110c0 -35 16 -73 44 -105l-62 -31c-24 23 -54 77 -54 133c0 52 23 95 58 136z" />
    <glyph glyph-name="uni06C1.m" unicode="&#x6c1;" horiz-adv-x="487" arabic-form="medial" 
d="M0 0c-41 0 -51 26 -51 49c0 19 13 41 51 41h40c112 0 157 78 194 162l66 -12c-51 -106 -76 -169 -76 -246c0 -78 23 -143 75 -194l4 3c-7 27 -15 80 -15 119c0 118 56 169 152 168h47c30 0 54 -13 54 -44c0 -20 -10 -46 -54 -46h-46c-63 0 -90 -25 -90 -99
c0 -56 14 -125 27 -171l-70 -49c-95 70 -155 182 -155 296c0 15 1 38 5 62c-28 -25 -74 -39 -131 -39h-27z" />
    <glyph glyph-name="uni06C1.f" unicode="&#x6c1;" horiz-adv-x="480" arabic-form="final" 
d="M358 528l12 -309c5 -108 53 -128 110 -128c29 0 54 -14 54 -45c0 -20 -10 -46 -54 -46c-62 0 -126 17 -157 91c-33 -21 -90 -31 -124 -31c-91 0 -152 50 -152 126c0 63 34 117 98 168c37 30 99 62 148 87l-3 80zM304 190l-8 177c-128 -54 -181 -110 -181 -158
c0 -41 39 -60 95 -60c29 0 68 7 95 19c0 7 -1 14 -1 22z" />
    <glyph glyph-name="uni06C2.f" unicode="&#x6c2;" horiz-adv-x="480" 
d="M402 629h-65c-37 0 -96 -2 -134 -17l6 47c9 5 31 11 46 12c-14 10 -36 28 -36 62c0 55 48 85 102 85c44 0 73 -14 86 -27l-16 -46c-17 13 -45 23 -72 23c-33 0 -51 -20 -51 -36c0 -33 37 -53 88 -53h66zM358 528l12 -309c5 -108 53 -128 110 -128c29 0 54 -14 54 -45
c0 -20 -10 -46 -54 -46c-62 0 -126 17 -157 91c-33 -21 -90 -31 -124 -31c-91 0 -152 50 -152 126c0 63 34 117 98 168c37 30 99 62 148 87l-3 80zM304 190l-8 177c-128 -54 -181 -110 -181 -158c0 -41 39 -60 95 -60c29 0 68 7 95 19c0 7 -1 14 -1 22z" />
    <glyph glyph-name="uni06C3.f" unicode="&#x6c3;" horiz-adv-x="480" 
d="M247 620c-29 0 -51 19 -51 52c0 32 22 53 51 53c30 0 51 -21 51 -53s-21 -52 -51 -52zM381 620c-29 0 -49 19 -49 52c0 32 20 53 49 53c31 0 51 -21 51 -53s-20 -52 -51 -52zM358 528l12 -309c5 -108 53 -128 110 -128c29 0 54 -14 54 -45c0 -20 -10 -46 -54 -46
c-62 0 -126 17 -157 91c-33 -21 -90 -31 -124 -31c-91 0 -152 50 -152 126c0 63 34 117 98 168c37 30 99 62 148 87l-3 80zM304 190l-8 177c-128 -54 -181 -110 -181 -158c0 -41 39 -60 95 -60c29 0 68 7 95 19c0 7 -1 14 -1 22z" />
    <glyph glyph-name="uni06D5.f" unicode="&#x6d5;" horiz-adv-x="480" 
d="M358 528l12 -309c5 -108 53 -128 110 -128c29 0 54 -14 54 -45c0 -20 -10 -46 -54 -46c-62 0 -126 17 -157 91c-33 -21 -90 -31 -124 -31c-91 0 -152 50 -152 126c0 63 34 117 98 168c37 30 99 62 148 87l-3 80zM304 190l-8 177c-128 -54 -181 -110 -181 -158
c0 -41 39 -60 95 -60c29 0 68 7 95 19c0 7 -1 14 -1 22z" />
    <glyph glyph-name="uni0648.f" unicode="&#x648;" horiz-adv-x="532" arabic-form="final" 
d="M456 90h76c29 0 53 -13 53 -44c0 -20 -9 -46 -53 -46h-83c-30 -156 -144 -276 -284 -276c-49 0 -109 10 -151 49l15 63c34 -18 68 -29 128 -29c113 0 195 86 222 193h-20c-180 0 -229 86 -229 179c0 90 70 169 157 169c65 0 165 -53 169 -258zM374 90h15
c-4 119 -53 182 -115 182c-48 0 -80 -42 -80 -83c0 -47 24 -99 180 -99z" />
    <glyph glyph-name="uni0624.f" unicode="&#x624;" horiz-adv-x="532" arabic-form="final" 
d="M346 485h-65c-36 0 -95 -1 -133 -17l6 47c8 5 31 12 45 12c-14 10 -35 29 -35 62c0 55 48 85 102 85c44 0 72 -14 85 -26l-15 -46c-17 13 -46 22 -72 22c-34 0 -51 -19 -51 -36c0 -32 37 -52 88 -52h66zM456 90h76c29 0 53 -13 53 -44c0 -20 -9 -46 -53 -46h-83
c-30 -156 -144 -276 -284 -276c-49 0 -109 10 -151 49l15 63c34 -18 68 -29 128 -29c113 0 195 86 222 193h-20c-180 0 -229 86 -229 179c0 90 70 169 157 169c65 0 165 -53 169 -258zM374 90h15c-4 119 -53 182 -115 182c-48 0 -80 -42 -80 -83c0 -47 24 -99 180 -99z" />
    <glyph glyph-name="uni06C6.f" unicode="&#x6c6;" horiz-adv-x="532" arabic-form="final" 
d="M283 471h-52c-16 36 -51 95 -104 160l44 34c41 -46 73 -98 89 -126c19 33 47 76 91 129l40 -31c-50 -64 -87 -123 -108 -166zM456 90h76c29 0 53 -13 53 -44c0 -20 -9 -46 -53 -46h-83c-30 -156 -144 -276 -284 -276c-49 0 -109 10 -151 49l15 63c34 -18 68 -29 128 -29
c113 0 195 86 222 193h-20c-180 0 -229 86 -229 179c0 90 70 169 157 169c65 0 165 -53 169 -258zM374 90h15c-4 119 -53 182 -115 182c-48 0 -80 -42 -80 -83c0 -47 24 -99 180 -99z" />
    <glyph glyph-name="uni06C7.f" unicode="&#x6c7;" horiz-adv-x="532" arabic-form="final" 
d="M137 473v39c17 -5 38 -6 53 -6c34 0 81 15 99 43c-63 -4 -113 26 -113 86c0 51 39 91 91 91c37 0 88 -31 89 -108c0 -104 -83 -159 -156 -159c-28 0 -52 6 -63 14zM217 641c0 -26 25 -55 93 -50c7 48 -11 88 -53 88c-22 0 -40 -16 -40 -38zM456 90h76c29 0 53 -13 53 -44
c0 -20 -9 -46 -53 -46h-83c-30 -156 -144 -276 -284 -276c-49 0 -109 10 -151 49l15 63c34 -18 68 -29 128 -29c113 0 195 86 222 193h-20c-180 0 -229 86 -229 179c0 90 70 169 157 169c65 0 165 -53 169 -258zM374 90h15c-4 119 -53 182 -115 182c-48 0 -80 -42 -80 -83
c0 -47 24 -99 180 -99z" />
    <glyph glyph-name="uni06C8.f" unicode="&#x6c8;" horiz-adv-x="532" arabic-form="final" 
d="M289 477l-60 -4l-17 241l68 5zM456 90h76c29 0 53 -13 53 -44c0 -20 -9 -46 -53 -46h-83c-30 -156 -144 -276 -284 -276c-49 0 -109 10 -151 49l15 63c34 -18 68 -29 128 -29c113 0 195 86 222 193h-20c-180 0 -229 86 -229 179c0 90 70 169 157 169
c65 0 165 -53 169 -258zM374 90h15c-4 119 -53 182 -115 182c-48 0 -80 -42 -80 -83c0 -47 24 -99 180 -99z" />
    <glyph glyph-name="uni06C9.f" unicode="&#x6c9;" horiz-adv-x="532" arabic-form="final" 
d="M391 495l-44 -34c-41 46 -72 98 -88 126c-20 -33 -48 -76 -92 -129l-40 31c50 64 87 123 109 166h51c16 -36 51 -95 104 -160zM456 90h76c29 0 53 -13 53 -44c0 -20 -9 -46 -53 -46h-83c-30 -156 -144 -276 -284 -276c-49 0 -109 10 -151 49l15 63c34 -18 68 -29 128 -29
c113 0 195 86 222 193h-20c-180 0 -229 86 -229 179c0 90 70 169 157 169c65 0 165 -53 169 -258zM374 90h15c-4 119 -53 182 -115 182c-48 0 -80 -42 -80 -83c0 -47 24 -99 180 -99z" />
    <glyph glyph-name="uni06CB.f" unicode="&#x6cb;" horiz-adv-x="532" arabic-form="final" 
d="M260 597c-29 0 -49 19 -49 53c0 31 20 53 49 53c31 0 50 -22 50 -53c0 -33 -19 -53 -50 -53zM193 476c-30 0 -50 20 -50 54c0 29 22 52 50 52c29 0 50 -23 50 -52c0 -33 -21 -54 -50 -54zM275 530c0 29 21 52 50 52c30 0 49 -23 49 -52c0 -33 -19 -54 -49 -54
c-29 0 -50 20 -50 54zM456 90h76c29 0 53 -13 53 -44c0 -20 -9 -46 -53 -46h-83c-30 -156 -144 -276 -284 -276c-49 0 -109 10 -151 49l15 63c34 -18 68 -29 128 -29c113 0 195 86 222 193h-20c-180 0 -229 86 -229 179c0 90 70 169 157 169c65 0 165 -53 169 -258zM374 90
h15c-4 119 -53 182 -115 182c-48 0 -80 -42 -80 -83c0 -47 24 -99 180 -99z" />
    <glyph glyph-name="uni06C5.f" unicode="&#x6c5;" horiz-adv-x="536" arabic-form="final" 
d="M461 90h75c29 0 53 -13 53 -44c0 -20 -9 -46 -53 -46h-81c-27 -169 -145 -297 -289 -297c-49 0 -109 10 -150 49l14 63c35 -18 69 -29 129 -29c78 0 142 41 184 104h-224v50h251c7 19 14 39 18 60h-24c-181 0 -231 86 -231 179c-1 98 71 169 160 169
c64 0 163 -52 168 -258zM379 90h17c-4 120 -57 182 -120 182c-47 0 -80 -36 -80 -80c0 -52 27 -102 183 -102z" />
    <glyph glyph-name="uni0649.i" unicode="&#x649;" horiz-adv-x="286" 
d="M0 0c-40 0 -50 26 -50 47c0 18 11 44 50 44h20c72 0 117 7 141 23c1 6 1 13 1 19c-3 86 -40 168 -77 232l73 29c31 -57 71 -173 71 -268c0 -26 -3 -55 -11 -77c-28 -24 -69 -49 -203 -49h-15z" />
    <glyph glyph-name="uni0649.m" unicode="&#x649;" horiz-adv-x="314" 
d="M-3 0c-40 0 -51 24 -51 46c0 20 14 44 52 44c110 0 132 66 142 153l59 5c-1 -8 -2 -22 -2 -34c0 -63 20 -123 117 -124c29 0 53 -13 53 -44c0 -20 -9 -46 -53 -46c-87 0 -134 33 -154 100c-26 -71 -82 -100 -163 -100z" />
    <glyph glyph-name="uni0649.f" unicode="&#x649;" horiz-adv-x="660" arabic-form="final" 
d="M50 -3c0 64 19 129 41 173l56 -8c-17 -49 -26 -96 -26 -148c0 -140 104 -195 224 -195c113 0 204 40 249 87c19 19 24 35 24 41c0 30 -49 53 -118 53h-6l26 90h140c29 0 53 -13 53 -44c0 -20 -9 -46 -53 -46h-4c19 -18 23 -39 23 -56c0 -19 -6 -49 -28 -77
c-58 -79 -182 -136 -319 -136c-197 0 -282 112 -282 266z" />
    <glyph glyph-name="uni0626.i" unicode="&#x626;" horiz-adv-x="286" arabic-form="initial" 
d="M0 0c-40 0 -50 26 -50 47c0 18 11 44 50 44h20c72 0 117 7 141 23c1 6 1 13 1 19c-3 86 -40 168 -77 232l73 29c31 -57 71 -173 71 -268c0 -26 -3 -55 -11 -77c-28 -24 -69 -49 -203 -49h-15zM99 519c-37 0 -96 -1 -134 -17l6 47c9 5 31 12 46 12c-14 10 -36 29 -36 62
c0 55 48 85 102 85c44 0 73 -14 86 -26l-16 -46c-17 13 -45 22 -72 22c-33 0 -51 -19 -51 -36c0 -32 37 -52 88 -52h66l-20 -51h-65z" />
    <glyph glyph-name="uni0626.m" unicode="&#x626;" horiz-adv-x="314" arabic-form="medial" 
d="M-3 0c-40 0 -51 24 -51 46c0 20 14 44 52 44c110 0 132 66 142 153l59 5c-1 -8 -2 -22 -2 -34c0 -63 20 -123 117 -124c29 0 53 -13 53 -44c0 -20 -9 -46 -53 -46c-87 0 -134 33 -154 100c-26 -71 -82 -100 -163 -100zM180 413c-36 0 -95 -1 -134 -17l7 47
c8 5 30 12 45 12c-14 10 -36 29 -36 62c0 55 49 85 103 85c44 0 72 -14 85 -26l-15 -46c-17 13 -46 22 -72 22c-34 0 -51 -19 -51 -36c0 -32 37 -52 88 -52h66l-21 -51h-65z" />
    <glyph glyph-name="uni0626.f" unicode="&#x626;" horiz-adv-x="660" arabic-form="final" 
d="M50 -3c0 64 19 129 41 173l56 -8c-17 -49 -26 -96 -26 -148c0 -140 104 -195 224 -195c113 0 204 40 249 87c19 19 24 35 24 41c0 30 -49 53 -118 53h-6l26 90h140c29 0 53 -13 53 -44c0 -20 -9 -46 -53 -46h-4c19 -18 23 -39 23 -56c0 -19 -6 -49 -28 -77
c-58 -79 -182 -136 -319 -136c-197 0 -282 112 -282 266zM360 406c-37 0 -96 -1 -134 -17l6 47c9 5 31 12 46 12c-14 10 -36 29 -36 62c0 55 48 85 102 85c44 0 73 -14 86 -26l-16 -46c-17 13 -45 22 -72 22c-33 0 -51 -19 -51 -36c0 -32 37 -52 88 -52h66l-20 -51h-65z" />
    <glyph glyph-name="uni064A.i" unicode="&#x64a;" horiz-adv-x="286" arabic-form="initial" 
d="M0 0c-40 0 -50 26 -50 47c0 18 11 44 50 44h20c72 0 117 7 141 23c1 6 1 13 1 19c-3 86 -40 168 -77 232l73 29c31 -57 71 -173 71 -268c0 -26 -3 -55 -11 -77c-28 -24 -69 -49 -203 -49h-15zM194 -144c30 0 51 -21 51 -53s-21 -53 -51 -53s-49 20 -49 53
c0 32 19 53 49 53zM60 -144c29 0 51 -21 51 -53s-22 -53 -51 -53s-51 20 -51 53c0 32 22 53 51 53z" />
    <glyph glyph-name="uni064A.m" unicode="&#x64a;" horiz-adv-x="314" arabic-form="medial" 
d="M-3 0c-40 0 -51 24 -51 46c0 20 14 44 52 44c110 0 132 66 142 153l59 5c-1 -8 -2 -22 -2 -34c0 -63 20 -123 117 -124c29 0 53 -13 53 -44c0 -20 -9 -46 -53 -46c-87 0 -134 33 -154 100c-26 -71 -82 -100 -163 -100zM227 -144c30 0 51 -21 51 -53s-21 -53 -51 -53
s-49 20 -49 53c0 32 19 53 49 53zM93 -144c30 0 51 -21 51 -53s-21 -53 -51 -53c-29 0 -51 20 -51 53c0 32 22 53 51 53z" />
    <glyph glyph-name="uni064A.f" unicode="&#x64a;" horiz-adv-x="660" arabic-form="final" 
d="M50 -3c0 64 19 129 41 173l56 -8c-17 -49 -26 -96 -26 -148c0 -140 104 -195 224 -195c113 0 204 40 249 87c19 19 24 35 24 41c0 30 -49 53 -118 53h-6l26 90h140c29 0 53 -13 53 -44c0 -20 -9 -46 -53 -46h-4c19 -18 23 -39 23 -56c0 -19 -6 -49 -28 -77
c-58 -79 -182 -136 -319 -136c-197 0 -282 112 -282 266zM430 -364c31 0 51 -21 51 -53s-20 -53 -51 -53c-29 0 -49 20 -49 53c0 32 20 53 49 53zM296 -364c30 0 51 -21 51 -53s-21 -53 -51 -53c-29 0 -51 20 -51 53c0 32 22 53 51 53z" />
    <glyph glyph-name="uni06D0.i" unicode="&#x6d0;" horiz-adv-x="286" arabic-form="initial" 
d="M0 0c-40 0 -50 26 -50 47c0 18 11 44 50 44h20c72 0 117 7 141 23c1 6 1 13 1 19c-3 86 -40 168 -77 232l73 29c31 -57 71 -173 71 -268c0 -26 -3 -55 -11 -77c-28 -24 -69 -49 -203 -49h-15zM127 -269c29 0 50 -22 50 -54c0 -31 -21 -52 -50 -52s-51 20 -51 52
s21 54 51 54zM126 -133c30 0 51 -22 51 -54s-22 -53 -52 -53c-28 0 -49 21 -49 53s21 54 50 54z" />
    <glyph glyph-name="uni06D0.m" unicode="&#x6d0;" horiz-adv-x="314" arabic-form="medial" 
d="M-3 0c-40 0 -51 24 -51 46c0 20 14 44 52 44c110 0 132 66 142 153l59 5c-1 -8 -2 -22 -2 -34c0 -63 20 -123 117 -124c29 0 53 -13 53 -44c0 -20 -9 -46 -53 -46c-87 0 -134 33 -154 100c-26 -71 -82 -100 -163 -100zM160 -269c29 0 50 -22 50 -54
c0 -31 -21 -52 -50 -52s-51 20 -51 52s21 54 51 54zM159 -133c30 0 51 -22 51 -54s-22 -53 -52 -53c-28 0 -49 21 -49 53s21 54 50 54z" />
    <glyph glyph-name="uni06D0.f" unicode="&#x6d0;" horiz-adv-x="660" arabic-form="final" 
d="M50 -3c0 64 19 129 41 173l56 -8c-17 -49 -26 -96 -26 -148c0 -140 104 -195 224 -195c113 0 204 40 249 87c19 19 24 35 24 41c0 30 -49 53 -118 53h-6l26 90h140c29 0 53 -13 53 -44c0 -20 -9 -46 -53 -46h-4c19 -18 23 -39 23 -56c0 -19 -6 -49 -28 -77
c-58 -79 -182 -136 -319 -136c-197 0 -282 112 -282 266zM363 -489c30 0 51 -22 51 -54c0 -31 -21 -52 -51 -52c-29 0 -51 20 -51 52s22 54 51 54zM363 -353c30 0 51 -22 51 -54s-23 -53 -53 -53c-27 0 -49 21 -49 53s22 54 51 54z" />
    <glyph glyph-name="uni0675.f" unicode="&#x675;" horiz-adv-x="392" 
d="M77 212l-19 508l74 6l19 -499c5 -94 32 -136 135 -136h106c30 0 54 -14 54 -45c0 -20 -10 -46 -53 -46h-93c-146 0 -213 43 -223 212zM290 749c-36 0 -95 -1 -133 -17l6 47c8 5 31 12 45 12c-14 10 -35 29 -35 62c0 55 48 85 102 85c44 0 72 -14 85 -26l-15 -46
c-17 13 -46 22 -72 22c-34 0 -51 -19 -51 -36c0 -32 37 -52 88 -52h66l-21 -51h-65z" />
    <glyph glyph-name="uni0676.f" unicode="&#x676;" horiz-adv-x="619" 
d="M528 461h-65c-36 0 -95 -1 -133 -17l6 47c8 5 31 12 45 12c-14 10 -35 29 -35 62c0 55 48 85 102 85c44 0 72 -14 85 -26l-15 -46c-17 13 -46 22 -72 22c-34 0 -51 -19 -51 -36c0 -32 37 -52 88 -52h66zM456 91h163c29 0 54 -14 54 -45c0 -19 -10 -46 -54 -46h-170
c-29 -156 -144 -276 -284 -276c-49 0 -109 10 -151 49l15 63c34 -18 68 -29 128 -29c112 0 195 84 222 193h-20c-180 0 -231 86 -231 179c0 98 71 169 161 169c65 0 163 -53 167 -257zM374 91h15c-3 119 -55 182 -117 182c-48 0 -78 -37 -78 -81c0 -52 24 -101 180 -101z
" />
    <glyph glyph-name="uni0677.f" unicode="&#x677;" horiz-adv-x="619" 
d="M67 415v39c17 -5 38 -6 53 -6c34 0 81 15 99 43c-63 -4 -113 26 -113 86c0 51 39 91 91 91c37 0 88 -31 89 -108c0 -104 -83 -159 -156 -159c-28 0 -52 6 -63 14zM528 461h-65c-36 0 -95 -1 -133 -17l6 47c8 5 31 12 45 12c-14 10 -35 29 -35 62c0 55 48 85 102 85
c44 0 72 -14 85 -26l-15 -46c-17 13 -46 22 -72 22c-34 0 -51 -19 -51 -36c0 -32 37 -52 88 -52h66zM147 583c0 -26 25 -55 93 -50c7 48 -11 88 -53 88c-22 0 -40 -16 -40 -38zM456 91h163c29 0 54 -14 54 -45c0 -19 -10 -46 -54 -46h-170c-29 -156 -144 -276 -284 -276
c-49 0 -109 10 -151 49l15 63c34 -18 68 -29 128 -29c112 0 195 84 222 193h-20c-180 0 -231 86 -231 179c0 98 71 169 161 169c65 0 163 -53 167 -257zM374 91h15c-3 119 -55 182 -117 182c-48 0 -78 -37 -78 -81c0 -52 24 -101 180 -101z" />
    <glyph glyph-name="uni0678.i" unicode="&#x678;" horiz-adv-x="417" 
d="M0 0c-40 0 -50 26 -50 47c0 18 11 44 50 44h20c72 0 117 7 141 23c1 6 1 13 1 19c-3 86 -40 168 -77 232l73 29c31 -57 71 -173 71 -268c0 -26 -3 -55 -11 -77c-28 -24 -69 -49 -203 -49h-15zM356 519c-37 0 -96 -1 -134 -17l6 47c9 5 31 12 46 12c-14 10 -36 29 -36 62
c0 55 48 85 102 85c44 0 73 -14 86 -26l-16 -46c-17 13 -45 22 -72 22c-33 0 -51 -19 -51 -36c0 -32 37 -52 88 -52h66l-20 -51h-65z" />
    <glyph glyph-name="uni0678.m" unicode="&#x678;" horiz-adv-x="467" 
d="M-3 0c-40 0 -51 24 -51 46c0 20 14 44 52 44c110 0 132 79 142 166l60 5c-2 -13 -3 -35 -3 -48c1 -62 19 -121 125 -122h145c29 0 53 -14 53 -45c0 -20 -10 -46 -53 -46h-146c-100 0 -143 36 -161 101c-29 -65 -86 -101 -163 -101zM345 413c-36 0 -95 -1 -134 -17l7 47
c8 5 30 12 45 12c-14 10 -36 29 -36 62c0 55 49 85 103 85c44 0 72 -14 85 -26l-15 -46c-17 13 -46 22 -72 22c-34 0 -51 -19 -51 -36c0 -32 37 -52 88 -52h66l-21 -51h-65z" />
    <glyph glyph-name="uni0678.f" unicode="&#x678;" horiz-adv-x="948" 
d="M50 -3c0 64 19 129 41 173l56 -8c-17 -49 -25 -96 -25 -148c0 -140 103 -195 223 -195c113 0 205 39 249 87c18 19 20 35 20 41c0 31 -45 53 -114 53h-6l26 90h428c29 0 53 -13 53 -44c0 -20 -10 -46 -53 -46h-293c20 -18 24 -39 24 -56c0 -19 -6 -49 -28 -77
c-58 -79 -182 -136 -319 -136c-197 0 -282 112 -282 266zM750 413c-36 0 -95 -1 -134 -17l7 47c8 5 30 12 45 12c-14 10 -36 29 -36 62c0 55 49 85 103 85c43 0 72 -14 85 -26l-15 -46c-17 13 -46 22 -72 22c-34 0 -52 -19 -52 -36c0 -32 37 -52 89 -52h66l-21 -51h-65z" />
    <glyph glyph-name="uni06D2.f" unicode="&#x6d2;" horiz-adv-x="273" arabic-form="final" 
d="M273 0h-16c-115 0 -170 -40 -170 -92c0 -44 37 -70 163 -70c114 0 407 11 521 24l-24 -81c-118 -16 -321 -27 -495 -27c-162 0 -229 49 -229 143c0 40 14 77 31 101c38 53 120 93 212 93h7c29 0 53 -14 53 -45c0 -20 -9 -46 -53 -46z" />
    <glyph glyph-name="uni06D3.f" unicode="&#x6d3;" horiz-adv-x="273" arabic-form="final" 
d="M276 234h-65c-37 0 -96 -1 -134 -17l6 47c9 5 31 12 46 12c-14 10 -36 29 -36 62c0 55 48 85 102 85c44 0 73 -14 86 -26l-16 -46c-17 13 -45 22 -72 22c-33 0 -51 -19 -51 -36c0 -32 37 -52 88 -52h66zM273 0h-16c-115 0 -170 -40 -170 -92c0 -44 37 -70 163 -70
c114 0 407 11 521 24l-24 -81c-118 -16 -321 -27 -495 -27c-162 0 -229 49 -229 143c0 40 14 77 31 101c38 53 120 93 212 93h7c29 0 53 -14 53 -45c0 -20 -9 -46 -53 -46z" />
    <glyph glyph-name="uni0643.iz" unicode="&#x6aa;" horiz-adv-x="977" 
d="M0 0c-41 0 -51 27 -51 47c0 15 11 43 51 43h93c309 0 489 21 764 36c5 94 -68 131 -177 131c-48 0 -137 -4 -213 -10c-74 -4 -158 -10 -235 -10c-80 0 -173 10 -173 107c0 60 55 124 117 174c87 70 175 113 254 150l-18 -96c-60 -22 -168 -78 -234 -138
c-33 -31 -49 -54 -49 -75c0 -24 27 -43 107 -43c103 0 211 8 285 12c65 4 117 6 162 6c166 -1 239 -67 240 -210c0 -30 -7 -61 -12 -81c-182 -6 -543 -43 -805 -43h-106z" />
    <glyph glyph-name="uni0643.mz" unicode="&#x6aa;" horiz-adv-x="985" 
d="M430 668l-18 -96c-60 -22 -168 -78 -234 -138c-33 -31 -49 -54 -49 -75c0 -24 27 -43 107 -43c103 0 211 8 285 12c65 4 117 6 162 6c166 -1 239 -67 240 -210c0 -5 0 -11 -1 -16c16 -13 34 -18 63 -18s53 -13 53 -44c0 -20 -10 -46 -53 -46c-53 0 -90 16 -114 41
c-191 -9 -521 -41 -765 -41h-106c-41 0 -51 27 -51 47c0 15 11 43 51 43h93c309 0 489 21 764 36c5 94 -68 131 -177 131c-48 0 -137 -4 -213 -10c-74 -4 -158 -10 -235 -10c-80 0 -173 10 -173 107c0 60 55 124 117 174c87 70 175 113 254 150z" />
    <glyph glyph-name="uni0643.fz" unicode="&#x6aa;" horiz-adv-x="1089" 
d="M535 668l-18 -94c-60 -23 -168 -79 -234 -139c-32 -31 -49 -55 -49 -76c0 -24 27 -43 107 -43c112 0 211 9 285 13c65 4 118 6 162 6c166 -1 239 -68 240 -211c0 -5 0 -11 -1 -16c16 -13 34 -18 62 -18c30 0 54 -13 54 -44c0 -20 -10 -46 -54 -46c-51 0 -87 15 -112 40
c-127 -11 -468 -42 -692 -42c-80 0 -191 5 -219 13l-36 102c57 -16 137 -24 242 -24c250 0 481 23 690 37c5 95 -70 131 -179 131c-47 0 -135 -4 -211 -10c-74 -4 -153 -10 -235 -10c-80 0 -173 10 -173 107c0 60 55 124 117 174c87 70 175 113 254 150z" />
    <glyph glyph-name="uni066E.f" unicode="&#x66e;" horiz-adv-x="916" 
d="M49 245c0 47 9 91 21 124l55 -10c-7 -30 -11 -55 -11 -85c0 -144 108 -204 283 -204c172 0 290 46 338 77c-2 16 -3 22 -3 42c0 19 4 43 11 67l59 6c-3 -17 -5 -31 -5 -54c0 -90 56 -114 119 -117v-1c29 0 54 -13 54 -44c0 -20 -10 -46 -54 -46c-86 0 -131 34 -156 75
c-86 -57 -212 -97 -371 -97c-210 0 -338 82 -340 267z" />
    <glyph glyph-name="uni06A1.i" unicode="&#x6a1;" horiz-adv-x="436" 
d="M58 0h-58c-34 0 -51 23 -51 47c0 22 17 44 51 44h67c102 0 209 16 236 29c2 10 5 21 5 34c-187 -8 -255 79 -255 161c0 34 9 81 52 126c36 38 83 54 117 54c76 0 159 -90 159 -256c0 -49 -8 -130 -26 -174c-32 -23 -105 -65 -297 -65zM117 325c0 -60 72 -98 196 -95
c6 67 -27 186 -103 186c-54 0 -93 -43 -93 -91z" />
    <glyph glyph-name="uni06A1.m" unicode="&#x6a1;" horiz-adv-x="458" 
d="M431 91h27c30 0 54 -14 54 -45c0 -20 -10 -46 -54 -46h-34c-67 0 -136 14 -195 39c-57 -25 -123 -39 -190 -39h-39c-33 0 -51 16 -51 46c0 16 11 45 51 45h33c32 0 68 1 103 6c-41 37 -66 84 -66 139c0 107 96 192 172 192c66 0 144 -75 144 -186
c0 -56 -25 -104 -65 -143c35 -5 73 -8 110 -8zM134 240c0 -57 41 -95 101 -119c51 21 87 57 87 115c0 60 -45 112 -89 112c-59 0 -99 -57 -99 -108z" />
    <glyph glyph-name="uni06A1.f" unicode="&#x6a1;" horiz-adv-x="917" 
d="M894 91h23c29 0 53 -14 53 -45c0 -20 -9 -46 -53 -46h-23c-69 0 -139 13 -199 37c-74 -35 -178 -57 -320 -57c-249 0 -325 128 -325 257c0 56 11 108 28 151l53 -11c-10 -35 -15 -74 -15 -112c0 -140 110 -197 286 -197c72 0 144 5 206 18c-48 39 -79 90 -79 152
c0 107 98 190 171 190c65 0 144 -76 144 -184c0 -52 -18 -103 -60 -146c36 -5 73 -7 110 -7zM593 243c0 -64 44 -103 106 -125c51 26 82 64 82 119c0 57 -42 111 -90 111c-57 0 -98 -55 -98 -105z" />
    <glyph glyph-name="uni066F.f" unicode="&#x66f;" horiz-adv-x="714" 
d="M639 91h75c30 0 54 -14 54 -45c0 -20 -10 -46 -54 -46h-81c-5 -39 -13 -66 -16 -72c-36 -78 -136 -171 -301 -171c-153 0 -266 93 -266 278c0 64 18 130 33 166l56 -7c-8 -30 -20 -91 -20 -138c0 -148 90 -212 209 -212c122 0 198 61 227 115c2 5 6 21 10 41h-22
c-180 0 -232 87 -232 177c-1 87 70 171 160 171c65 0 164 -53 168 -257zM559 91h15c-3 113 -55 181 -118 181c-47 0 -82 -42 -82 -83c0 -49 28 -98 185 -98z" />
    <glyph glyph-name=".notdef" horiz-adv-x="500" 
d="M0 0v700h500v-700h-500zM250 395l170 255h-340zM280 350l170 -255v510zM80 50h340l-170 255zM50 95l170 255l-170 255v-510z" />
    <glyph glyph-name="space" unicode=" " horiz-adv-x="266" 
 />
    <glyph glyph-name="uni0621" unicode="&#x621;" horiz-adv-x="466" 
d="M73 37l8 73c18 10 47 19 67 21c-31 19 -58 51 -58 95c0 81 73 130 159 130c46 0 85 -11 110 -31l-11 -67c-29 21 -65 27 -100 27c-49 0 -90 -21 -90 -61c0 -49 60 -78 151 -78h83l-22 -74h-84c-99 0 -152 -8 -213 -35z" />
    <glyph glyph-name="uni0627" unicode="&#x627;" horiz-adv-x="251" 
d="M93 0l-28 720l75 6l28 -726h-75z" />
    <glyph glyph-name="uni0622" unicode="&#x622;" horiz-adv-x="251" 
d="M93 0l-28 720l75 6l28 -726h-75zM143 814c-45 0 -80 24 -114 24c-12 0 -31 -4 -37 -47l-47 17c1 50 27 90 81 90c48 0 84 -26 126 -26c22 0 43 9 70 34l9 -48c-17 -30 -51 -44 -88 -44z" />
    <glyph glyph-name="uni0623" unicode="&#x623;" horiz-adv-x="251" 
d="M93 0l-28 720l75 6l28 -726h-75zM120 809c-37 0 -95 -1 -134 -17l6 47c9 5 31 12 46 12c-14 10 -36 29 -36 62c0 55 48 85 102 85c44 0 73 -14 86 -26l-16 -46c-17 13 -45 22 -72 22c-33 0 -51 -19 -51 -36c0 -32 37 -52 88 -52h66l-20 -51h-65z" />
    <glyph glyph-name="uni0625" unicode="&#x625;" horiz-adv-x="251" 
d="M93 0l-28 720l75 6l28 -726h-75zM150 -71c44 0 73 -14 86 -26l-15 -46c-18 13 -46 22 -72 22c-34 0 -52 -19 -52 -36c0 -32 37 -52 89 -52h65l-20 -51h-65c-37 0 -95 -1 -134 -17l6 47c9 5 31 12 46 12c-14 10 -36 29 -36 62c0 55 49 85 102 85z" />
    <glyph glyph-name="uni0671" unicode="&#x671;" horiz-adv-x="251" 
d="M93 0l-28 720l75 6l28 -726h-75zM104 802c-54 0 -91 35 -120 35c-8 0 -28 -5 -43 -23v56c14 21 30 26 45 26c11 0 17 -3 21 -4c38 60 75 93 117 93c50 0 82 -40 82 -89c0 -56 -47 -94 -102 -94zM111 858c27 0 47 13 49 33c0 21 -13 39 -38 40c-27 0 -51 -19 -76 -57
c15 -9 38 -16 65 -16z" />
    <glyph glyph-name="uni0628" unicode="&#x628;" horiz-adv-x="884" 
d="M49 245c0 45 8 90 22 124l54 -11c-7 -28 -11 -54 -11 -84c0 -137 97 -206 291 -206c165 0 282 23 352 51c1 8 1 13 1 20c-2 69 -26 149 -71 231l72 20c33 -60 68 -156 68 -259c0 -31 -5 -55 -10 -74c-124 -54 -260 -78 -417 -78c-257 0 -351 106 -351 266zM457 -144
c31 0 52 -22 52 -54c0 -34 -21 -55 -52 -55c-30 0 -52 21 -52 55c0 32 22 54 52 54z" />
    <glyph glyph-name="uni0628.j" horiz-adv-x="1676" 
d="M62 38l-45 94l2 3c78 -36 401 -92 749 -92c386 0 690 43 778 75c1 5 2 18 2 24c-2 70 -24 150 -69 232l73 19c33 -59 68 -153 68 -256c0 -32 -5 -60 -9 -76c-105 -50 -406 -107 -843 -107c-357 0 -642 56 -706 84zM1064 -164c31 0 52 -22 52 -54c0 -34 -21 -55 -53 -55
c-29 0 -51 21 -51 55c0 32 22 54 52 54z" />
    <glyph glyph-name="uni0628.fj" horiz-adv-x="1674" 
d="M62 38l-45 94l3 3c78 -37 382 -92 746 -92c406 0 673 70 728 104c-3 16 -3 23 -3 42s3 45 11 67l58 6c-3 -17 -5 -31 -5 -54c0 -79 56 -118 119 -118c29 0 53 -13 53 -44c0 -20 -9 -46 -53 -46c-80 0 -130 37 -156 79c-126 -73 -430 -125 -756 -125
c-371 0 -636 56 -700 84zM1064 -164c31 0 52 -22 52 -54c0 -34 -21 -55 -53 -55c-29 0 -51 21 -51 55c0 32 22 54 52 54z" />
    <glyph glyph-name="uni062A" unicode="&#x62a;" horiz-adv-x="884" 
d="M49 245c0 45 8 90 22 124l54 -11c-7 -28 -11 -54 -11 -84c0 -137 97 -206 291 -206c165 0 282 23 352 51c1 8 1 13 1 20c-2 69 -26 149 -71 231l72 20c33 -60 68 -156 68 -259c0 -31 -5 -55 -10 -74c-124 -54 -260 -78 -417 -78c-257 0 -351 106 -351 266zM497 422
c-29 0 -49 20 -49 53c0 32 20 53 49 53c31 0 51 -21 51 -53c0 -33 -20 -53 -51 -53zM363 422c-29 0 -51 20 -51 53c0 32 22 53 51 53c30 0 51 -21 51 -53c0 -33 -21 -53 -51 -53z" />
    <glyph glyph-name="uni062A.j" horiz-adv-x="1676" 
d="M62 38l-45 94l2 3c78 -36 401 -92 749 -92c386 0 690 43 778 75c1 5 2 18 2 24c-2 70 -24 150 -69 232l73 19c33 -59 68 -153 68 -256c0 -32 -5 -60 -9 -76c-105 -50 -406 -107 -843 -107c-357 0 -642 56 -706 84zM965 422c-29 0 -49 20 -49 53c0 32 20 53 49 53
c31 0 51 -21 51 -53c0 -33 -20 -53 -51 -53zM831 422c-29 0 -51 20 -51 53c0 32 22 53 51 53c30 0 51 -21 51 -53c0 -33 -21 -53 -51 -53z" />
    <glyph glyph-name="uni062A.fj" horiz-adv-x="1674" 
d="M62 38l-45 94l3 3c78 -37 382 -92 746 -92c406 0 673 70 728 104c-3 16 -3 23 -3 42s3 45 11 67l58 6c-3 -17 -5 -31 -5 -54c0 -79 56 -118 119 -118c29 0 53 -13 53 -44c0 -20 -9 -46 -53 -46c-80 0 -130 37 -156 79c-126 -73 -430 -125 -756 -125
c-371 0 -636 56 -700 84zM965 422c-29 0 -49 20 -49 53c0 32 20 53 49 53c31 0 51 -21 51 -53c0 -33 -20 -53 -51 -53zM831 422c-29 0 -51 20 -51 53c0 32 22 53 51 53c30 0 51 -21 51 -53c0 -33 -21 -53 -51 -53z" />
    <glyph glyph-name="uni062B" unicode="&#x62b;" horiz-adv-x="884" 
d="M49 245c0 45 8 90 22 124l54 -11c-7 -28 -11 -54 -11 -84c0 -137 97 -206 291 -206c165 0 282 23 352 51c1 8 1 13 1 20c-2 69 -26 149 -71 231l72 20c33 -60 68 -156 68 -259c0 -31 -5 -55 -10 -74c-124 -54 -260 -78 -417 -78c-257 0 -351 106 -351 266zM497 422
c-30 0 -50 20 -50 54c0 29 20 52 50 52s49 -23 49 -52c0 -33 -19 -54 -49 -54zM364 422c-29 0 -50 20 -50 54c0 29 22 52 50 52c30 0 51 -23 51 -52c0 -33 -21 -54 -51 -54zM431 543c-29 0 -48 19 -48 53c0 31 19 53 48 53c31 0 51 -22 51 -53c0 -33 -20 -53 -51 -53z" />
    <glyph glyph-name="uni062B.j" horiz-adv-x="1676" 
d="M62 38l-45 94l2 3c78 -36 401 -92 749 -92c386 0 690 43 778 75c1 5 2 18 2 24c-2 70 -24 150 -69 232l73 19c33 -59 68 -153 68 -256c0 -32 -5 -60 -9 -76c-105 -50 -406 -107 -843 -107c-357 0 -642 56 -706 84zM964 422c-29 0 -49 20 -49 54c0 29 20 52 49 52
c31 0 50 -23 50 -52c0 -33 -19 -54 -50 -54zM832 422c-29 0 -50 20 -50 54c0 29 22 52 50 52c30 0 51 -23 51 -52c0 -33 -21 -54 -51 -54zM899 543c-29 0 -48 19 -48 53c0 31 19 53 48 53c31 0 51 -22 51 -53c0 -33 -20 -53 -51 -53z" />
    <glyph glyph-name="uni062B.fj" horiz-adv-x="1674" 
d="M62 38l-45 94l3 3c78 -37 382 -92 746 -92c406 0 673 70 728 104c-3 16 -3 23 -3 42s3 45 11 67l58 6c-3 -17 -5 -31 -5 -54c0 -79 56 -118 119 -118c29 0 53 -13 53 -44c0 -20 -9 -46 -53 -46c-80 0 -130 37 -156 79c-126 -73 -430 -125 -756 -125
c-371 0 -636 56 -700 84zM964 422c-29 0 -49 20 -49 54c0 29 20 52 49 52c31 0 50 -23 50 -52c0 -33 -19 -54 -50 -54zM832 422c-29 0 -50 20 -50 54c0 29 22 52 50 52c30 0 51 -23 51 -52c0 -33 -21 -54 -51 -54zM899 543c-29 0 -48 19 -48 53c0 31 19 53 48 53
c31 0 51 -22 51 -53c0 -33 -20 -53 -51 -53z" />
    <glyph glyph-name="uni0679" unicode="&#x679;" horiz-adv-x="884" 
d="M49 245c0 45 8 90 22 124l54 -11c-7 -28 -11 -54 -11 -84c0 -137 97 -206 291 -206c165 0 282 23 352 51c1 8 1 13 1 20c-2 69 -26 149 -71 231l72 20c33 -60 68 -156 68 -259c0 -31 -5 -55 -10 -74c-124 -54 -260 -78 -417 -78c-257 0 -351 106 -351 266zM394 413h-69
l-28 54l58 -4c10 20 12 46 10 79l-12 164l45 4l7 -115c1 -18 2 -40 -1 -57c30 45 64 63 100 63c43 0 68 -33 68 -72c0 -87 -89 -116 -178 -116zM397 464c105 0 131 29 131 57c0 16 -12 30 -34 30c-31 0 -61 -23 -97 -87z" />
    <glyph glyph-name="uni0679.j" horiz-adv-x="1676" 
d="M62 38l-45 94l2 3c78 -36 401 -92 749 -92c386 0 690 43 778 75c1 5 2 18 2 24c-2 70 -24 150 -69 232l73 19c33 -59 68 -153 68 -256c0 -32 -5 -60 -9 -76c-105 -50 -406 -107 -843 -107c-357 0 -642 56 -706 84zM862 413h-69l-28 54l58 -4c10 20 12 46 10 79l-12 164
l45 4l7 -115c1 -18 2 -40 -1 -57c30 45 64 63 100 63c43 0 68 -33 68 -72c0 -87 -89 -116 -178 -116zM864 464c106 0 132 29 132 57c0 16 -12 30 -34 30c-31 0 -61 -23 -98 -87z" />
    <glyph glyph-name="uni0679.fj" horiz-adv-x="1674" 
d="M62 38l-45 94l3 3c78 -37 382 -92 746 -92c406 0 673 70 728 104c-3 16 -3 23 -3 42s3 45 11 67l58 6c-3 -17 -5 -31 -5 -54c0 -79 56 -118 119 -118c29 0 53 -13 53 -44c0 -20 -9 -46 -53 -46c-80 0 -130 37 -156 79c-126 -73 -430 -125 -756 -125
c-371 0 -636 56 -700 84zM862 413h-69l-28 54l58 -4c10 20 12 46 10 79l-12 164l45 4l7 -115c1 -18 2 -40 -1 -57c30 45 64 63 100 63c43 0 68 -33 68 -72c0 -87 -89 -116 -178 -116zM864 464c106 0 132 29 132 57c0 16 -12 30 -34 30c-31 0 -61 -23 -98 -87z" />
    <glyph glyph-name="uni067E" unicode="&#x67e;" horiz-adv-x="884" 
d="M49 245c0 45 8 90 22 124l54 -11c-7 -28 -11 -54 -11 -84c0 -137 97 -206 291 -206c165 0 282 23 352 51c1 8 1 13 1 20c-2 69 -26 149 -71 231l72 20c33 -60 68 -156 68 -259c0 -31 -5 -55 -10 -74c-124 -54 -260 -78 -417 -78c-257 0 -351 106 -351 266zM457 -265
c27 0 49 -20 49 -53c0 -31 -22 -53 -50 -53c-30 0 -51 22 -51 53c0 33 22 53 52 53zM390 -144c29 0 51 -21 51 -54c0 -29 -21 -52 -51 -52c-28 0 -49 23 -49 52c0 33 21 54 49 54zM524 -144c29 0 48 -21 48 -54c0 -29 -19 -52 -49 -52c-29 0 -50 23 -50 52c0 33 21 54 51 54
z" />
    <glyph glyph-name="uni067E.j" horiz-adv-x="1676" 
d="M62 38l-45 94l2 3c78 -36 401 -92 749 -92c386 0 690 43 778 75c1 5 2 18 2 24c-2 70 -24 150 -69 232l73 19c33 -59 68 -153 68 -256c0 -32 -5 -60 -9 -76c-105 -50 -406 -107 -843 -107c-357 0 -642 56 -706 84zM1064 -285c27 0 49 -20 49 -53c0 -31 -22 -53 -50 -53
c-30 0 -51 22 -51 53c0 33 22 53 52 53zM997 -164c29 0 51 -21 51 -54c0 -29 -21 -52 -51 -52c-28 0 -49 23 -49 52c0 33 21 54 49 54zM1131 -164c29 0 48 -21 48 -54c0 -29 -19 -52 -49 -52c-29 0 -50 23 -50 52c0 33 21 54 51 54z" />
    <glyph glyph-name="uni067E.fj" horiz-adv-x="1674" 
d="M62 38l-45 94l3 3c78 -37 382 -92 746 -92c406 0 673 70 728 104c-3 16 -3 23 -3 42s3 45 11 67l58 6c-3 -17 -5 -31 -5 -54c0 -79 56 -118 119 -118c29 0 53 -13 53 -44c0 -20 -9 -46 -53 -46c-80 0 -130 37 -156 79c-126 -73 -430 -125 -756 -125
c-371 0 -636 56 -700 84zM1064 -285c27 0 49 -20 49 -53c0 -31 -22 -53 -50 -53c-30 0 -51 22 -51 53c0 33 22 53 52 53zM997 -164c29 0 51 -21 51 -54c0 -29 -21 -52 -51 -52c-28 0 -49 23 -49 52c0 33 21 54 49 54zM1131 -164c29 0 48 -21 48 -54c0 -29 -19 -52 -49 -52
c-29 0 -50 23 -50 52c0 33 21 54 51 54z" />
    <glyph glyph-name="uni062D" unicode="&#x62d;" horiz-adv-x="649" 
d="M51 -76c0 198 210 296 361 321c-40 13 -131 58 -221 58c-39 0 -89 -4 -135 -26l17 86c27 12 58 22 125 22c94 0 188 -44 267 -74c44 -18 71 -27 98 -27l51 -1l-21 -88c-22 3 -53 3 -73 3c-39 0 -80 -7 -119 -15c-141 -34 -266 -118 -266 -251c0 -157 158 -234 347 -234
c37 0 93 7 131 14l-33 -78c-29 -9 -80 -17 -131 -17c-223 0 -398 107 -398 307z" />
    <glyph glyph-name="uni062C" unicode="&#x62c;" horiz-adv-x="649" 
d="M51 -76c0 198 210 296 361 321c-40 13 -131 58 -221 58c-39 0 -89 -4 -135 -26l17 86c27 12 58 22 125 22c94 0 188 -44 267 -74c44 -18 71 -27 98 -27l51 -1l-21 -88c-22 3 -53 3 -73 3c-39 0 -80 -7 -119 -15c-141 -34 -266 -118 -266 -251c0 -157 158 -234 347 -234
c37 0 93 7 131 14l-33 -78c-29 -9 -80 -17 -131 -17c-223 0 -398 107 -398 307zM456 -49c0 -33 -21 -55 -53 -55c-30 0 -51 22 -51 55c0 32 21 54 52 54s52 -22 52 -54z" />
    <glyph glyph-name="uni062E" unicode="&#x62e;" horiz-adv-x="649" 
d="M51 -76c0 198 210 296 361 321c-40 13 -131 58 -221 58c-39 0 -89 -4 -135 -26l17 86c27 12 58 22 125 22c94 0 188 -44 267 -74c44 -18 71 -27 98 -27l51 -1l-21 -88c-22 3 -53 3 -73 3c-39 0 -80 -7 -119 -15c-141 -34 -266 -118 -266 -251c0 -157 158 -234 347 -234
c37 0 93 7 131 14l-33 -78c-29 -9 -80 -17 -131 -17c-223 0 -398 107 -398 307zM354 508c-30 0 -51 21 -51 55c0 31 21 54 52 54s52 -23 52 -54c0 -34 -21 -55 -53 -55z" />
    <glyph glyph-name="uni0686" unicode="&#x686;" horiz-adv-x="649" 
d="M51 -76c0 198 210 296 361 321c-40 13 -131 58 -221 58c-39 0 -89 -4 -135 -26l17 86c27 12 58 22 125 22c94 0 188 -44 267 -74c44 -18 71 -27 98 -27l51 -1l-21 -88c-22 3 -53 3 -73 3c-39 0 -80 -7 -119 -15c-141 -34 -266 -118 -266 -251c0 -157 158 -234 347 -234
c37 0 93 7 131 14l-33 -78c-29 -9 -80 -17 -131 -17c-223 0 -398 107 -398 307zM405 -79c25 0 44 -19 44 -48s-19 -48 -46 -48s-46 19 -46 48s20 48 48 48zM389 -14c0 -26 -20 -47 -47 -47c-26 0 -45 21 -45 47c0 30 19 49 45 49c25 0 47 -19 47 -49zM420 -14
c0 30 19 49 47 49c27 0 44 -19 44 -49c0 -27 -17 -47 -46 -47c-26 0 -45 20 -45 47z" />
    <glyph glyph-name="uni062F" unicode="&#x62f;" horiz-adv-x="479" 
d="M56 21l-14 90c32 -12 89 -20 156 -20c76 0 132 17 159 37c1 71 -52 196 -223 295l63 54c128 -72 229 -206 229 -345c0 -15 -1 -45 -6 -58c-40 -41 -116 -74 -232 -74c-50 0 -98 6 -132 21z" />
    <glyph glyph-name="uni0630" unicode="&#x630;" horiz-adv-x="479" 
d="M56 21l-14 90c32 -12 89 -20 156 -20c76 0 132 17 159 37c1 71 -52 196 -223 295l63 54c128 -72 229 -206 229 -345c0 -15 -1 -45 -6 -58c-40 -41 -116 -74 -232 -74c-50 0 -98 6 -132 21zM194 606c-30 0 -51 21 -51 55c0 31 21 54 52 54s52 -23 52 -54
c0 -34 -21 -55 -53 -55z" />
    <glyph glyph-name="uni0688" unicode="&#x688;" horiz-adv-x="479" 
d="M56 21l-14 90c32 -12 89 -20 156 -20c76 0 132 17 159 37c1 71 -52 196 -223 295l63 54c128 -72 229 -206 229 -345c0 -15 -1 -45 -6 -58c-40 -41 -116 -74 -232 -74c-50 0 -98 6 -132 21zM158 597h-69l-28 54l58 -4c10 20 12 46 10 79l-12 164l45 4l7 -115
c1 -18 2 -40 -1 -57c30 45 64 63 100 63c43 0 68 -33 68 -72c0 -87 -89 -116 -178 -116zM161 648c105 0 131 29 131 57c0 16 -12 30 -34 30c-31 0 -61 -23 -97 -87z" />
    <glyph glyph-name="uni0631" unicode="&#x631;" horiz-adv-x="459" 
d="M34 -109c43 -24 77 -28 115 -28c43 0 115 22 163 112c15 29 24 67 24 81c0 37 -10 126 -94 295l74 32c42 -82 87 -218 87 -314c0 -32 -9 -80 -22 -112c-45 -115 -138 -178 -225 -178c-63 0 -113 25 -135 50z" />
    <glyph glyph-name="uni0632" unicode="&#x632;" horiz-adv-x="459" 
d="M34 -109c43 -24 77 -28 115 -28c43 0 115 22 163 112c15 29 24 67 24 81c0 37 -10 126 -94 295l74 32c42 -82 87 -218 87 -314c0 -32 -9 -80 -22 -112c-45 -115 -138 -178 -225 -178c-63 0 -113 25 -135 50zM244 499c-30 0 -51 21 -51 55c0 31 21 54 52 54s52 -23 52 -54
c0 -34 -21 -55 -53 -55z" />
    <glyph glyph-name="uni0691" unicode="&#x691;" horiz-adv-x="459" 
d="M34 -109c43 -24 77 -28 115 -28c43 0 115 22 163 112c15 29 24 67 24 81c0 37 -10 126 -94 295l74 32c42 -82 87 -218 87 -314c0 -32 -9 -80 -22 -112c-45 -115 -138 -178 -225 -178c-63 0 -113 25 -135 50zM208 490h-69l-28 54l58 -4c10 20 12 46 10 79l-12 164l45 4
l7 -115c1 -18 2 -40 -1 -57c30 45 64 63 100 63c43 0 68 -33 68 -72c0 -87 -89 -116 -178 -116zM210 541c106 0 132 29 132 57c0 16 -12 30 -34 30c-31 0 -61 -23 -98 -87z" />
    <glyph glyph-name="uni0698" unicode="&#x698;" horiz-adv-x="459" 
d="M34 -109c43 -24 77 -28 115 -28c43 0 115 22 163 112c15 29 24 67 24 81c0 37 -10 126 -94 295l74 32c42 -82 87 -218 87 -314c0 -32 -9 -80 -22 -112c-45 -115 -138 -178 -225 -178c-63 0 -113 25 -135 50zM311 499c-30 0 -50 20 -50 54c0 29 20 52 50 52s49 -23 49 -52
c0 -33 -19 -54 -49 -54zM178 499c-29 0 -50 20 -50 54c0 29 22 52 50 52c30 0 51 -23 51 -52c0 -33 -21 -54 -51 -54zM245 620c-29 0 -48 19 -48 53c0 31 19 53 48 53c31 0 51 -22 51 -53c0 -33 -20 -53 -51 -53z" />
    <glyph glyph-name="uni0633" unicode="&#x633;" horiz-adv-x="1023" 
d="M51 26c0 60 14 115 33 155l54 -10c-13 -45 -18 -78 -18 -121c0 -112 79 -177 175 -177c95 0 165 51 189 126c4 9 8 25 8 36c-5 67 -32 140 -65 213l72 27c19 -42 35 -90 49 -151c8 -28 30 -37 55 -37c50 0 86 30 103 131l63 3c-3 -14 -8 -34 -8 -55c-2 -63 30 -78 68 -78
c44 0 77 32 77 77c0 35 -17 89 -34 123l73 21c13 -25 24 -75 24 -130c0 -114 -66 -179 -149 -179c-66 0 -93 37 -106 72c-24 -44 -61 -72 -117 -72c-17 0 -31 3 -45 12c-1 -8 -1 -23 -8 -45c-36 -118 -141 -183 -263 -183c-141 0 -230 104 -230 242z" />
    <glyph glyph-name="uni0633.j" horiz-adv-x="2019" 
d="M21 1c126 -73 388 -171 761 -171c419 0 660 112 699 178c6 10 9 19 9 25c-5 68 -35 142 -68 215l72 27c19 -42 35 -90 50 -151c7 -28 26 -37 51 -37c53 0 89 30 106 131l63 3c-3 -14 -8 -34 -8 -55c-1 -63 30 -78 68 -78c44 0 77 32 77 77c0 35 -17 89 -34 123l73 21
c13 -25 25 -75 25 -130c0 -114 -66 -179 -150 -179c-66 0 -93 37 -106 72c-24 -44 -64 -72 -119 -72c-17 0 -31 4 -44 13c-1 -16 -3 -28 -9 -41c-67 -131 -414 -231 -765 -231c-344 0 -616 95 -710 159l-43 98z" />
    <glyph glyph-name="uni0633.fj" horiz-adv-x="2079" 
d="M21 1c126 -73 388 -171 761 -171c419 0 660 112 699 178c6 10 9 19 9 25c-5 68 -35 142 -68 215l72 27c19 -42 35 -90 50 -150c8 -29 27 -39 53 -39c52 0 86 25 105 131l62 3c-3 -18 -7 -38 -7 -58c0 -56 17 -75 53 -75c70 0 88 107 97 170l60 5c-3 -21 -6 -44 -6 -55
c-1 -73 28 -116 117 -117c29 0 54 -13 54 -44c0 -20 -10 -46 -54 -46c-82 -1 -130 29 -153 90c-26 -58 -75 -90 -122 -90c-65 0 -83 40 -93 71c-24 -45 -61 -71 -120 -71c-17 0 -30 2 -43 11c-1 -15 -5 -29 -10 -39c-68 -131 -414 -231 -765 -231c-344 0 -616 95 -710 159
l-43 98z" />
    <glyph glyph-name="uni0634" unicode="&#x634;" horiz-adv-x="1023" 
d="M51 26c0 60 14 115 33 155l54 -10c-13 -45 -18 -78 -18 -121c0 -112 79 -177 175 -177c95 0 165 51 189 126c4 9 8 25 8 36c-5 67 -32 140 -65 213l72 27c19 -42 35 -90 49 -151c8 -28 30 -37 55 -37c50 0 86 30 103 131l63 3c-3 -14 -8 -34 -8 -55c-2 -63 30 -78 68 -78
c44 0 77 32 77 77c0 35 -17 89 -34 123l73 21c13 -25 24 -75 24 -130c0 -114 -66 -179 -149 -179c-66 0 -93 37 -106 72c-24 -44 -61 -72 -117 -72c-17 0 -31 3 -45 12c-1 -8 -1 -23 -8 -45c-36 -118 -141 -183 -263 -183c-141 0 -230 104 -230 242zM779 388
c-30 0 -50 20 -50 54c0 29 20 52 50 52s49 -23 49 -52c0 -33 -19 -54 -49 -54zM646 388c-29 0 -50 20 -50 54c0 29 22 52 50 52c30 0 51 -23 51 -52c0 -33 -21 -54 -51 -54zM713 509c-29 0 -48 19 -48 53c0 31 19 53 48 53c31 0 51 -22 51 -53c0 -33 -20 -53 -51 -53z" />
    <glyph glyph-name="uni0634.j" horiz-adv-x="2019" 
d="M21 1c126 -73 388 -171 761 -171c419 0 660 112 699 178c6 10 9 19 9 25c-5 68 -35 142 -68 215l72 27c19 -42 35 -90 50 -151c7 -28 26 -37 51 -37c53 0 89 30 106 131l63 3c-3 -14 -8 -34 -8 -55c-1 -63 30 -78 68 -78c44 0 77 32 77 77c0 35 -17 89 -34 123l73 21
c13 -25 25 -75 25 -130c0 -114 -66 -179 -150 -179c-66 0 -93 37 -106 72c-24 -44 -64 -72 -119 -72c-17 0 -31 4 -44 13c-1 -16 -3 -28 -9 -41c-67 -131 -414 -231 -765 -231c-344 0 -616 95 -710 159l-43 98zM1773 388c-29 0 -50 20 -50 54c0 29 21 52 50 52
c30 0 49 -23 49 -52c0 -33 -19 -54 -49 -54zM1641 388c-30 0 -50 20 -50 54c0 29 22 52 50 52c29 0 50 -23 50 -52c0 -33 -21 -54 -50 -54zM1708 509c-29 0 -49 19 -49 53c0 31 20 53 49 53c31 0 50 -22 50 -53c0 -33 -19 -53 -50 -53z" />
    <glyph glyph-name="uni0634.fj" horiz-adv-x="2079" 
d="M21 1c126 -73 388 -171 761 -171c419 0 660 112 699 178c6 10 9 19 9 25c-5 68 -35 142 -68 215l72 27c19 -42 35 -90 50 -150c8 -29 27 -39 53 -39c52 0 86 25 105 131l62 3c-3 -18 -7 -38 -7 -58c0 -56 17 -75 53 -75c70 0 88 107 97 170l60 5c-3 -21 -6 -44 -6 -55
c-1 -73 28 -116 117 -117c29 0 54 -13 54 -44c0 -20 -10 -46 -54 -46c-82 -1 -130 29 -153 90c-26 -58 -75 -90 -122 -90c-65 0 -83 40 -93 71c-24 -45 -61 -71 -120 -71c-17 0 -30 2 -43 11c-1 -15 -5 -29 -10 -39c-68 -131 -414 -231 -765 -231c-344 0 -616 95 -710 159
l-43 98zM1773 388c-29 0 -50 20 -50 54c0 29 21 52 50 52c30 0 49 -23 49 -52c0 -33 -19 -54 -49 -54zM1641 388c-30 0 -50 20 -50 54c0 29 22 52 50 52c29 0 50 -23 50 -52c0 -33 -21 -54 -50 -54zM1708 509c-29 0 -49 19 -49 53c0 31 20 53 49 53c31 0 50 -22 50 -53
c0 -33 -19 -53 -50 -53z" />
    <glyph glyph-name="uni0635" unicode="&#x635;" horiz-adv-x="1204" 
d="M51 9c0 49 13 108 37 154l54 -10c-17 -47 -23 -87 -23 -119c0 -113 80 -168 172 -168c84 0 162 36 190 119c4 8 7 25 7 31c0 61 -23 139 -57 216l70 32c2 -5 4 -13 9 -26c26 -79 43 -106 84 -128c79 127 211 277 365 277c121 0 199 -98 199 -189
c0 -79 -63 -134 -144 -166c-57 -23 -150 -39 -247 -39c-116 0 -178 20 -217 52c0 -35 -2 -70 -8 -90c-34 -111 -133 -177 -262 -177c-145 0 -229 95 -229 231zM654 94c30 -8 60 -12 116 -12c74 0 158 8 203 21c63 19 120 50 120 93c0 50 -52 111 -145 111
c-74 0 -189 -57 -294 -213z" />
    <glyph glyph-name="uni0635.j" horiz-adv-x="2240" 
d="M21 1c96 -51 380 -171 788 -171c431 0 676 112 710 175c3 6 5 12 5 15c0 61 -21 135 -55 212l69 32l7 -21c26 -79 44 -112 85 -134c80 127 212 278 367 278c119 0 197 -98 197 -189c0 -79 -62 -134 -143 -166c-57 -23 -148 -39 -251 -39c-107 0 -175 20 -214 51
c1 -35 -2 -54 -7 -71c-75 -143 -455 -232 -784 -232c-369 0 -653 108 -733 159l-44 98zM1691 93c31 -8 53 -11 115 -11c74 0 159 7 204 21c63 18 121 49 121 92c0 51 -54 112 -145 112c-73 0 -190 -54 -295 -214z" />
    <glyph glyph-name="uni0635.fj" horiz-adv-x="2261" 
d="M1538 264l7 -21c26 -79 44 -112 85 -134c80 127 212 278 367 278c119 0 197 -98 197 -189c0 -36 -13 -67 -34 -93c28 -10 68 -15 101 -15c29 0 53 -13 53 -44c0 -20 -9 -46 -53 -46h-16c-70 0 -131 20 -167 44l-27 -12c-57 -23 -148 -39 -251 -39c-107 0 -175 20 -214 51
c1 -35 -2 -54 -7 -71c-75 -143 -455 -232 -784 -232c-369 0 -653 108 -733 159l-44 98l3 3c96 -51 380 -171 788 -171c431 0 676 112 710 175c3 6 5 12 5 15c0 61 -21 135 -55 212zM2010 103c63 18 121 49 121 92c0 51 -54 112 -145 112c-73 0 -190 -54 -295 -214
c31 -8 53 -11 115 -11c74 0 159 7 204 21z" />
    <glyph glyph-name="uni0636" unicode="&#x636;" horiz-adv-x="1204" 
d="M51 9c0 49 13 108 37 154l54 -10c-17 -47 -23 -87 -23 -119c0 -113 80 -168 172 -168c84 0 162 36 190 119c4 8 7 25 7 31c0 61 -23 139 -57 216l70 32c2 -5 4 -13 9 -26c26 -79 43 -106 84 -128c79 127 211 277 365 277c121 0 199 -98 199 -189
c0 -79 -63 -134 -144 -166c-57 -23 -150 -39 -247 -39c-116 0 -178 20 -217 52c0 -35 -2 -70 -8 -90c-34 -111 -133 -177 -262 -177c-145 0 -229 95 -229 231zM654 94c30 -8 60 -12 116 -12c74 0 158 8 203 21c63 19 120 50 120 93c0 50 -52 111 -145 111
c-74 0 -189 -57 -294 -213zM815 513c-30 0 -51 21 -51 55c0 31 21 54 52 54s52 -23 52 -54c0 -34 -21 -55 -53 -55z" />
    <glyph glyph-name="uni0636.j" horiz-adv-x="2240" 
d="M21 1c96 -51 380 -171 788 -171c431 0 676 112 710 175c3 6 5 12 5 15c0 61 -21 135 -55 212l69 32l7 -21c26 -79 44 -112 85 -134c80 127 212 278 367 278c119 0 197 -98 197 -189c0 -79 -62 -134 -143 -166c-57 -23 -148 -39 -251 -39c-107 0 -175 20 -214 51
c1 -35 -2 -54 -7 -71c-75 -143 -455 -232 -784 -232c-369 0 -653 108 -733 159l-44 98zM1691 93c31 -8 53 -11 115 -11c74 0 159 7 204 21c63 18 121 49 121 92c0 51 -54 112 -145 112c-73 0 -190 -54 -295 -214zM1851 513c-30 0 -51 21 -51 55c0 31 21 54 52 54
s52 -23 52 -54c0 -34 -21 -55 -53 -55z" />
    <glyph glyph-name="uni0636.fj" horiz-adv-x="2261" 
d="M1851 513c-30 0 -51 21 -51 55c0 31 21 54 52 54s52 -23 52 -54c0 -34 -21 -55 -53 -55zM1538 264l7 -21c26 -79 44 -112 85 -134c80 127 212 278 367 278c119 0 197 -98 197 -189c0 -36 -13 -67 -34 -93c28 -10 68 -15 101 -15c29 0 53 -13 53 -44c0 -20 -9 -46 -53 -46
h-16c-70 0 -131 20 -167 44l-27 -12c-57 -23 -148 -39 -251 -39c-107 0 -175 20 -214 51c1 -35 -2 -54 -7 -71c-75 -143 -455 -232 -784 -232c-369 0 -653 108 -733 159l-44 98l3 3c96 -51 380 -171 788 -171c431 0 676 112 710 175c3 6 5 12 5 15c0 61 -21 135 -55 212z
M2010 103c63 18 121 49 121 92c0 51 -54 112 -145 112c-73 0 -190 -54 -295 -214c31 -8 53 -11 115 -11c74 0 159 7 204 21z" />
    <glyph glyph-name="uni0637" unicode="&#x637;" horiz-adv-x="766" 
d="M46 13l-31 93c40 -12 103 -15 124 -15c10 17 20 34 27 49c12 29 10 56 8 98l-19 482l74 6l14 -361c4 -82 3 -120 0 -147c75 95 176 169 279 169c119 0 198 -94 198 -188c0 -53 -20 -115 -110 -154c-55 -24 -149 -45 -380 -45c-36 0 -108 -1 -184 13zM219 91h31
c138 0 270 9 317 24c53 17 88 37 88 83c0 45 -47 109 -143 109c-84 0 -199 -68 -293 -216z" />
    <glyph glyph-name="uni0638" unicode="&#x638;" horiz-adv-x="766" 
d="M46 13l-31 93c40 -12 103 -15 124 -15c10 17 20 34 27 49c12 29 10 56 8 98l-19 482l74 6l14 -361c4 -82 3 -120 0 -147c75 95 176 169 279 169c119 0 198 -94 198 -188c0 -53 -20 -115 -110 -154c-55 -24 -149 -45 -380 -45c-36 0 -108 -1 -184 13zM219 91h31
c138 0 270 9 317 24c53 17 88 37 88 83c0 45 -47 109 -143 109c-84 0 -199 -68 -293 -216zM461 513c-30 0 -52 21 -52 55c0 31 22 54 52 54c31 0 52 -23 52 -54c0 -34 -21 -55 -52 -55z" />
    <glyph glyph-name="uni0639" unicode="&#x639;" horiz-adv-x="550" 
d="M36 -103c0 96 57 178 148 233c-70 42 -108 104 -108 168c0 104 90 188 209 188c62 0 107 -18 133 -36l6 -74c-32 19 -81 31 -137 31c-99 0 -145 -63 -145 -108c0 -54 63 -106 122 -121c26 7 149 46 228 71l-14 -94c-43 -10 -129 -33 -197 -58
c-113 -43 -172 -113 -172 -193c0 -84 78 -205 307 -205c48 0 110 5 157 16l-31 -77c-39 -14 -88 -20 -145 -20c-222 0 -361 110 -361 279z" />
    <glyph glyph-name="uni063A" unicode="&#x63a;" horiz-adv-x="550" 
d="M36 -103c0 96 57 178 148 233c-70 42 -108 104 -108 168c0 104 90 188 209 188c62 0 107 -18 133 -36l6 -74c-32 19 -81 31 -137 31c-99 0 -145 -63 -145 -108c0 -54 63 -106 122 -121c26 7 149 46 228 71l-14 -94c-43 -10 -129 -33 -197 -58
c-113 -43 -172 -113 -172 -193c0 -84 78 -205 307 -205c48 0 110 5 157 16l-31 -77c-39 -14 -88 -20 -145 -20c-222 0 -361 110 -361 279zM233 606c-30 0 -51 21 -51 55c0 31 21 54 52 54c30 0 51 -23 51 -54c0 -34 -21 -55 -52 -55z" />
    <glyph glyph-name="uni0641" unicode="&#x641;" horiz-adv-x="901" 
d="M657 620c-30 0 -52 21 -52 55c0 31 22 54 52 54c31 0 52 -23 52 -54c0 -34 -21 -55 -52 -55zM77 388l54 -11c-9 -36 -16 -64 -16 -105c0 -145 117 -204 288 -204c172 0 315 33 369 57c2 9 4 20 6 34c-199 -12 -259 77 -259 156c0 32 10 81 52 126c36 38 82 54 115 54
c77 0 161 -84 161 -274c0 -49 -8 -107 -25 -151c-69 -46 -249 -91 -426 -91c-288 0 -346 147 -346 262c0 57 10 102 27 147zM581 325c0 -61 78 -95 202 -89c-4 96 -37 180 -109 180c-51 0 -93 -43 -93 -91z" />
    <glyph glyph-name="uni0641.j" horiz-adv-x="1699" 
d="M1454 620c-30 0 -52 21 -52 55c0 31 22 54 52 54c31 0 52 -23 52 -54c0 -34 -21 -55 -52 -55zM17 140l3 3c103 -43 468 -92 799 -93c291 0 646 24 751 75c2 9 4 20 6 34c-202 -13 -259 76 -259 156c0 32 10 81 52 126c36 38 82 54 115 54c77 0 161 -84 161 -274
c0 -49 -8 -113 -23 -151c-115 -76 -483 -110 -813 -111c-309 0 -674 48 -747 87zM1381 325c0 -61 75 -95 199 -89c-4 96 -38 179 -109 179c-51 0 -90 -42 -90 -90z" />
    <glyph glyph-name="uni0641.fj" horiz-adv-x="1716" 
d="M1479 551c-30 0 -52 21 -52 55c0 31 22 54 52 54c31 0 52 -23 52 -54c0 -34 -21 -55 -52 -55zM1693 91h23c29 0 53 -14 53 -45c0 -20 -9 -46 -53 -46h-24c-75 0 -151 15 -214 44c-121 -51 -326 -85 -665 -85c-326 0 -678 48 -751 87l-45 94l3 3c103 -43 466 -92 797 -93
c267 0 458 13 582 43c-44 38 -71 86 -71 145c0 107 92 190 164 190c70 0 151 -76 151 -184c0 -48 -15 -99 -69 -144c38 -6 79 -9 119 -9zM1393 243c0 -59 39 -97 96 -120c60 29 89 67 89 116c0 54 -44 109 -94 109c-54 0 -91 -52 -91 -105z" />
    <glyph glyph-name="uni06A4" unicode="&#x6a4;" horiz-adv-x="901" 
d="M658 741c-29 0 -49 19 -49 53c0 31 20 53 49 53c31 0 50 -22 50 -53c0 -33 -19 -53 -50 -53zM591 620c-30 0 -50 20 -50 54c0 29 22 52 50 52c29 0 50 -23 50 -52c0 -33 -21 -54 -50 -54zM673 674c0 29 21 52 50 52c30 0 49 -23 49 -52c0 -33 -19 -54 -49 -54
c-29 0 -50 20 -50 54zM77 388l54 -11c-9 -36 -16 -64 -16 -105c0 -145 117 -204 288 -204c172 0 315 33 369 57c2 9 4 20 6 34c-199 -12 -259 77 -259 156c0 32 10 81 52 126c36 38 82 54 115 54c77 0 161 -84 161 -274c0 -49 -8 -107 -25 -151c-69 -46 -249 -91 -426 -91
c-288 0 -346 147 -346 262c0 57 10 102 27 147zM581 325c0 -61 78 -95 202 -89c-4 96 -37 180 -109 180c-51 0 -93 -43 -93 -91z" />
    <glyph glyph-name="uni06A4.j" horiz-adv-x="1699" 
d="M1455 741c-29 0 -49 19 -49 53c0 31 20 53 49 53c31 0 50 -22 50 -53c0 -33 -19 -53 -50 -53zM1388 620c-30 0 -50 20 -50 54c0 29 22 52 50 52c29 0 50 -23 50 -52c0 -33 -21 -54 -50 -54zM1470 674c0 29 21 52 50 52c30 0 49 -23 49 -52c0 -33 -19 -54 -49 -54
c-29 0 -50 20 -50 54zM17 140l3 3c103 -43 468 -92 799 -93c291 0 646 24 751 75c2 9 4 20 6 34c-202 -13 -259 76 -259 156c0 32 10 81 52 126c36 38 82 54 115 54c77 0 161 -84 161 -274c0 -49 -8 -113 -23 -151c-115 -76 -483 -110 -813 -111c-309 0 -674 48 -747 87z
M1381 325c0 -61 75 -95 199 -89c-4 96 -38 179 -109 179c-51 0 -90 -42 -90 -90z" />
    <glyph glyph-name="uni06A4.fj" horiz-adv-x="1716" 
d="M1480 672c-29 0 -49 19 -49 53c0 31 20 53 49 53c31 0 50 -22 50 -53c0 -33 -19 -53 -50 -53zM1413 551c-30 0 -50 20 -50 54c0 29 22 52 50 52c29 0 50 -23 50 -52c0 -33 -21 -54 -50 -54zM1495 605c0 29 21 52 50 52c30 0 49 -23 49 -52c0 -33 -19 -54 -49 -54
c-29 0 -50 20 -50 54zM1693 91h23c29 0 53 -14 53 -45c0 -20 -9 -46 -53 -46h-24c-75 0 -151 15 -214 44c-121 -51 -326 -85 -665 -85c-326 0 -678 48 -751 87l-45 94l3 3c103 -43 466 -92 797 -93c267 0 458 13 582 43c-44 38 -71 86 -71 145c0 107 92 190 164 190
c70 0 151 -76 151 -184c0 -48 -15 -99 -69 -144c38 -6 79 -9 119 -9zM1393 243c0 -59 39 -97 96 -120c60 29 89 67 89 116c0 54 -44 109 -94 109c-54 0 -91 -52 -91 -105z" />
    <glyph glyph-name="uni0642" unicode="&#x642;" horiz-adv-x="726" 
d="M414 535c-29 0 -51 20 -51 53c0 32 22 53 51 53s51 -21 51 -53c0 -33 -22 -53 -51 -53zM548 535c-30 0 -49 20 -49 53c0 32 19 53 49 53s51 -21 51 -53c0 -33 -21 -53 -51 -53zM90 289l55 -7c-18 -50 -26 -103 -26 -153c0 -153 103 -225 221 -225c107 0 201 44 244 114
c2 3 11 21 17 55c-19 -3 -50 -5 -69 -5c-114 2 -184 58 -184 163c0 100 85 178 156 178c97 0 168 -108 168 -263c0 -60 -18 -141 -29 -160c-46 -87 -152 -168 -316 -168c-161 0 -277 103 -277 286c0 74 18 140 40 185zM413 243c0 -45 33 -91 132 -91c20 0 43 1 62 4
c-4 116 -58 175 -117 175c-42 0 -77 -34 -77 -88z" />
    <glyph glyph-name="uni0642.j" horiz-adv-x="1778" 
d="M1467 535c-29 0 -51 20 -51 53c0 32 22 53 51 53c30 0 51 -21 51 -53c0 -33 -21 -53 -51 -53zM1601 535c-30 0 -49 20 -49 53c0 32 19 53 49 53s51 -21 51 -53c0 -33 -21 -53 -51 -53zM14 16l3 4c103 -47 460 -159 859 -159c460 0 720 89 762 161c4 8 11 26 15 52
c-19 -4 -42 -6 -70 -6c-102 0 -185 53 -185 167c0 91 71 174 160 174c114 0 166 -131 166 -247c0 -77 -15 -154 -27 -175c-67 -113 -353 -217 -825 -217c-378 0 -735 102 -813 148zM1462 246c0 -72 61 -92 132 -92c21 0 49 2 65 5c-3 128 -64 173 -113 173
c-61 0 -84 -51 -84 -86z" />
    <glyph glyph-name="uni0642.fj" horiz-adv-x="1733" 
d="M1395 474c-29 0 -51 20 -51 53c0 32 22 53 51 53c30 0 51 -21 51 -53c0 -33 -21 -53 -51 -53zM1529 474c-30 0 -49 20 -49 53c0 32 19 53 49 53s51 -21 51 -53c0 -33 -21 -53 -51 -53zM1658 90h75c29 0 54 -13 54 -44c0 -20 -10 -46 -54 -46h-82c-6 -29 -12 -52 -16 -62
c-53 -124 -378 -228 -830 -228c-341 0 -668 87 -746 132l-45 98l3 5c92 -43 439 -143 806 -143c406 0 700 80 746 163c3 4 7 18 12 35h-20c-180 0 -231 82 -231 174c0 93 69 174 160 174c65 0 164 -54 168 -258zM1577 90h15c-3 120 -55 183 -117 183c-50 0 -81 -45 -81 -84
c0 -52 26 -99 183 -99z" />
    <glyph glyph-name="uni0643" unicode="&#x643;" horiz-adv-x="794" 
d="M50 214c0 24 4 57 13 84l54 -10c-2 -18 -4 -36 -4 -55c0 -105 103 -146 236 -146c99 0 192 9 279 27c2 13 3 37 0 92l-20 514l75 6l21 -547c2 -52 0 -114 -3 -128c-96 -32 -225 -51 -360 -51c-236 0 -291 117 -291 214zM297 279l-17 44c97 2 153 35 153 51
c0 9 -16 13 -59 16c-53 3 -68 21 -68 50c0 58 57 126 146 138v-63c-70 -11 -98 -37 -98 -58c0 -8 13 -12 49 -15c66 -6 77 -26 77 -54c0 -70 -85 -112 -149 -112c-17 0 -28 1 -34 3z" />
    <glyph glyph-name="uni0643.j" horiz-adv-x="1505" 
d="M62 28l-45 90l2 3c88 -24 326 -42 641 -42c282 -1 559 6 680 40c2 10 3 40 0 96l-19 504l75 7l20 -538c2 -39 1 -102 -8 -128c-98 -48 -352 -72 -744 -72c-309 0 -534 16 -602 40zM679 279l-17 44c97 2 153 35 153 51c0 9 -16 13 -59 16c-53 3 -67 21 -67 50
c0 58 56 126 145 138v-63c-70 -11 -98 -37 -98 -58c0 -8 13 -12 49 -15c66 -6 77 -26 77 -54c0 -70 -85 -112 -149 -112c-17 0 -28 1 -34 3z" />
    <glyph glyph-name="uni0643.fj" horiz-adv-x="1521" 
d="M69 51l-44 93l2 2c117 -34 345 -67 605 -67c386 0 629 37 688 103c9 11 15 25 13 67l-20 470l75 7l18 -485c5 -122 47 -149 115 -150c29 0 53 -14 53 -45c0 -20 -9 -46 -53 -46c-94 0 -147 50 -163 126c-46 -86 -306 -138 -733 -138c-313 0 -485 39 -556 63zM677 279
l-17 44c97 2 153 35 153 51c0 9 -16 13 -59 16c-53 3 -67 21 -67 50c0 58 57 126 145 138v-63c-70 -11 -98 -37 -98 -58c0 -8 13 -12 50 -15c65 -6 77 -26 77 -54c0 -70 -86 -112 -150 -112c-17 0 -27 1 -34 3z" />
    <glyph glyph-name="uni0643.is" horiz-adv-x="314" 
d="M0 0c-41 0 -51 27 -51 47c0 15 11 44 51 44h17c125 0 176 35 176 82s-69 139 -275 277c2 21 5 64 13 82c3 5 15 15 40 29c83 50 229 123 355 165l-16 -88c-91 -32 -248 -102 -319 -146c130 -100 267 -195 267 -321c0 -66 -33 -107 -78 -134c-47 -29 -117 -37 -173 -37h-7
z" />
    <glyph glyph-name="uni0643.ms" horiz-adv-x="376" 
d="M0 0c-41 0 -51 25 -51 47c0 17 11 44 51 44h10c74 0 134 25 134 81c0 18 -7 38 -39 83c-50 70 -111 134 -169 192c2 14 8 72 11 79c2 5 16 17 48 35c86 46 258 119 393 161l-17 -88c-95 -30 -299 -110 -369 -150c110 -109 160 -178 216 -262c88 -128 112 -129 158 -131
c30 0 54 -14 54 -45c0 -20 -10 -46 -54 -46v-1c-72 1 -108 17 -184 126c-13 -77 -76 -125 -185 -125h-7z" />
    <glyph glyph-name="uni0643.il" horiz-adv-x="445" 
d="M119 0h-119c-41 0 -50 25 -50 47c0 18 11 44 50 44h135c160 0 189 37 189 82c0 47 -62 138 -268 276c1 22 4 65 13 83c3 5 15 15 40 29c83 50 228 123 355 165l-17 -88c-91 -32 -247 -102 -318 -146c130 -100 259 -197 259 -322c0 -58 -29 -106 -71 -132
c-48 -29 -104 -38 -198 -38z" />
    <glyph glyph-name="uni0643.ml" horiz-adv-x="496" 
d="M79 0h-79c-41 0 -50 25 -50 47c0 18 11 44 50 44h80c131 0 182 26 182 81c0 21 -8 37 -40 85c-49 70 -108 131 -167 188c2 15 8 74 11 81c2 5 16 17 48 35c86 46 258 119 393 161l-17 -88c-95 -30 -299 -110 -369 -150c110 -109 155 -174 250 -309c54 -80 86 -81 125 -84
c29 0 53 -14 53 -45c0 -20 -10 -46 -53 -46c-74 1 -115 16 -186 125c-16 -82 -80 -125 -231 -125z" />
    <glyph glyph-name="uni06AD" unicode="&#x6ad;" horiz-adv-x="794" 
d="M50 214c0 24 4 57 13 84l54 -10c-2 -18 -4 -36 -4 -55c0 -105 103 -146 236 -146c99 0 192 9 279 27c2 13 3 37 0 92l-20 514l75 6l21 -547c2 -52 0 -114 -3 -128c-96 -32 -225 -51 -360 -51c-236 0 -291 117 -291 214zM297 279l-17 44c97 2 153 35 153 51
c0 9 -16 13 -59 16c-53 3 -68 21 -68 50c0 58 57 126 146 138v-63c-70 -11 -98 -37 -98 -58c0 -8 13 -12 49 -15c66 -6 77 -26 77 -54c0 -70 -85 -112 -149 -112c-17 0 -28 1 -34 3zM416 682c-28 0 -47 18 -47 50c0 30 19 50 47 50c29 0 48 -20 48 -50
c0 -31 -19 -50 -48 -50zM290 682c-28 0 -48 18 -48 50c0 30 21 50 48 50c28 0 49 -20 49 -50c0 -31 -21 -50 -49 -50zM354 798c-28 0 -47 17 -47 49c0 30 19 50 47 50c29 0 49 -20 49 -50c0 -31 -20 -49 -49 -49z" />
    <glyph glyph-name="uni06AD.j" horiz-adv-x="1505" 
d="M62 28l-45 90l2 3c88 -24 326 -42 641 -42c282 -1 559 6 680 40c2 10 3 40 0 96l-19 504l75 7l20 -538c2 -39 1 -102 -8 -128c-98 -48 -352 -72 -744 -72c-309 0 -534 16 -602 40zM679 279l-17 44c97 2 153 35 153 51c0 9 -16 13 -59 16c-53 3 -67 21 -67 50
c0 58 56 126 145 138v-63c-70 -11 -98 -37 -98 -58c0 -8 13 -12 49 -15c66 -6 77 -26 77 -54c0 -70 -85 -112 -149 -112c-17 0 -28 1 -34 3zM829 682c-28 0 -47 18 -47 50c0 30 19 50 47 50c29 0 48 -20 48 -50c0 -31 -19 -50 -48 -50zM703 682c-28 0 -48 18 -48 50
c0 30 21 50 48 50c28 0 49 -20 49 -50c0 -31 -21 -50 -49 -50zM767 798c-28 0 -47 17 -47 49c0 30 19 50 47 50c29 0 49 -20 49 -50c0 -31 -20 -49 -49 -49z" />
    <glyph glyph-name="uni06AD.fj" horiz-adv-x="1521" 
d="M69 51l-44 93l2 2c117 -34 345 -67 605 -67c386 0 629 37 688 103c9 11 15 25 13 67l-20 470l75 7l18 -485c5 -122 47 -149 115 -150c29 0 53 -14 53 -45c0 -20 -9 -46 -53 -46c-94 0 -147 50 -163 126c-46 -86 -306 -138 -733 -138c-313 0 -485 39 -556 63zM677 279
l-17 44c97 2 153 35 153 51c0 9 -16 13 -59 16c-53 3 -67 21 -67 50c0 58 57 126 145 138v-63c-70 -11 -98 -37 -98 -58c0 -8 13 -12 50 -15c65 -6 77 -26 77 -54c0 -70 -86 -112 -150 -112c-17 0 -27 1 -34 3zM819 682c-28 0 -47 18 -47 50c0 30 19 50 47 50
c29 0 48 -20 48 -50c0 -31 -19 -50 -48 -50zM693 682c-28 0 -48 18 -48 50c0 30 21 50 48 50c28 0 49 -20 49 -50c0 -31 -21 -50 -49 -50zM757 798c-28 0 -47 17 -47 49c0 30 19 50 47 50c29 0 49 -20 49 -50c0 -31 -20 -49 -49 -49z" />
    <glyph glyph-name="uni06AD.is" horiz-adv-x="314" 
d="M0 0c-41 0 -51 27 -51 47c0 15 11 44 51 44h17c125 0 176 35 176 82s-69 139 -275 277c2 21 5 64 13 82c3 5 15 15 40 29c83 50 229 123 355 165l-16 -88c-91 -32 -248 -102 -319 -146c130 -100 267 -195 267 -321c0 -66 -33 -107 -78 -134c-47 -29 -117 -37 -173 -37h-7
zM91 727c-28 0 -47 18 -47 50c0 30 19 50 47 50c29 0 48 -20 48 -50c0 -31 -19 -50 -48 -50zM-35 727c-28 0 -48 18 -48 50c0 30 21 50 48 50c28 0 49 -20 49 -50c0 -31 -21 -50 -49 -50zM29 843c-28 0 -47 17 -47 49c0 30 19 50 47 50c29 0 49 -20 49 -50
c0 -31 -20 -49 -49 -49z" />
    <glyph glyph-name="uni06AD.ms" horiz-adv-x="376" 
d="M0 0c-41 0 -51 25 -51 47c0 17 11 44 51 44h10c74 0 134 25 134 81c0 18 -7 38 -39 83c-50 70 -111 134 -169 192c2 14 8 72 11 79c2 5 16 17 48 35c86 46 258 119 393 161l-17 -88c-95 -30 -299 -110 -369 -150c110 -109 160 -178 216 -262c88 -128 112 -129 158 -131
c30 0 54 -14 54 -45c0 -20 -10 -46 -54 -46v-1c-72 1 -108 17 -184 126c-13 -77 -76 -125 -185 -125h-7zM99 727c-28 0 -47 18 -47 50c0 30 19 50 47 50c29 0 48 -20 48 -50c0 -31 -19 -50 -48 -50zM-26 727c-28 0 -49 18 -49 50c0 30 21 50 49 50s48 -20 48 -50
c0 -31 -20 -50 -48 -50zM38 843c-29 0 -47 17 -47 49c0 30 18 50 47 50c28 0 48 -20 48 -50c0 -31 -20 -49 -48 -49z" />
    <glyph glyph-name="uni06AD.il" horiz-adv-x="445" 
d="M119 0h-119c-41 0 -50 25 -50 47c0 18 11 44 50 44h135c160 0 189 37 189 82c0 47 -62 138 -268 276c1 22 4 65 13 83c3 5 15 15 40 29c83 50 228 123 355 165l-17 -88c-91 -32 -247 -102 -318 -146c130 -100 259 -197 259 -322c0 -58 -29 -106 -71 -132
c-48 -29 -104 -38 -198 -38zM221 727c-28 0 -47 18 -47 50c0 30 19 50 47 50c29 0 48 -20 48 -50c0 -31 -19 -50 -48 -50zM95 727c-28 0 -48 18 -48 50c0 30 21 50 48 50c28 0 49 -20 49 -50c0 -31 -21 -50 -49 -50zM159 843c-28 0 -47 17 -47 49c0 30 19 50 47 50
c29 0 49 -20 49 -50c0 -31 -20 -49 -49 -49z" />
    <glyph glyph-name="uni06AD.ml" horiz-adv-x="496" 
d="M79 0h-79c-41 0 -50 25 -50 47c0 18 11 44 50 44h80c131 0 182 26 182 81c0 21 -8 37 -40 85c-49 70 -108 131 -167 188c2 15 8 74 11 81c2 5 16 17 48 35c86 46 258 119 393 161l-17 -88c-95 -30 -299 -110 -369 -150c110 -109 155 -174 250 -309c54 -80 86 -81 125 -84
c29 0 53 -14 53 -45c0 -20 -10 -46 -53 -46c-74 1 -115 16 -186 125c-16 -82 -80 -125 -231 -125zM221 727c-28 0 -47 18 -47 50c0 30 19 50 47 50c29 0 48 -20 48 -50c0 -31 -19 -50 -48 -50zM95 727c-28 0 -48 18 -48 50c0 30 21 50 48 50c28 0 49 -20 49 -50
c0 -31 -21 -50 -49 -50zM159 843c-28 0 -47 17 -47 49c0 30 19 50 47 50c29 0 49 -20 49 -50c0 -31 -20 -49 -49 -49z" />
    <glyph glyph-name="uni06A9" unicode="&#x6a9;" horiz-adv-x="913" 
d="M50 214c0 18 3 55 14 84l53 -10c-4 -19 -5 -42 -5 -55c0 -120 127 -167 286 -167c251 0 387 70 387 114c0 22 -10 49 -59 98c-66 65 -153 114 -244 166c1 28 3 63 11 80c2 7 17 17 47 35c85 49 256 122 383 165l-17 -87c-97 -31 -280 -107 -353 -151
c127 -70 295 -175 295 -304c0 -133 -236 -203 -460 -203c-267 0 -338 118 -338 235z" />
    <glyph glyph-name="uni06A9.j" horiz-adv-x="1693" 
d="M62 65l-45 91l2 2c88 -39 401 -113 770 -113c483 0 775 90 775 149c0 16 -11 41 -60 89c-65 61 -152 111 -243 159c2 28 6 70 12 83c3 6 15 16 46 34c83 49 251 121 384 164l-17 -87c-98 -32 -278 -103 -353 -148c128 -68 295 -179 295 -288c0 -155 -376 -246 -844 -246
c-332 0 -600 58 -722 111z" />
    <glyph glyph-name="uni06A9.fj" horiz-adv-x="1820" 
d="M62 64l-45 87l5 7c87 -39 398 -111 787 -113c430 0 754 83 754 132c0 10 -11 33 -76 108c-59 70 -115 117 -167 161c2 29 5 65 12 81c3 7 16 15 48 31c106 54 287 122 448 165l-16 -88c-113 -30 -344 -112 -421 -151c97 -88 165 -161 263 -286c78 -103 136 -108 166 -108
c29 0 53 -13 53 -44c0 -20 -9 -46 -53 -46h-8c-57 0 -121 23 -201 129c-35 -87 -359 -175 -816 -175c-359 0 -648 69 -733 110z" />
    <glyph glyph-name="uni06AF" unicode="&#x6af;" horiz-adv-x="913" 
d="M50 214c0 18 3 55 14 84l53 -10c-4 -19 -5 -42 -5 -55c0 -120 127 -167 286 -167c251 0 387 70 387 114c0 22 -10 49 -59 98c-66 65 -153 114 -244 166c1 28 3 63 11 80c2 7 17 17 47 35c85 49 256 122 383 165l-17 -87c-97 -31 -280 -107 -353 -151
c127 -70 295 -175 295 -304c0 -133 -236 -203 -460 -203c-267 0 -338 118 -338 235zM531 715c83 46 237 114 376 160l-14 -67c-139 -46 -282 -109 -374 -158z" />
    <glyph glyph-name="uni06AF.j" horiz-adv-x="1693" 
d="M62 65l-45 91l2 2c88 -39 401 -113 770 -113c483 0 775 90 775 149c0 16 -11 41 -60 89c-65 61 -152 111 -243 159c2 28 6 70 12 83c3 6 15 16 46 34c83 49 251 121 384 164l-17 -87c-98 -32 -278 -103 -353 -148c128 -68 295 -179 295 -288c0 -155 -376 -246 -844 -246
c-332 0 -600 58 -722 111zM1307 715c83 46 237 114 376 160l-14 -67c-139 -46 -282 -109 -373 -158z" />
    <glyph glyph-name="uni06AF.fj" horiz-adv-x="1820" 
d="M62 64l-45 87l5 7c87 -39 398 -111 787 -113c430 0 754 83 754 132c0 10 -11 33 -76 108c-59 70 -115 117 -167 161c2 29 5 65 12 81c3 7 16 15 48 31c106 54 287 122 448 165l-16 -88c-113 -30 -344 -112 -421 -151c97 -88 165 -161 263 -286c78 -103 136 -108 166 -108
c29 0 53 -13 53 -44c0 -20 -9 -46 -53 -46h-8c-57 0 -121 23 -201 129c-35 -87 -359 -175 -816 -175c-359 0 -648 69 -733 110zM1395 715c83 46 237 114 376 160l-14 -67c-139 -46 -282 -109 -374 -158z" />
    <glyph glyph-name="uni06AF.is" horiz-adv-x="314" 
d="M0 0c-41 0 -51 27 -51 47c0 15 11 44 51 44h17c125 0 176 35 176 82s-69 139 -275 277c2 21 5 64 13 82c3 5 15 15 40 29c83 50 229 123 355 165l-16 -88c-91 -32 -248 -102 -319 -146c130 -100 267 -195 267 -321c0 -66 -33 -107 -78 -134c-47 -29 -117 -37 -173 -37h-7
zM-41 715c83 46 237 114 376 160l-14 -67c-139 -46 -282 -109 -373 -158z" />
    <glyph glyph-name="uni06AF.ms" horiz-adv-x="376" 
d="M0 0c-41 0 -51 25 -51 47c0 17 11 44 51 44h10c74 0 134 25 134 81c0 18 -7 38 -39 83c-50 70 -111 134 -169 192c2 14 8 72 11 79c2 5 16 17 48 35c86 46 258 119 393 161l-17 -88c-95 -30 -299 -110 -369 -150c110 -109 160 -178 216 -262c88 -128 112 -129 158 -131
c30 0 54 -14 54 -45c0 -20 -10 -46 -54 -46v-1c-72 1 -108 17 -184 126c-13 -77 -76 -125 -185 -125h-7zM-17 715c83 46 237 114 376 160l-14 -67c-139 -46 -282 -109 -373 -158z" />
    <glyph glyph-name="uni06AF.il" horiz-adv-x="445" 
d="M119 0h-119c-41 0 -50 25 -50 47c0 18 11 44 50 44h135c160 0 189 37 189 82c0 47 -62 138 -268 276c1 22 4 65 13 83c3 5 15 15 40 29c83 50 228 123 355 165l-17 -88c-91 -32 -247 -102 -318 -146c130 -100 259 -197 259 -322c0 -58 -29 -106 -71 -132
c-48 -29 -104 -38 -198 -38zM89 715c83 46 237 114 376 160l-14 -67c-139 -46 -282 -109 -373 -158z" />
    <glyph glyph-name="uni06AF.ml" horiz-adv-x="496" 
d="M79 0h-79c-41 0 -50 25 -50 47c0 18 11 44 50 44h80c131 0 182 26 182 81c0 21 -8 37 -40 85c-49 70 -108 131 -167 188c2 15 8 74 11 81c2 5 16 17 48 35c86 46 258 119 393 161l-17 -88c-95 -30 -299 -110 -369 -150c110 -109 155 -174 250 -309c54 -80 86 -81 125 -84
c29 0 53 -14 53 -45c0 -20 -10 -46 -53 -46c-74 1 -115 16 -186 125c-16 -82 -80 -125 -231 -125zM103 715c83 46 237 114 376 160l-14 -67c-139 -46 -282 -109 -373 -158z" />
    <glyph glyph-name="uni0644" unicode="&#x644;" horiz-adv-x="656" 
d="M52 90c0 42 7 92 31 153l58 -9c-11 -39 -17 -80 -17 -119c0 -130 93 -170 173 -170c73 0 151 28 183 85c6 10 8 31 7 52l-26 638l75 6l26 -628c1 -48 -5 -72 -16 -94c-46 -94 -157 -144 -255 -144c-151 0 -239 91 -239 230z" />
    <glyph glyph-name="uni0644.j" horiz-adv-x="1711" 
d="M18 48l3 3c105 -54 398 -132 729 -132c320 0 678 82 791 144c2 11 3 44 1 100l-21 556l75 7l21 -588c2 -39 1 -104 -6 -127c-124 -71 -462 -183 -878 -183c-297 0 -590 69 -669 121z" />
    <glyph glyph-name="uni0644.fj" horiz-adv-x="1760" 
d="M1629 726l22 -583v-9c20 -28 63 -44 109 -44c29 0 53 -13 53 -44c0 -20 -10 -46 -53 -46c-52 0 -90 15 -113 34c-5 -31 -13 -50 -22 -63c-88 -140 -483 -213 -836 -213c-341 0 -661 82 -726 124l-43 97l2 3c64 -36 390 -135 770 -135c359 0 704 70 777 173
c5 9 11 27 9 91l-24 608z" />
    <glyph glyph-name="uni0645" unicode="&#x645;" horiz-adv-x="772" 
d="M30 -94c142 59 281 137 327 204c15 15 34 75 49 122c40 121 81 170 157 170c96 0 163 -116 163 -206c0 -83 -47 -142 -111 -142c-50 0 -112 19 -180 71c-8 -25 -18 -63 -43 -95c-55 -73 -197 -146 -314 -174zM463 209c36 -34 98 -68 152 -68c27 0 48 22 48 54
c0 60 -50 129 -105 129c-38 0 -67 -21 -95 -115z" />
    <glyph glyph-name="uni0645.a" horiz-adv-x="510" 
d="M53 37c0 68 46 131 138 131c79 0 181 -16 209 -22c-22 74 -74 153 -134 153c-37 0 -64 -45 -80 -112l-58 29c22 113 81 162 136 162c38 0 68 -13 93 -37c68 -58 107 -163 112 -216c2 -10 -13 -59 -22 -76c-55 11 -155 28 -247 28c-63 0 -74 -32 -74 -58
c0 -22 15 -83 40 -183c25 -99 42 -168 44 -197l-70 -27c-6 45 -28 146 -59 262c-14 56 -29 118 -28 163z" />
    <glyph glyph-name="uni0645.fa" horiz-adv-x="601" 
d="M208 -362l-69 -25c-5 51 -17 107 -37 200c-27 117 -51 221 -51 278s33 98 84 96c20 -1 44 -7 70 -16c28 98 78 169 152 169c84 0 141 -88 158 -171c29 -72 61 -78 86 -78c29 0 53 -14 53 -45c0 -20 -9 -46 -53 -46c-31 0 -71 15 -97 54c-20 -35 -58 -54 -101 -54
c-53 0 -97 23 -160 63c-36 20 -75 34 -96 34c-14 0 -19 -13 -19 -30c1 -40 19 -125 36 -202c24 -102 41 -171 44 -227zM409 87c23 0 47 2 47 34c0 60 -42 141 -101 141c-41 0 -68 -35 -89 -120c2 -1 5 -3 7 -4c53 -36 93 -51 136 -51z" />
    <glyph glyph-name="uni06BA" unicode="&#x6ba;" horiz-adv-x="645" 
d="M47 84c0 48 13 114 35 159l57 -10c-16 -51 -20 -103 -20 -124c0 -112 81 -174 188 -174c84 0 165 27 203 104c6 10 12 33 12 43c0 59 -22 148 -87 277l77 25c31 -61 76 -177 76 -289c0 -30 -11 -75 -23 -99c-49 -100 -150 -152 -270 -152c-150 0 -248 97 -248 240z" />
    <glyph glyph-name="uni06BA.j" horiz-adv-x="1650" 
d="M17 45l2 2c129 -63 475 -160 804 -160c349 0 641 74 699 169c3 6 5 18 5 38c0 51 -20 142 -85 271l77 19c31 -61 77 -177 77 -280c0 -46 -7 -78 -15 -91c-72 -116 -348 -217 -766 -217c-331 0 -647 92 -751 148z" />
    <glyph glyph-name="uni06BA.fj" horiz-adv-x="1661" 
d="M22 1c104 -52 415 -156 760 -156c395 0 694 69 738 164c5 7 8 20 8 25c0 16 -3 34 -9 59c-13 54 -43 128 -67 174l73 31c14 -29 52 -118 65 -197c20 -9 49 -10 71 -11c29 0 53 -13 53 -44c0 -20 -9 -46 -53 -46c-27 0 -55 3 -72 11c-2 -12 -7 -36 -21 -58
c-69 -114 -362 -199 -790 -199c-344 0 -611 86 -714 144l-47 98z" />
    <glyph glyph-name="uni0646" unicode="&#x646;" horiz-adv-x="645" 
d="M47 84c0 48 13 114 35 159l57 -10c-16 -51 -20 -103 -20 -124c0 -112 81 -174 188 -174c84 0 165 27 203 104c6 10 12 33 12 43c0 59 -22 148 -87 277l77 25c31 -61 76 -177 76 -289c0 -30 -11 -75 -23 -99c-49 -100 -150 -152 -270 -152c-150 0 -248 97 -248 240z
M283 454c-30 0 -52 21 -52 54c0 32 22 54 52 54c31 0 52 -22 52 -54c0 -33 -21 -54 -52 -54z" />
    <glyph glyph-name="uni0646.j" horiz-adv-x="1650" 
d="M17 45l2 2c129 -63 475 -160 804 -160c349 0 641 74 699 169c3 6 5 18 5 38c0 51 -20 142 -85 271l77 19c31 -61 77 -177 77 -280c0 -46 -7 -78 -15 -91c-72 -116 -348 -217 -766 -217c-331 0 -647 92 -751 148zM907 454c-30 0 -52 21 -52 54c0 32 22 54 52 54
c31 0 52 -22 52 -54c0 -33 -21 -54 -52 -54z" />
    <glyph glyph-name="uni0646.fj" horiz-adv-x="1661" 
d="M22 1c104 -52 415 -156 760 -156c395 0 694 69 738 164c5 7 8 20 8 25c0 16 -3 34 -9 59c-13 54 -43 128 -67 174l73 31c14 -29 52 -118 65 -197c20 -9 49 -10 71 -11c29 0 53 -13 53 -44c0 -20 -9 -46 -53 -46c-27 0 -55 3 -72 11c-2 -12 -7 -36 -21 -58
c-69 -114 -362 -199 -790 -199c-344 0 -611 86 -714 144l-47 98zM907 415c-30 0 -52 21 -52 54c0 32 22 54 52 54c31 0 52 -22 52 -54c0 -33 -21 -54 -52 -54z" />
    <glyph glyph-name="uni0647" unicode="&#x647;" horiz-adv-x="445" 
d="M138 429l46 61c78 -56 124 -105 160 -151c36 -49 55 -103 55 -155c0 -130 -99 -192 -184 -192c-106 0 -169 88 -169 184c0 88 49 164 112 238c-6 5 -13 10 -20 15zM223 85c78 0 112 60 112 103c0 61 -41 117 -125 186c-54 -54 -100 -123 -100 -178
c0 -69 53 -111 113 -111z" />
    <glyph glyph-name="uni0647.s" horiz-adv-x="698" 
d="M258 463l41 66c43 -31 118 -81 174 -124c100 -74 177 -155 177 -251c0 -95 -79 -163 -191 -163c-52 0 -105 14 -152 39c-69 -36 -159 -60 -269 -62l-27 92c83 1 158 8 219 25c-42 41 -69 93 -69 148c0 88 57 159 139 196zM228 246c0 -54 35 -98 84 -129
c61 35 96 87 96 163c0 69 -37 99 -65 99c-38 0 -115 -50 -115 -133zM463 74c81 0 122 29 122 78c0 57 -50 119 -117 172c6 -27 6 -39 6 -57c0 -63 -29 -129 -88 -182c26 -7 52 -11 77 -11z" />
    <glyph glyph-name="uni0647.fUYG" horiz-adv-x="468" 
d="M345 91h123c30 0 54 -14 54 -45c0 -20 -10 -46 -54 -46h-105c39 -27 62 -58 62 -104c0 -86 -75 -140 -147 -140c-157 0 -219 158 -219 279c0 135 74 285 143 387h26c48 -54 141 -157 141 -243c0 -30 -9 -61 -24 -88zM129 91h59c97 0 117 29 117 70c0 49 -43 114 -90 161
c-31 -53 -73 -136 -86 -231zM191 0h-64c12 -88 69 -169 153 -169c48 0 79 25 79 66c0 40 -43 103 -168 103z" />
    <glyph glyph-name="uni0647.ms" horiz-adv-x="651" 
d="M190 463l43 64c44 -31 118 -80 174 -123c100 -73 176 -154 176 -250c0 -18 -3 -35 -8 -51c25 -10 56 -13 76 -13c29 0 53 -13 53 -44c0 -20 -10 -46 -53 -46h-16c-40 0 -83 10 -117 27c-33 -23 -77 -36 -127 -36c-57 0 -114 17 -163 44c-57 -22 -129 -35 -215 -35h-13
c-40 0 -49 25 -49 46c0 17 10 45 49 45h23c43 0 86 2 126 9c-34 39 -55 85 -55 134c0 89 63 161 140 195zM161 245c0 -50 31 -92 74 -122c64 28 106 76 106 159c0 68 -43 98 -64 98c-38 0 -116 -48 -116 -135zM317 85c26 -7 53 -11 78 -11c83 0 124 30 124 80
c0 57 -50 117 -119 171c7 -27 7 -40 7 -58c0 -69 -29 -133 -90 -182z" />
    <glyph glyph-name="uni0629" unicode="&#x629;" horiz-adv-x="445" 
d="M127 574c-29 0 -51 20 -51 53c0 32 22 53 51 53c30 0 51 -21 51 -53c0 -33 -21 -53 -51 -53zM261 574c-29 0 -49 20 -49 53c0 32 20 53 49 53c31 0 51 -21 51 -53c0 -33 -20 -53 -51 -53zM138 429l46 61c78 -56 124 -105 160 -151c36 -49 55 -103 55 -155
c0 -130 -99 -192 -184 -192c-106 0 -169 88 -169 184c0 88 49 164 112 238c-6 5 -13 10 -20 15zM223 85c78 0 112 60 112 103c0 61 -41 117 -125 186c-54 -54 -100 -123 -100 -178c0 -69 53 -111 113 -111z" />
    <glyph glyph-name="uni06BE" unicode="&#x6be;" horiz-adv-x="698" 
d="M258 463l41 66c43 -31 118 -81 174 -124c100 -74 177 -155 177 -251c0 -95 -79 -163 -191 -163c-52 0 -105 14 -152 39c-69 -36 -159 -60 -269 -62l-27 92c83 1 158 8 219 25c-42 41 -69 93 -69 148c0 88 57 159 139 196zM228 246c0 -54 35 -98 84 -129
c61 35 96 87 96 163c0 69 -37 99 -65 99c-38 0 -115 -50 -115 -133zM463 74c81 0 122 29 122 78c0 57 -50 119 -117 172c6 -27 6 -39 6 -57c0 -63 -29 -129 -88 -182c26 -7 52 -11 77 -11z" />
    <glyph glyph-name="uni06C0" unicode="&#x6c0;" horiz-adv-x="445" 
d="M282 583h-65c-37 0 -96 -1 -134 -17l6 47c9 5 31 12 46 12c-14 10 -36 29 -36 62c0 55 48 85 102 85c44 0 73 -14 86 -26l-16 -46c-17 13 -45 22 -72 22c-33 0 -51 -19 -51 -36c0 -32 37 -52 88 -52h66zM138 429l46 61c78 -56 124 -105 160 -151c36 -49 55 -103 55 -155
c0 -130 -99 -192 -184 -192c-106 0 -169 88 -169 184c0 88 49 164 112 238c-6 5 -13 10 -20 15zM223 85c78 0 112 60 112 103c0 61 -41 117 -125 186c-54 -54 -100 -123 -100 -178c0 -69 53 -111 113 -111z" />
    <glyph glyph-name="uni06C1" unicode="&#x6c1;" horiz-adv-x="445" 
d="M138 429l46 61c78 -56 124 -105 160 -151c36 -49 55 -103 55 -155c0 -130 -99 -192 -184 -192c-106 0 -169 88 -169 184c0 88 49 164 112 238c-6 5 -13 10 -20 15zM223 85c78 0 112 60 112 103c0 61 -41 117 -125 186c-54 -54 -100 -123 -100 -178
c0 -69 53 -111 113 -111z" />
    <glyph glyph-name="uni06C1.ic" horiz-adv-x="286" 
d="M0 0c-40 0 -50 26 -50 47c0 18 11 44 50 44h20c72 0 117 7 141 23c1 6 1 13 1 19c-3 86 -40 168 -77 232l73 29c31 -57 71 -173 71 -268c0 -26 -3 -55 -11 -77c-28 -24 -69 -49 -203 -49h-15zM140 -78l58 -23c-24 -32 -45 -64 -45 -110c0 -35 16 -73 45 -105l-62 -31
c-25 23 -54 77 -54 133c0 52 22 95 58 136z" />
    <glyph glyph-name="uni06C1.ia" horiz-adv-x="460" 
d="M0 0c-39 0 -51 23 -51 45c0 25 15 46 51 46c70 0 124 25 143 127l63 3c-3 -14 -8 -34 -8 -55c-2 -63 30 -78 68 -78c44 0 77 32 77 77c0 35 -17 89 -34 123l73 21c13 -25 24 -75 24 -130c0 -114 -66 -179 -149 -179c-64 0 -95 40 -108 75c-25 -44 -84 -75 -149 -75z" />
    <glyph glyph-name="uni06C2" unicode="&#x6c2;" horiz-adv-x="445" 
d="M282 583h-65c-37 0 -96 -1 -134 -17l6 47c9 5 31 12 46 12c-14 10 -36 29 -36 62c0 55 48 85 102 85c44 0 73 -14 86 -26l-16 -46c-17 13 -45 22 -72 22c-33 0 -51 -19 -51 -36c0 -32 37 -52 88 -52h66zM138 429l46 61c78 -56 124 -105 160 -151c36 -49 55 -103 55 -155
c0 -130 -99 -192 -184 -192c-106 0 -169 88 -169 184c0 88 49 164 112 238c-6 5 -13 10 -20 15zM223 85c78 0 112 60 112 103c0 61 -41 117 -125 186c-54 -54 -100 -123 -100 -178c0 -69 53 -111 113 -111z" />
    <glyph glyph-name="uni06C3" unicode="&#x6c3;" horiz-adv-x="445" 
d="M127 574c-29 0 -51 20 -51 53c0 32 22 53 51 53c30 0 51 -21 51 -53c0 -33 -21 -53 -51 -53zM261 574c-29 0 -49 20 -49 53c0 32 20 53 49 53c31 0 51 -21 51 -53c0 -33 -20 -53 -51 -53zM138 429l46 61c78 -56 124 -105 160 -151c36 -49 55 -103 55 -155
c0 -130 -99 -192 -184 -192c-106 0 -169 88 -169 184c0 88 49 164 112 238c-6 5 -13 10 -20 15zM223 85c78 0 112 60 112 103c0 61 -41 117 -125 186c-54 -54 -100 -123 -100 -178c0 -69 53 -111 113 -111z" />
    <glyph glyph-name="uni06D5" unicode="&#x6d5;" horiz-adv-x="445" 
d="M138 429l46 61c78 -56 124 -105 160 -151c36 -49 55 -103 55 -155c0 -130 -99 -192 -184 -192c-106 0 -169 88 -169 184c0 88 49 164 112 238c-6 5 -13 10 -20 15zM223 85c78 0 112 60 112 103c0 61 -41 117 -125 186c-54 -54 -100 -123 -100 -178
c0 -69 53 -111 113 -111z" />
    <glyph glyph-name="uni0648" unicode="&#x648;" horiz-adv-x="502" 
d="M14 -172l12 59c28 -15 73 -27 125 -27c116 0 205 88 234 203c-17 -3 -34 -5 -60 -5c-102 0 -192 57 -192 171c0 97 75 172 157 172c115 0 165 -133 165 -245c0 -42 -3 -89 -21 -142c-52 -170 -167 -236 -274 -236c-48 0 -110 14 -146 50zM195 242c0 -77 78 -98 141 -98
c22 0 44 2 58 6c-2 123 -66 177 -117 177c-56 0 -82 -49 -82 -85z" />
    <glyph glyph-name="uni0624" unicode="&#x624;" horiz-adv-x="502" 
d="M346 538h-65c-36 0 -95 -1 -133 -17l6 47c8 5 31 12 45 12c-14 10 -35 29 -35 62c0 55 48 85 102 85c44 0 72 -14 85 -26l-15 -46c-17 13 -46 22 -72 22c-34 0 -51 -19 -51 -36c0 -32 37 -52 88 -52h66zM14 -172l12 59c28 -15 73 -27 125 -27c116 0 205 88 234 203
c-17 -3 -34 -5 -60 -5c-102 0 -192 57 -192 171c0 97 75 172 157 172c115 0 165 -133 165 -245c0 -42 -3 -89 -21 -142c-52 -170 -167 -236 -274 -236c-48 0 -110 14 -146 50zM195 242c0 -77 78 -98 141 -98c22 0 44 2 58 6c-2 123 -66 177 -117 177c-56 0 -82 -49 -82 -85z
" />
    <glyph glyph-name="uni06C6" unicode="&#x6c6;" horiz-adv-x="502" 
d="M283 524h-52c-16 36 -51 95 -104 160l44 34c41 -46 73 -98 89 -126c19 33 47 76 91 129l40 -31c-50 -64 -87 -123 -108 -166zM14 -172l12 59c28 -15 73 -27 125 -27c116 0 205 88 234 203c-17 -3 -34 -5 -60 -5c-102 0 -192 57 -192 171c0 97 75 172 157 172
c115 0 165 -133 165 -245c0 -42 -3 -89 -21 -142c-52 -170 -167 -236 -274 -236c-48 0 -110 14 -146 50zM195 242c0 -77 78 -98 141 -98c22 0 44 2 58 6c-2 123 -66 177 -117 177c-56 0 -82 -49 -82 -85z" />
    <glyph glyph-name="uni06C7" unicode="&#x6c7;" horiz-adv-x="502" 
d="M137 526v39c17 -5 38 -6 53 -6c34 0 81 15 99 43c-63 -4 -113 26 -113 86c0 51 39 91 91 91c37 0 88 -31 89 -108c0 -104 -83 -159 -156 -159c-28 0 -52 6 -63 14zM217 694c0 -26 25 -55 93 -50c7 48 -11 88 -53 88c-22 0 -40 -16 -40 -38zM14 -172l12 59
c28 -15 73 -27 125 -27c116 0 205 88 234 203c-17 -3 -34 -5 -60 -5c-102 0 -192 57 -192 171c0 97 75 172 157 172c115 0 165 -133 165 -245c0 -42 -3 -89 -21 -142c-52 -170 -167 -236 -274 -236c-48 0 -110 14 -146 50zM195 242c0 -77 78 -98 141 -98c22 0 44 2 58 6
c-2 123 -66 177 -117 177c-56 0 -82 -49 -82 -85z" />
    <glyph glyph-name="uni06C8" unicode="&#x6c8;" horiz-adv-x="502" 
d="M289 530l-60 -4l-17 241l68 5zM14 -172l12 59c28 -15 73 -27 125 -27c116 0 205 88 234 203c-17 -3 -34 -5 -60 -5c-102 0 -192 57 -192 171c0 97 75 172 157 172c115 0 165 -133 165 -245c0 -42 -3 -89 -21 -142c-52 -170 -167 -236 -274 -236c-48 0 -110 14 -146 50z
M195 242c0 -77 78 -98 141 -98c22 0 44 2 58 6c-2 123 -66 177 -117 177c-56 0 -82 -49 -82 -85z" />
    <glyph glyph-name="uni06C9" unicode="&#x6c9;" horiz-adv-x="502" 
d="M391 548l-44 -34c-41 46 -72 98 -88 126c-20 -33 -48 -76 -92 -129l-40 31c50 64 87 123 109 166h51c16 -36 51 -95 104 -160zM14 -172l12 59c28 -15 73 -27 125 -27c116 0 205 88 234 203c-17 -3 -34 -5 -60 -5c-102 0 -192 57 -192 171c0 97 75 172 157 172
c115 0 165 -133 165 -245c0 -42 -3 -89 -21 -142c-52 -170 -167 -236 -274 -236c-48 0 -110 14 -146 50zM195 242c0 -77 78 -98 141 -98c22 0 44 2 58 6c-2 123 -66 177 -117 177c-56 0 -82 -49 -82 -85z" />
    <glyph glyph-name="uni06CB" unicode="&#x6cb;" horiz-adv-x="502" 
d="M260 650c-29 0 -49 19 -49 53c0 31 20 53 49 53c31 0 50 -22 50 -53c0 -33 -19 -53 -50 -53zM193 529c-30 0 -50 20 -50 54c0 29 22 52 50 52c29 0 50 -23 50 -52c0 -33 -21 -54 -50 -54zM275 583c0 29 21 52 50 52c30 0 49 -23 49 -52c0 -33 -19 -54 -49 -54
c-29 0 -50 20 -50 54zM14 -172l12 59c28 -15 73 -27 125 -27c116 0 205 88 234 203c-17 -3 -34 -5 -60 -5c-102 0 -192 57 -192 171c0 97 75 172 157 172c115 0 165 -133 165 -245c0 -42 -3 -89 -21 -142c-52 -170 -167 -236 -274 -236c-48 0 -110 14 -146 50zM195 242
c0 -77 78 -98 141 -98c22 0 44 2 58 6c-2 123 -66 177 -117 177c-56 0 -82 -49 -82 -85z" />
    <glyph glyph-name="uni06C5" unicode="&#x6c5;" horiz-adv-x="505" 
d="M108 -4h254c10 21 17 44 23 67c-17 -3 -33 -5 -60 -5c-101 0 -191 57 -191 171c0 97 70 172 159 172c109 0 165 -131 165 -251c0 -43 -3 -91 -21 -145c-53 -174 -169 -242 -277 -242c-48 0 -110 15 -146 50l14 59c28 -15 71 -27 123 -27c76 0 139 40 182 101l-225 -1v51z
M197 242c0 -76 76 -98 140 -98c21 0 42 2 56 5c-3 122 -62 178 -113 178c-62 0 -83 -49 -83 -85z" />
    <glyph glyph-name="uni0649" unicode="&#x649;" horiz-adv-x="715" 
d="M50 59c0 63 16 124 37 171l55 -7c-12 -42 -21 -86 -21 -130c0 -158 116 -204 217 -204c92 0 167 28 213 75c19 21 34 46 34 63s-10 35 -101 63l-50 16c-84 26 -107 57 -107 117c0 45 20 109 71 162c44 44 103 74 159 74c46 0 97 -20 115 -93l-48 -55
c-16 43 -49 69 -86 69c-86 0 -145 -83 -145 -135c0 -22 10 -37 71 -56l72 -23c72 -23 118 -49 118 -113c0 -59 -31 -108 -57 -137c-70 -77 -173 -111 -274 -111c-172 0 -273 98 -273 254z" />
    <glyph glyph-name="uni0649.j" horiz-adv-x="1749" 
d="M11 36l1 2c105 -51 415 -180 874 -180c517 0 739 126 739 191c0 14 -12 27 -95 44l-108 22c-98 21 -123 51 -123 105c0 46 26 106 75 154c49 46 120 85 200 85c60 0 119 -33 133 -106l-47 -61c-22 69 -64 90 -109 90c-105 0 -185 -83 -185 -140c0 -18 9 -32 71 -45
l142 -29c75 -16 117 -39 117 -96c0 -151 -273 -299 -812 -299c-466 0 -760 124 -832 165z" />
    <glyph glyph-name="uni0649.fj" horiz-adv-x="1628" 
d="M19 -61c74 -46 471 -160 813 -160c383 0 635 60 710 124c19 16 31 32 31 44c0 25 -49 53 -118 53h-6l26 90h153c30 0 54 -13 54 -44c0 -20 -10 -46 -54 -46h-18c20 -18 24 -38 24 -55c0 -25 -9 -50 -33 -77c-87 -95 -353 -175 -776 -175c-302 0 -631 77 -762 149l-46 95z
" />
    <glyph glyph-name="uni0626" unicode="&#x626;" horiz-adv-x="715" 
d="M50 59c0 63 16 124 37 171l55 -7c-12 -42 -21 -86 -21 -130c0 -158 116 -204 217 -204c92 0 167 28 213 75c19 21 34 46 34 63s-10 35 -101 63l-50 16c-84 26 -107 57 -107 117c0 45 20 109 71 162c44 44 103 74 159 74c46 0 97 -20 115 -93l-48 -55
c-16 43 -49 69 -86 69c-86 0 -145 -83 -145 -135c0 -22 10 -37 71 -56l72 -23c72 -23 118 -49 118 -113c0 -59 -31 -108 -57 -137c-70 -77 -173 -111 -274 -111c-172 0 -273 98 -273 254zM179 385c-37 0 -96 -1 -134 -17l6 47c9 5 31 12 46 12c-14 10 -36 29 -36 62
c0 55 48 85 102 85c44 0 73 -14 86 -26l-16 -46c-17 13 -45 22 -72 22c-33 0 -51 -19 -51 -36c0 -32 37 -52 88 -52h66l-20 -51h-65z" />
    <glyph glyph-name="uni0626.j" horiz-adv-x="1749" 
d="M11 36l1 2c105 -51 415 -180 874 -180c517 0 739 126 739 191c0 14 -12 27 -95 44l-108 22c-98 21 -123 51 -123 105c0 46 26 106 75 154c49 46 120 85 200 85c60 0 119 -33 133 -106l-47 -61c-22 69 -64 90 -109 90c-105 0 -185 -83 -185 -140c0 -18 9 -32 71 -45
l142 -29c75 -16 117 -39 117 -96c0 -151 -273 -299 -812 -299c-466 0 -760 124 -832 165zM823 385c-37 0 -96 -1 -134 -17l6 47c9 5 31 12 46 12c-14 10 -36 29 -36 62c0 55 48 85 102 85c44 0 73 -14 86 -26l-16 -46c-17 13 -45 22 -72 22c-33 0 -51 -19 -51 -36
c0 -32 37 -52 88 -52h66l-20 -51h-65z" />
    <glyph glyph-name="uni0626.fj" horiz-adv-x="1628" 
d="M19 -61c74 -46 471 -160 813 -160c383 0 635 60 710 124c19 16 31 32 31 44c0 25 -49 53 -118 53h-6l26 90h153c30 0 54 -13 54 -44c0 -20 -10 -46 -54 -46h-18c20 -18 24 -38 24 -55c0 -25 -9 -50 -33 -77c-87 -95 -353 -175 -776 -175c-302 0 -631 77 -762 149l-46 95z
M853 309c-37 0 -96 -1 -134 -17l6 47c9 5 31 12 46 12c-14 10 -36 29 -36 62c0 55 48 85 102 85c44 0 73 -14 86 -26l-16 -46c-17 13 -45 22 -72 22c-33 0 -51 -19 -51 -36c0 -32 37 -52 88 -52h66l-20 -51h-65z" />
    <glyph glyph-name="uni064A" unicode="&#x64a;" horiz-adv-x="715" 
d="M50 59c0 63 16 124 37 171l55 -7c-12 -42 -21 -86 -21 -130c0 -158 116 -204 217 -204c92 0 167 28 213 75c19 21 34 46 34 63s-10 35 -101 63l-50 16c-84 26 -107 57 -107 117c0 45 20 109 71 162c44 44 103 74 159 74c46 0 97 -20 115 -93l-48 -55
c-16 43 -49 69 -86 69c-86 0 -145 -83 -145 -135c0 -22 10 -37 71 -56l72 -23c72 -23 118 -49 118 -113c0 -59 -31 -108 -57 -137c-70 -77 -173 -111 -274 -111c-172 0 -273 98 -273 254zM430 -291c31 0 51 -21 51 -53s-20 -53 -51 -53c-29 0 -49 20 -49 53
c0 32 20 53 49 53zM296 -291c30 0 51 -21 51 -53s-21 -53 -51 -53c-29 0 -51 20 -51 53c0 32 22 53 51 53z" />
    <glyph glyph-name="uni064A.j" horiz-adv-x="1749" 
d="M11 36l1 2c105 -51 415 -180 874 -180c517 0 739 126 739 191c0 14 -12 27 -95 44l-108 22c-98 21 -123 51 -123 105c0 46 26 106 75 154c49 46 120 85 200 85c60 0 119 -33 133 -106l-47 -61c-22 69 -64 90 -109 90c-105 0 -185 -83 -185 -140c0 -18 9 -32 71 -45
l142 -29c75 -16 117 -39 117 -96c0 -151 -273 -299 -812 -299c-466 0 -760 124 -832 165zM1091 -321c30 0 51 -21 51 -53s-21 -53 -51 -53s-49 20 -49 53c0 32 19 53 49 53zM957 -321c29 0 51 -21 51 -53s-22 -53 -51 -53s-51 20 -51 53c0 32 22 53 51 53z" />
    <glyph glyph-name="uni064A.fj" horiz-adv-x="1628" 
d="M19 -61c74 -46 471 -160 813 -160c383 0 635 60 710 124c19 16 31 32 31 44c0 25 -49 53 -118 53h-6l26 90h153c30 0 54 -13 54 -44c0 -20 -10 -46 -54 -46h-18c20 -18 24 -38 24 -55c0 -25 -9 -50 -33 -77c-87 -95 -353 -175 -776 -175c-302 0 -631 77 -762 149l-46 95z
M1087 -404c31 0 51 -21 51 -53s-20 -53 -51 -53c-29 0 -49 20 -49 53c0 32 20 53 49 53zM953 -404c30 0 51 -21 51 -53s-21 -53 -51 -53c-29 0 -51 20 -51 53c0 32 22 53 51 53z" />
    <glyph glyph-name="uni06D0" unicode="&#x6d0;" horiz-adv-x="715" 
d="M50 59c0 63 16 124 37 171l55 -7c-12 -42 -21 -86 -21 -130c0 -158 116 -204 217 -204c92 0 167 28 213 75c19 21 34 46 34 63s-10 35 -101 63l-50 16c-84 26 -107 57 -107 117c0 45 20 109 71 162c44 44 103 74 159 74c46 0 97 -20 115 -93l-48 -55
c-16 43 -49 69 -86 69c-86 0 -145 -83 -145 -135c0 -22 10 -37 71 -56l72 -23c72 -23 118 -49 118 -113c0 -59 -31 -108 -57 -137c-70 -77 -173 -111 -274 -111c-172 0 -273 98 -273 254zM363 -416c30 0 51 -22 51 -54c0 -31 -21 -52 -51 -52c-29 0 -51 20 -51 52
s22 54 51 54zM363 -280c30 0 51 -22 51 -54s-23 -53 -53 -53c-27 0 -49 21 -49 53s22 54 51 54z" />
    <glyph glyph-name="uni06D0.j" horiz-adv-x="1749" 
d="M11 36l1 2c105 -51 415 -180 874 -180c517 0 739 126 739 191c0 14 -12 27 -95 44l-108 22c-98 21 -123 51 -123 105c0 46 26 106 75 154c49 46 120 85 200 85c60 0 119 -33 133 -106l-47 -61c-22 69 -64 90 -109 90c-105 0 -185 -83 -185 -140c0 -18 9 -32 71 -45
l142 -29c75 -16 117 -39 117 -96c0 -151 -273 -299 -812 -299c-466 0 -760 124 -832 165zM1024 -446c29 0 50 -22 50 -54c0 -31 -21 -52 -50 -52s-51 20 -51 52s21 54 51 54zM1023 -310c30 0 51 -22 51 -54s-22 -53 -52 -53c-28 0 -49 21 -49 53s21 54 50 54z" />
    <glyph glyph-name="uni06D0.fj" horiz-adv-x="1628" 
d="M19 -61c74 -46 471 -160 813 -160c383 0 635 60 710 124c19 16 31 32 31 44c0 25 -49 53 -118 53h-6l26 90h153c30 0 54 -13 54 -44c0 -20 -10 -46 -54 -46h-18c20 -18 24 -38 24 -55c0 -25 -9 -50 -33 -77c-87 -95 -353 -175 -776 -175c-302 0 -631 77 -762 149l-46 95z
M1020 -529c30 0 51 -22 51 -54c0 -31 -21 -52 -51 -52c-29 0 -51 20 -51 52s22 54 51 54zM1020 -393c30 0 51 -22 51 -54s-23 -53 -53 -53c-27 0 -49 21 -49 53s22 54 51 54z" />
    <glyph glyph-name="uni06CC" unicode="&#x6cc;" horiz-adv-x="715" 
d="M50 59c0 63 16 124 37 171l55 -7c-12 -42 -21 -86 -21 -130c0 -158 116 -204 217 -204c92 0 167 28 213 75c19 21 34 46 34 63s-10 35 -101 63l-50 16c-84 26 -107 57 -107 117c0 45 20 109 71 162c44 44 103 74 159 74c46 0 97 -20 115 -93l-48 -55
c-16 43 -49 69 -86 69c-86 0 -145 -83 -145 -135c0 -22 10 -37 71 -56l72 -23c72 -23 118 -49 118 -113c0 -59 -31 -108 -57 -137c-70 -77 -173 -111 -274 -111c-172 0 -273 98 -273 254z" />
    <glyph glyph-name="uni0674" unicode="&#x674;" horiz-adv-x="296" 
d="M35 730l6 47c8 5 31 12 45 12c-14 10 -35 29 -35 62c0 55 48 85 102 85c44 0 72 -14 86 -26l-16 -46c-17 13 -46 22 -72 22c-34 0 -51 -19 -51 -36c0 -32 37 -52 88 -52h66l-21 -51h-65c-36 0 -95 -1 -133 -17z" />
    <glyph glyph-name="uni0675" unicode="&#x675;" horiz-adv-x="322" 
d="M93 0l-28 720l75 6l28 -726h-75zM296 749c-37 0 -95 -1 -134 -17l6 47c9 5 31 12 46 12c-14 10 -36 29 -36 62c0 55 48 85 102 85c44 0 73 -14 86 -26l-16 -46c-17 13 -45 22 -72 22c-33 0 -51 -19 -51 -36c0 -32 37 -52 88 -52h66l-20 -51h-65z" />
    <glyph glyph-name="uni0676" unicode="&#x676;" horiz-adv-x="577" 
d="M486 565h66l-20 -51h-65c-37 0 -95 -1 -134 -17l6 47c9 5 31 12 46 12c-14 10 -36 29 -36 62c0 55 48 85 102 85c44 0 73 -14 86 -26l-16 -46c-17 13 -45 22 -72 22c-33 0 -51 -19 -51 -36c0 -32 37 -52 88 -52zM14 -172l12 59c28 -15 73 -27 125 -27
c116 0 205 88 234 203c-17 -3 -34 -5 -60 -5c-102 0 -192 57 -192 171c0 97 75 172 157 172c115 0 165 -133 165 -245c0 -42 -3 -89 -21 -142c-52 -170 -167 -236 -274 -236c-48 0 -110 14 -146 50zM195 242c0 -77 78 -98 141 -98c22 0 44 2 58 6c-2 123 -66 177 -117 177
c-56 0 -82 -49 -82 -85z" />
    <glyph glyph-name="uni0677" unicode="&#x677;" horiz-adv-x="577" 
d="M70 468v39c18 -5 38 -6 53 -6c34 0 82 15 99 43c-63 -4 -113 26 -113 86c0 51 40 91 92 91c36 0 88 -31 88 -108c0 -104 -83 -159 -155 -159c-29 0 -53 6 -64 14zM486 565h66l-20 -51h-65c-37 0 -95 -1 -134 -17l6 47c9 5 31 12 46 12c-14 10 -36 29 -36 62
c0 55 48 85 102 85c44 0 73 -14 86 -26l-16 -46c-17 13 -45 22 -72 22c-33 0 -51 -19 -51 -36c0 -32 37 -52 88 -52zM150 636c0 -26 25 -55 94 -50c7 48 -11 88 -54 88c-21 0 -40 -16 -40 -38zM14 -172l12 59c28 -15 73 -27 125 -27c116 0 205 88 234 203
c-17 -3 -34 -5 -60 -5c-102 0 -192 57 -192 171c0 97 75 172 157 172c115 0 165 -133 165 -245c0 -42 -3 -89 -21 -142c-52 -170 -167 -236 -274 -236c-48 0 -110 14 -146 50zM195 242c0 -77 78 -98 141 -98c22 0 44 2 58 6c-2 123 -66 177 -117 177c-56 0 -82 -49 -82 -85z
" />
    <glyph glyph-name="uni0678" unicode="&#x678;" horiz-adv-x="873" 
d="M50 59c0 63 16 124 37 171l55 -7c-12 -42 -21 -86 -21 -130c0 -158 116 -204 217 -204c92 0 167 28 213 75c19 21 34 46 34 63s-10 35 -101 63l-50 16c-84 26 -107 57 -107 117c0 45 20 109 71 162c44 44 103 74 159 74c46 0 97 -20 115 -93l-48 -55
c-16 43 -49 69 -86 69c-86 0 -145 -83 -145 -135c0 -22 10 -37 71 -56l72 -23c72 -23 118 -49 118 -113c0 -59 -31 -108 -57 -137c-70 -77 -173 -111 -274 -111c-172 0 -273 98 -273 254zM780 558c-37 0 -96 -1 -134 -17l6 47c9 5 31 12 46 12c-14 10 -36 29 -36 62
c0 55 48 85 102 85c44 0 73 -14 86 -26l-16 -46c-17 13 -45 22 -72 22c-33 0 -51 -19 -51 -36c0 -32 37 -52 88 -52h66l-20 -51h-65z" />
    <glyph glyph-name="uni06D2" unicode="&#x6d2;" horiz-adv-x="1099" 
d="M52 142c0 70 40 126 102 166c34 24 78 47 114 75c39 29 63 56 98 105c37 54 57 65 88 65c59 0 101 -82 115 -167l-59 -41c-19 80 -42 115 -65 115c-7 0 -17 -4 -30 -22c-17 -24 -30 -48 -57 -77c-34 -39 -86 -72 -147 -104c-62 -34 -96 -66 -96 -102
c0 -41 42 -62 190 -62c291 0 581 19 776 29l-28 -89c-150 -11 -495 -32 -770 -32c-171 0 -231 54 -231 141z" />
    <glyph glyph-name="uni06D2.fa" horiz-adv-x="494" 
d="M494 0c-72 0 -131 2 -213 2c-109 0 -194 -30 -194 -93c0 -46 37 -70 171 -70c72 0 169 6 242 11l-26 -82c-57 -7 -146 -14 -227 -14c-155 0 -224 51 -224 147c0 34 12 69 28 93c40 67 144 98 257 98c75 0 130 0 186 -1c29 0 53 -14 53 -45c0 -20 -9 -46 -53 -46z" />
    <glyph glyph-name="uni06D3" unicode="&#x6d3;" horiz-adv-x="1099" 
d="M52 142c0 70 40 126 102 166c34 24 78 47 114 75c39 29 63 56 98 105c37 54 57 65 88 65c59 0 101 -82 115 -167l-59 -41c-19 80 -42 115 -65 115c-7 0 -17 -4 -30 -22c-17 -24 -30 -48 -57 -77c-34 -39 -86 -72 -147 -104c-62 -34 -96 -66 -96 -102
c0 -41 42 -62 190 -62c291 0 581 19 776 29l-28 -89c-150 -11 -495 -32 -770 -32c-171 0 -231 54 -231 141zM274 601c-37 0 -96 -1 -134 -17l6 47c9 5 31 12 46 12c-14 10 -36 29 -36 62c0 55 48 85 102 85c44 0 73 -14 86 -26l-16 -46c-17 13 -45 22 -72 22
c-33 0 -51 -19 -51 -36c0 -32 37 -52 88 -52h66l-20 -51h-65z" />
    <glyph glyph-name="uni06D3.fa" horiz-adv-x="494" 
d="M494 0c-72 0 -131 2 -213 2c-109 0 -194 -30 -194 -93c0 -46 37 -70 171 -70c72 0 169 6 242 11l-26 -82c-57 -7 -146 -14 -227 -14c-155 0 -224 51 -224 147c0 34 12 69 28 93c40 67 144 98 257 98c75 0 130 0 186 -1c29 0 53 -14 53 -45c0 -20 -9 -46 -53 -46zM321 234
c-36 0 -95 -1 -134 -17l7 47c8 5 30 12 45 12c-14 10 -36 29 -36 62c0 55 49 85 103 85c44 0 72 -14 85 -26l-15 -46c-17 13 -46 22 -72 22c-34 0 -51 -19 -51 -36c0 -32 36 -52 88 -52h66l-21 -51h-65z" />
    <glyph glyph-name="uni0643.z" unicode="&#x6aa;" horiz-adv-x="1082" 
d="M66 11l-36 102c57 -16 137 -24 242 -24c250 0 481 23 690 37c5 95 -70 131 -179 131c-47 0 -135 -4 -211 -10c-74 -4 -153 -10 -235 -10c-80 0 -173 10 -173 107c0 60 55 124 117 174c87 70 175 113 254 150l-18 -93c-60 -23 -168 -80 -234 -140c-32 -31 -49 -55 -49 -76
c0 -25 27 -43 107 -43c112 0 211 9 285 13c65 4 118 6 162 6c166 -1 239 -68 240 -211c0 -30 -7 -61 -12 -81c-74 -5 -477 -45 -731 -45c-80 0 -191 5 -219 13z" />
    <glyph glyph-name="uni066E" unicode="&#x66e;" horiz-adv-x="884" 
d="M49 245c0 45 8 90 22 124l54 -11c-7 -28 -11 -54 -11 -84c0 -137 97 -206 291 -206c165 0 282 23 352 51c1 8 1 13 1 20c-2 69 -26 149 -71 231l72 20c33 -60 68 -156 68 -259c0 -31 -5 -55 -10 -74c-124 -54 -260 -78 -417 -78c-257 0 -351 106 -351 266z" />
    <glyph glyph-name="uni066E.j" horiz-adv-x="1676" 
d="M62 38l-45 94l2 3c78 -36 401 -92 749 -92c386 0 690 43 778 75c1 5 2 18 2 24c-2 70 -24 150 -69 232l73 19c33 -59 68 -153 68 -256c0 -32 -5 -60 -9 -76c-105 -50 -406 -107 -843 -107c-357 0 -642 56 -706 84z" />
    <glyph glyph-name="uni066E.fj" horiz-adv-x="1674" 
d="M62 38l-45 94l3 3c78 -37 382 -92 746 -92c406 0 673 70 728 104c-3 16 -3 23 -3 42s3 45 11 67l58 6c-3 -17 -5 -31 -5 -54c0 -79 56 -118 119 -118c29 0 53 -13 53 -44c0 -20 -9 -46 -53 -46c-80 0 -130 37 -156 79c-126 -73 -430 -125 -756 -125
c-371 0 -636 56 -700 84z" />
    <glyph glyph-name="uni06A1" unicode="&#x6a1;" horiz-adv-x="901" 
d="M77 388l54 -11c-9 -36 -16 -64 -16 -105c0 -145 117 -204 288 -204c172 0 315 33 369 57c2 9 4 20 6 34c-199 -12 -259 77 -259 156c0 32 10 81 52 126c36 38 82 54 115 54c77 0 161 -84 161 -274c0 -49 -8 -107 -25 -151c-69 -46 -249 -91 -426 -91
c-288 0 -346 147 -346 262c0 57 10 102 27 147zM581 325c0 -61 78 -95 202 -89c-4 96 -37 180 -109 180c-51 0 -93 -43 -93 -91z" />
    <glyph glyph-name="uni06A1.j" horiz-adv-x="1699" 
d="M17 140l3 3c103 -43 468 -92 799 -93c291 0 646 24 751 75c2 9 4 20 6 34c-202 -13 -259 76 -259 156c0 32 10 81 52 126c36 38 82 54 115 54c77 0 161 -84 161 -274c0 -49 -8 -113 -23 -151c-115 -76 -483 -110 -813 -111c-309 0 -674 48 -747 87zM1381 325
c0 -61 75 -95 199 -89c-4 96 -38 179 -109 179c-51 0 -90 -42 -90 -90z" />
    <glyph glyph-name="uni06A1.fj" horiz-adv-x="1716" 
d="M1693 91h23c29 0 53 -14 53 -45c0 -20 -9 -46 -53 -46h-24c-75 0 -151 15 -214 44c-121 -51 -326 -85 -665 -85c-326 0 -678 48 -751 87l-45 94l3 3c103 -43 466 -92 797 -93c267 0 458 13 582 43c-44 38 -71 86 -71 145c0 107 92 190 164 190c70 0 151 -76 151 -184
c0 -48 -15 -99 -69 -144c38 -6 79 -9 119 -9zM1393 243c0 -59 39 -97 96 -120c60 29 89 67 89 116c0 54 -44 109 -94 109c-54 0 -91 -52 -91 -105z" />
    <glyph glyph-name="uni066F" unicode="&#x66f;" horiz-adv-x="726" 
d="M90 289l55 -7c-18 -50 -26 -103 -26 -153c0 -153 103 -225 221 -225c107 0 201 44 244 114c2 3 11 21 17 55c-19 -3 -50 -5 -69 -5c-114 2 -184 58 -184 163c0 100 85 178 156 178c97 0 168 -108 168 -263c0 -60 -18 -141 -29 -160c-46 -87 -152 -168 -316 -168
c-161 0 -277 103 -277 286c0 74 18 140 40 185zM413 243c0 -45 33 -91 132 -91c20 0 43 1 62 4c-4 116 -58 175 -117 175c-42 0 -77 -34 -77 -88z" />
    <glyph glyph-name="uni066F.j" horiz-adv-x="1778" 
d="M14 16l3 4c103 -47 460 -159 859 -159c460 0 720 89 762 161c4 8 11 26 15 52c-19 -4 -42 -6 -70 -6c-102 0 -185 53 -185 167c0 91 71 174 160 174c114 0 166 -131 166 -247c0 -77 -15 -154 -27 -175c-67 -113 -353 -217 -825 -217c-378 0 -735 102 -813 148zM1462 246
c0 -72 61 -92 132 -92c21 0 49 2 65 5c-3 128 -64 173 -113 173c-61 0 -84 -51 -84 -86z" />
    <glyph glyph-name="uni066F.fj" horiz-adv-x="1733" 
d="M1658 90h75c29 0 54 -13 54 -44c0 -20 -10 -46 -54 -46h-82c-6 -29 -12 -52 -16 -62c-53 -124 -378 -228 -830 -228c-341 0 -668 87 -746 132l-45 98l3 5c92 -43 439 -143 806 -143c406 0 700 80 746 163c3 4 7 18 12 35h-20c-180 0 -231 82 -231 174
c0 93 69 174 160 174c65 0 164 -54 168 -258zM1577 90h15c-3 120 -55 183 -117 183c-50 0 -81 -45 -81 -84c0 -52 26 -99 183 -99z" />
    <glyph glyph-name="uni06440627" horiz-adv-x="617" 
d="M44 5c118 12 210 39 271 71c-5 31 -33 91 -117 224c-46 73 -120 182 -183 271l68 50c58 -86 118 -171 178 -273c69 -115 108 -184 114 -241c56 37 84 98 77 269l-15 343l75 7l15 -346c8 -193 -21 -307 -165 -383c-56 -30 -183 -61 -270 -61h-21z" />
    <glyph glyph-name="uni06440627.f" horiz-adv-x="654" 
d="M68 45c97 8 199 34 269 81c-7 31 -31 72 -99 172c-73 109 -143 194 -208 269l67 59c46 -58 111 -143 170 -230c86 -126 120 -193 127 -233c31 22 71 82 67 175l-13 382l75 6l15 -413c6 -177 29 -219 116 -223c30 0 54 -13 54 -44c0 -20 -10 -46 -54 -46
c-93 0 -158 40 -180 168c-55 -128 -217 -191 -358 -191h-21z" />
    <glyph glyph-name="uni062D06D2" horiz-adv-x="733" 
d="M23 -119c0 62 34 113 106 163c111 78 262 131 391 167c-76 27 -164 79 -252 79c-43 0 -94 -6 -134 -23l14 82c36 17 88 22 122 22c92 0 173 -40 256 -77c73 -32 102 -39 140 -39h38l-14 -83h-17c-132 -22 -376 -98 -512 -192c-50 -35 -73 -66 -73 -93
c0 -26 43 -42 177 -42c320 0 623 20 807 39l-26 -81c-116 -19 -479 -43 -781 -43c-158 0 -242 38 -242 121z" />
    <glyph glyph-name="uni062D06D2.f" horiz-adv-x="762" 
d="M684 181h-28c-6 0 -15 -1 -25 -3c7 -72 64 -87 131 -87c30 0 54 -14 54 -45c0 -20 -10 -46 -54 -46c-118 1 -184 48 -190 162c-117 -35 -314 -117 -412 -183c-46 -32 -72 -65 -72 -92c0 -26 43 -42 177 -42c320 0 668 21 852 39l-26 -80c-116 -19 -524 -44 -826 -44
c-158 0 -242 38 -242 121c0 57 33 112 105 163c109 76 275 139 384 170c-76 23 -155 76 -252 76c-42 0 -92 -4 -132 -27l14 83c36 20 91 25 121 25c88 0 165 -30 251 -70c71 -32 110 -37 155 -37h28z" />
    <glyph glyph-name="uni062D06D2.s" horiz-adv-x="733" 
d="M23 -119c0 62 34 113 106 163c111 78 262 131 391 167c-76 27 -164 79 -252 79c-43 0 -94 -6 -134 -23l14 82c36 17 88 22 122 22c92 0 173 -40 256 -77c73 -32 102 -39 140 -39h38l-14 -83h-17c-132 -22 -376 -98 -512 -192c-50 -35 -73 -66 -73 -93
c0 -26 43 -42 177 -42c240 0 465 12 607 22l-25 -81c-91 -12 -358 -26 -582 -26c-158 0 -242 38 -242 121z" />
    <glyph glyph-name="uni062D06D2.fs" horiz-adv-x="762" 
d="M684 181h-28c-6 0 -15 -1 -25 -3c7 -72 64 -87 131 -87c30 0 54 -14 54 -45c0 -20 -10 -46 -54 -46c-118 1 -184 48 -190 162c-117 -35 -314 -117 -412 -183c-46 -32 -72 -65 -72 -92c0 -26 43 -42 177 -42c211 0 441 10 566 19l-25 -81c-77 -10 -346 -23 -541 -23
c-158 0 -242 38 -242 121c0 57 33 112 105 163c109 76 275 139 384 170c-76 23 -155 76 -252 76c-42 0 -92 -4 -132 -27l14 83c36 20 91 25 121 25c88 0 165 -30 251 -70c71 -32 110 -37 155 -37h28z" />
    <glyph glyph-name="uni06330631" horiz-adv-x="1108" 
d="M27 -183c34 -22 77 -37 128 -37c97 0 181 80 181 184c0 47 -34 158 -60 207c57 23 190 61 265 74l58 5c-4 -21 -5 -38 -5 -50c0 -79 40 -113 89 -113s91 27 111 130l62 3c-2 -14 -8 -37 -8 -55c-1 -54 27 -76 63 -76c46 0 77 33 77 80c0 40 -13 81 -32 119l73 21
c14 -30 25 -75 25 -130c0 -112 -65 -179 -149 -179c-58 0 -91 35 -104 70c-29 -47 -78 -70 -128 -70c-62 0 -135 39 -139 169c-24 -3 -126 -29 -161 -43c10 -30 28 -112 28 -163c0 -139 -96 -263 -244 -263c-51 0 -109 17 -143 54z" />
    <glyph glyph-name="uni06330631.f" horiz-adv-x="1158" 
d="M27 -183c34 -22 77 -37 128 -37c97 0 182 84 182 182c0 44 -35 165 -61 213c56 19 192 57 267 70l57 5c-5 -26 -6 -38 -6 -50c0 -79 36 -113 86 -113c46 0 84 22 103 130l62 3c-3 -15 -7 -34 -8 -58c-2 -54 18 -74 52 -74c70 0 90 108 98 169l60 5c-2 -16 -4 -24 -5 -45
c-4 -73 18 -125 116 -126c29 0 53 -14 53 -45c0 -20 -9 -46 -53 -46c-85 -1 -132 30 -154 90c-24 -58 -70 -90 -120 -90c-63 0 -84 38 -94 71c-25 -46 -62 -71 -118 -71c-63 0 -134 41 -138 169c-26 -2 -127 -27 -161 -40c10 -30 28 -115 28 -166c0 -135 -96 -263 -244 -263
c-51 0 -109 17 -143 54z" />
    <glyph glyph-name="uni06330649" horiz-adv-x="1244" 
d="M50 -60c0 72 19 122 41 167l55 -8c-16 -42 -25 -90 -25 -121c0 -140 96 -190 222 -190c74 0 178 22 233 88c7 7 21 23 21 39c0 17 -13 28 -73 44l-61 15c-82 21 -106 49 -106 104c0 36 23 98 78 145c45 40 103 70 178 70c90 0 102 -43 113 -87c13 -52 20 -119 98 -119
c49 0 86 27 106 130l62 3c-2 -14 -7 -35 -8 -55c-1 -54 27 -77 64 -77c45 0 80 33 80 83c0 38 -17 82 -36 117l73 21c14 -30 25 -75 25 -130c0 -112 -64 -179 -148 -179c-58 0 -91 34 -105 70c-27 -45 -72 -70 -122 -70c-97 0 -124 73 -146 164c-7 32 -21 53 -69 53
c-120 0 -177 -82 -177 -122c0 -20 13 -30 70 -44l55 -12c90 -22 118 -46 118 -99c0 -55 -36 -98 -44 -107c-68 -84 -187 -126 -312 -126c-169 0 -260 92 -260 233z" />
    <glyph glyph-name="uni06330649.j" horiz-adv-x="2252" 
d="M12 -75c122 -60 445 -179 857 -179c452 0 723 108 723 177c0 14 -15 27 -81 38l-113 18c-87 15 -106 59 -106 99c0 42 21 93 74 139c46 41 122 76 222 76c101 0 129 -38 144 -95c23 -82 48 -112 96 -112c49 0 90 28 110 131l62 3c-3 -14 -7 -35 -8 -55
c-1 -54 27 -78 63 -78c45 0 80 32 80 83c0 39 -16 82 -35 118l73 21c14 -30 25 -75 25 -130c0 -112 -65 -179 -149 -179c-58 0 -89 33 -104 70c-28 -44 -75 -70 -128 -70c-63 0 -113 34 -144 156c-11 36 -35 61 -100 61c-140 0 -213 -77 -213 -120c0 -20 11 -33 70 -41
l107 -17c90 -13 125 -40 125 -97c0 -150 -275 -282 -804 -282c-400 0 -705 113 -806 167l-41 96z" />
    <glyph glyph-name="uni06330649.f" horiz-adv-x="1305" 
d="M50 -60c0 66 17 122 39 167l55 -8c-15 -42 -24 -90 -24 -121c0 -140 97 -189 223 -189c74 0 178 22 233 87c7 8 19 23 19 40s-14 28 -71 43l-61 15c-82 21 -106 49 -106 104c0 36 23 98 78 145c45 40 104 70 178 70c95 0 109 -51 112 -67c2 -7 3 -18 4 -27
c10 -79 43 -112 91 -112c49 0 90 27 110 130l62 3c-2 -14 -7 -35 -8 -55c-1 -54 19 -77 55 -77c70 0 87 108 95 169l60 5c-2 -16 -4 -24 -5 -45c-4 -73 18 -125 116 -126c29 0 54 -14 54 -45c0 -20 -10 -46 -54 -46c-85 -1 -132 30 -154 90c-24 -58 -70 -90 -120 -90
c-58 0 -80 32 -94 70c-28 -44 -78 -70 -128 -70c-62 0 -125 38 -137 157c0 3 -1 12 -1 15c-3 21 -19 44 -71 44c-120 1 -175 -81 -175 -121c0 -20 11 -30 69 -44l54 -12c90 -22 118 -46 118 -99c0 -55 -36 -98 -44 -107c-68 -84 -187 -126 -312 -126
c-169 0 -260 92 -260 233z" />
    <glyph glyph-name="uni06330649.fj" horiz-adv-x="2314" 
d="M12 -75c122 -60 445 -179 857 -179c452 0 722 108 721 177c0 14 -13 27 -79 38l-113 18c-86 15 -106 57 -106 101c0 40 21 91 74 137c46 41 122 76 222 76c103 0 129 -38 144 -95c23 -82 48 -112 96 -112c49 0 90 28 110 131l63 3c-3 -14 -8 -35 -8 -55
c-1 -54 20 -78 55 -78c70 0 87 109 95 170l60 5c-2 -16 -4 -24 -5 -45c-4 -73 18 -125 116 -126c30 0 54 -14 54 -45c0 -20 -10 -46 -54 -46c-85 0 -132 30 -153 90c-25 -58 -68 -90 -118 -90c-58 0 -84 32 -97 70c-28 -45 -72 -70 -128 -70c-64 0 -114 34 -145 156
c-11 36 -33 61 -100 61c-140 0 -213 -77 -213 -120c0 -20 11 -33 70 -41l107 -17c90 -13 125 -39 125 -97c0 -150 -275 -282 -804 -282c-400 0 -705 113 -806 167l-41 96z" />
    <glyph glyph-name="uni063306D2" horiz-adv-x="957" 
d="M23 -132c0 59 41 119 107 161c54 36 129 65 183 95c54 29 97 66 124 105l59 3c-7 -23 -13 -45 -14 -69c-2 -34 7 -77 55 -77c53 0 85 29 103 131l63 4c-4 -16 -8 -36 -8 -56c-1 -61 30 -78 66 -78c45 0 79 34 79 82c0 40 -15 80 -34 118l73 22c14 -31 24 -76 24 -131
c0 -112 -65 -179 -149 -179c-63 0 -93 36 -107 71c-24 -45 -64 -71 -120 -71c-97 0 -105 97 -102 135c-20 -33 -46 -56 -95 -85c-43 -25 -85 -38 -149 -72c-61 -33 -95 -71 -95 -99c0 -26 45 -45 179 -45c399 0 855 20 1039 39l-26 -81c-116 -19 -618 -43 -1013 -43
c-158 0 -242 36 -242 120z" />
    <glyph glyph-name="uni063306D2.f" horiz-adv-x="1015" 
d="M86 -120c0 -27 45 -46 179 -46c399 0 920 22 1104 40l-25 -81c-116 -19 -684 -43 -1079 -43c-158 0 -242 36 -242 120c0 65 41 118 107 160c54 35 129 65 183 94c54 30 97 66 124 106l59 3c-8 -29 -15 -57 -15 -80c0 -32 12 -66 55 -66c47 0 85 22 104 130l62 3
c-3 -17 -8 -41 -8 -63c0 -55 23 -69 52 -69c70 0 90 108 98 169l60 5c-3 -20 -5 -43 -5 -65c1 -62 27 -105 116 -106c29 0 54 -14 54 -45c0 -20 -10 -46 -54 -46c-85 0 -132 30 -154 90c-24 -58 -70 -90 -120 -90c-63 0 -84 38 -94 71c-25 -46 -64 -71 -120 -71
c-60 0 -107 36 -102 135c-20 -33 -46 -57 -95 -85c-43 -25 -85 -39 -149 -73c-61 -32 -95 -65 -95 -97z" />
    <glyph glyph-name="uni063306D2.s" horiz-adv-x="957" 
d="M23 -132c0 59 41 119 107 161c54 36 129 65 183 95c54 29 97 66 124 105l59 3c-7 -23 -13 -45 -14 -69c-2 -34 7 -77 55 -77c53 0 85 29 103 131l63 4c-4 -16 -8 -36 -8 -56c-1 -61 30 -78 66 -78c45 0 79 34 79 82c0 40 -15 80 -34 118l73 22c14 -31 24 -76 24 -131
c0 -112 -65 -179 -149 -179c-63 0 -93 36 -107 71c-24 -45 -64 -71 -120 -71c-97 0 -105 97 -102 135c-20 -33 -46 -56 -95 -85c-43 -25 -85 -38 -149 -72c-61 -33 -95 -71 -95 -99c0 -26 45 -45 179 -45c321 0 690 15 831 28l-25 -81c-92 -14 -494 -32 -806 -32
c-158 0 -242 36 -242 120z" />
    <glyph glyph-name="uni063306D2.fs" horiz-adv-x="1015" 
d="M86 -120c0 -27 45 -46 179 -46c304 0 689 11 820 23l-26 -81c-88 -13 -491 -26 -794 -26c-158 0 -242 36 -242 120c0 65 41 118 107 160c54 35 129 65 183 94c54 30 97 66 124 106l59 3c-8 -29 -15 -57 -15 -80c0 -32 12 -66 55 -66c47 0 85 22 104 130l62 3
c-3 -17 -8 -41 -8 -63c0 -55 23 -69 52 -69c70 0 90 108 98 169l60 5c-3 -20 -5 -43 -5 -65c1 -62 27 -105 116 -106c29 0 54 -14 54 -45c0 -20 -10 -46 -54 -46c-85 0 -132 30 -154 90c-24 -58 -70 -90 -120 -90c-63 0 -84 38 -94 71c-25 -46 -64 -71 -120 -71
c-60 0 -107 36 -102 135c-20 -33 -46 -57 -95 -85c-43 -25 -85 -39 -149 -73c-61 -32 -95 -65 -95 -97z" />
    <glyph glyph-name="uni06350631" horiz-adv-x="1270" 
d="M27 -183c34 -22 77 -37 128 -37c97 0 185 81 185 182c0 51 -38 160 -64 209c66 24 184 55 260 68l52 3c1 -66 31 -116 72 -133c79 128 213 278 366 278c121 0 198 -97 198 -189c0 -78 -63 -134 -144 -166c-57 -23 -151 -39 -253 -39c-198 0 -266 58 -297 171h-1
c-27 -2 -119 -24 -156 -39c10 -29 28 -111 28 -162c0 -137 -96 -263 -244 -263c-51 0 -109 17 -143 54zM719 92c30 -8 67 -11 116 -11c74 0 160 8 205 22c63 18 121 50 121 93c0 48 -53 112 -145 112c-75 0 -194 -57 -297 -216z" />
    <glyph glyph-name="uni06350631.f" horiz-adv-x="1295" 
d="M536 239l52 3c1 -66 31 -116 72 -133c79 128 213 278 366 278c121 0 198 -97 198 -189c0 -36 -13 -67 -35 -93c31 -9 79 -14 106 -14c29 0 53 -14 53 -45c0 -20 -10 -46 -53 -46h-16c-82 0 -136 20 -172 44l-27 -12c-57 -23 -151 -39 -253 -39c-198 0 -266 58 -297 171
h-1c-27 -2 -119 -24 -156 -39c10 -29 28 -111 28 -162c0 -137 -96 -263 -244 -263c-51 0 -109 17 -143 54l13 63c34 -22 77 -37 128 -37c97 0 185 81 185 182c0 51 -38 160 -64 209c66 24 184 55 260 68zM1040 103c63 18 121 50 121 93c0 48 -53 112 -145 112
c-75 0 -194 -57 -297 -216c30 -8 67 -11 116 -11c74 0 160 8 205 22z" />
    <glyph glyph-name="uni06350649" horiz-adv-x="1408" 
d="M50 -60c0 72 19 122 41 167l55 -8c-16 -42 -25 -90 -25 -121c0 -140 96 -190 222 -190c74 0 180 23 235 88c7 8 17 22 17 32c0 17 -14 27 -71 42l-61 16c-82 21 -106 48 -106 104c0 36 24 97 78 144c46 40 113 71 190 71c91 0 104 -53 111 -70c15 -41 30 -77 63 -97
c80 126 213 269 366 269c121 0 197 -98 197 -189c0 -79 -62 -134 -143 -166c-57 -23 -144 -39 -247 -39c-195 0 -249 60 -293 173c-9 24 -22 41 -67 41c-122 0 -187 -81 -187 -120c0 -20 11 -31 69 -44l54 -13c90 -21 118 -46 118 -99c0 -43 -27 -79 -41 -97
c-66 -84 -188 -127 -313 -127c-169 0 -262 92 -262 233zM857 97c31 -8 78 -16 122 -16c74 0 159 9 204 22c63 19 115 49 115 92c0 48 -49 112 -144 112c-71 0 -194 -50 -297 -210z" />
    <glyph glyph-name="uni06350649.j" horiz-adv-x="2397" 
d="M12 -75c122 -60 445 -179 857 -179c473 0 723 108 723 171c0 14 -11 25 -77 36l-113 18c-86 14 -106 56 -106 101c0 40 23 89 76 133c47 40 131 80 244 80c91 0 98 -43 112 -79c13 -32 31 -72 64 -90c80 128 209 271 362 271c121 0 197 -98 197 -189
c0 -79 -62 -134 -143 -166c-57 -23 -144 -39 -247 -39c-195 0 -253 63 -290 166c-11 31 -22 49 -71 49c-139 0 -238 -78 -238 -121c0 -19 13 -32 71 -40l108 -16c90 -14 121 -42 121 -93c0 -125 -210 -278 -804 -278c-400 0 -705 113 -806 167l-41 96zM1849 96
c31 -8 78 -14 122 -14c74 0 152 8 197 21c63 19 120 49 120 92c0 49 -51 112 -145 112c-74 0 -190 -52 -294 -211z" />
    <glyph glyph-name="uni06350649.f" horiz-adv-x="1429" 
d="M524 -50l-61 16c-82 21 -106 48 -106 104c0 36 24 97 78 144c46 40 113 71 190 71c91 0 104 -53 111 -70c15 -41 30 -77 63 -97c80 126 213 269 366 269c121 0 197 -98 197 -189c0 -36 -13 -67 -34 -93c31 -9 81 -14 101 -14c29 0 53 -14 53 -45c0 -20 -9 -46 -53 -46
h-15c-64 0 -132 20 -168 44l-27 -12c-57 -23 -144 -39 -247 -39c-195 0 -249 60 -293 173c-9 24 -22 41 -67 41c-122 0 -187 -81 -187 -120c0 -20 11 -31 69 -44l54 -13c90 -21 118 -46 118 -99c0 -43 -27 -79 -41 -97c-66 -84 -188 -127 -313 -127c-169 0 -262 92 -262 233
c0 72 19 122 41 167l55 -8c-16 -42 -25 -90 -25 -121c0 -140 96 -190 222 -190c74 0 180 23 235 88c7 8 17 22 17 32c0 17 -14 27 -71 42zM1183 103c63 19 115 49 115 92c0 48 -49 112 -144 112c-71 0 -194 -50 -297 -210c31 -8 78 -16 122 -16c74 0 159 9 204 22z" />
    <glyph glyph-name="uni06350649.fj" horiz-adv-x="2418" 
d="M1515 -47l-113 18c-86 14 -106 56 -106 101c0 40 23 89 76 133c47 40 131 80 244 80c91 0 98 -43 112 -79c13 -32 31 -72 64 -90c80 128 209 271 362 271c121 0 197 -98 197 -189c0 -36 -13 -67 -34 -93c31 -9 81 -14 101 -14c29 0 53 -14 53 -45c0 -20 -9 -46 -53 -46
h-15c-64 0 -132 20 -168 44l-27 -12c-57 -23 -144 -39 -247 -39c-195 0 -253 63 -290 166c-11 31 -22 49 -71 49c-139 0 -238 -78 -238 -121c0 -19 13 -32 71 -40l108 -16c90 -14 121 -42 121 -93c0 -125 -210 -278 -804 -278c-400 0 -705 113 -806 167l-41 96l1 2
c122 -60 445 -179 857 -179c473 0 723 108 723 171c0 14 -11 25 -77 36zM2168 103c63 19 120 49 120 92c0 49 -51 112 -145 112c-74 0 -190 -52 -294 -211c31 -8 78 -14 122 -14c74 0 152 8 197 21z" />
    <glyph glyph-name="uni063506D2" horiz-adv-x="1171" 
d="M86 -119c0 -26 45 -47 179 -47c399 0 882 20 1066 38l-25 -80c-117 -19 -646 -43 -1041 -43c-158 0 -242 38 -242 121c0 60 32 108 98 154c52 38 134 70 189 99c61 32 100 66 127 107l60 3c-4 -71 24 -106 63 -125c79 127 212 279 366 279c121 0 198 -98 198 -189
c0 -79 -62 -134 -143 -166c-57 -23 -151 -39 -254 -39c-204 0 -261 57 -290 151c-19 -39 -63 -70 -112 -97c-43 -24 -98 -45 -157 -77c-52 -29 -82 -64 -82 -89zM621 92c31 -7 54 -10 116 -10c74 0 158 7 203 21c63 18 121 49 121 92c0 51 -52 112 -149 112
c-71 0 -188 -57 -291 -215z" />
    <glyph glyph-name="uni063506D2.f" horiz-adv-x="1191" 
d="M1190 0h-15c-71 0 -132 20 -168 44c-8 -5 -17 -8 -26 -12c-57 -23 -151 -39 -254 -39c-203 0 -260 56 -290 150c-20 -38 -63 -69 -112 -96c-43 -24 -98 -46 -157 -77c-52 -28 -83 -61 -82 -88c0 -27 41 -48 179 -48c399 0 1015 26 1199 45l-26 -81
c-116 -19 -733 -49 -1173 -49c-165 0 -242 40 -242 123c0 62 32 106 98 152c52 38 134 70 189 99c61 32 100 71 127 107l60 3c-4 -71 24 -106 63 -125c79 127 212 279 366 279c121 0 198 -98 198 -189c0 -36 -13 -67 -35 -93c30 -9 75 -14 101 -14c29 0 53 -14 53 -45
c0 -20 -9 -46 -53 -46zM912 307c-71 0 -188 -57 -291 -215c31 -7 54 -10 116 -10c74 0 158 7 203 21c63 18 121 49 121 92c0 51 -52 112 -149 112z" />
    <glyph glyph-name="uni063506D2.s" horiz-adv-x="1171" 
d="M86 -119c0 -26 45 -47 179 -47c399 0 861 20 1045 38l-26 -80c-116 -19 -624 -43 -1019 -43c-158 0 -242 38 -242 121c0 60 32 108 98 154c52 38 134 70 189 99c61 32 100 66 127 107l60 3c-4 -71 24 -106 63 -125c79 127 212 279 366 279c121 0 198 -98 198 -189
c0 -79 -62 -134 -143 -166c-57 -23 -151 -39 -254 -39c-204 0 -261 57 -290 151c-19 -39 -63 -70 -112 -97c-43 -24 -98 -45 -157 -77c-52 -29 -82 -64 -82 -89zM621 92c31 -7 54 -10 116 -10c74 0 158 7 203 21c63 18 121 49 121 92c0 51 -52 112 -149 112
c-71 0 -188 -57 -291 -215z" />
    <glyph glyph-name="uni063506D2.fs" horiz-adv-x="1191" 
d="M1190 0h-15c-71 0 -132 20 -168 44c-8 -5 -17 -8 -26 -12c-57 -23 -151 -39 -254 -39c-203 0 -260 56 -290 150c-20 -38 -63 -69 -112 -96c-43 -24 -98 -46 -157 -77c-52 -28 -83 -61 -82 -88c0 -27 41 -48 179 -48c333 0 844 20 995 34l-26 -81
c-96 -15 -608 -38 -969 -38c-165 0 -242 40 -242 123c0 62 32 106 98 152c52 38 134 70 189 99c61 32 100 71 127 107l60 3c-4 -71 24 -106 63 -125c79 127 212 279 366 279c121 0 198 -98 198 -189c0 -36 -13 -67 -35 -93c30 -9 75 -14 101 -14c29 0 53 -14 53 -45
c0 -20 -9 -46 -53 -46zM912 307c-71 0 -188 -57 -291 -215c31 -7 54 -10 116 -10c74 0 158 7 203 21c63 18 121 49 121 92c0 51 -52 112 -149 112z" />
    <glyph glyph-name="uni063706D2" horiz-adv-x="929" 
d="M372 91h31c138 0 265 10 312 25c53 17 96 38 96 83c0 46 -48 108 -145 108c-84 0 -200 -68 -294 -216zM25 -127v3c0 33 13 83 58 124c41 37 107 69 209 85c10 17 20 35 28 50c12 29 10 61 8 103l-19 482l75 6l13 -361c4 -82 2 -120 0 -147c75 95 176 169 279 169
c119 0 198 -94 198 -187c0 -53 -23 -117 -113 -156c-55 -23 -162 -44 -407 -44c-230 -3 -263 -83 -264 -112c0 -30 39 -54 177 -54c399 0 715 20 899 38l-26 -80c-116 -19 -478 -43 -873 -43c-165 0 -242 39 -242 124z" />
    <glyph glyph-name="uni063706D2.f" horiz-adv-x="939" 
d="M939 0h-16c-70 0 -128 18 -164 43c-56 -23 -163 -43 -405 -43c-230 -3 -264 -86 -264 -113c0 -31 39 -53 177 -53c399 0 812 29 996 47l-26 -81c-116 -18 -536 -51 -970 -51c-165 0 -242 40 -242 127c0 34 13 83 58 124c41 37 107 69 209 85c10 17 20 35 28 50
c12 29 10 61 8 103l-19 482l75 6l13 -361c4 -82 2 -120 0 -147c75 95 176 169 279 169c119 0 198 -94 198 -187c0 -31 -8 -65 -32 -97c29 -10 71 -13 97 -13c29 0 53 -13 53 -44c0 -20 -9 -46 -53 -46zM372 91h31c138 0 265 10 312 25c53 17 96 38 96 83
c0 46 -48 108 -145 108c-84 0 -200 -68 -294 -216z" />
    <glyph glyph-name="uni063706D2.s" horiz-adv-x="929" 
d="M372 91h31c138 0 265 10 312 25c53 17 96 38 96 83c0 46 -48 108 -145 108c-84 0 -200 -68 -294 -216zM25 -127v3c0 33 13 83 58 124c41 37 107 69 209 85c10 17 20 35 28 50c12 29 10 61 8 103l-19 482l75 6l13 -361c4 -82 2 -120 0 -147c75 95 176 169 279 169
c119 0 198 -94 198 -187c0 -53 -23 -117 -113 -156c-55 -23 -162 -44 -407 -44c-230 -3 -263 -83 -264 -112c0 -30 39 -54 177 -54c358 0 635 17 801 31l-26 -80c-105 -16 -422 -36 -775 -36c-165 0 -242 39 -242 124z" />
    <glyph glyph-name="uni063706D2.fs" horiz-adv-x="939" 
d="M939 0h-16c-70 0 -128 18 -164 43c-56 -23 -163 -43 -405 -43c-230 -3 -264 -86 -264 -113c0 -31 39 -53 177 -53c297 0 606 18 740 29l-26 -81c-85 -12 -394 -33 -714 -33c-165 0 -242 40 -242 127c0 34 13 83 58 124c41 37 107 69 209 85c10 17 20 35 28 50
c12 29 10 61 8 103l-19 482l75 6l13 -361c4 -82 2 -120 0 -147c75 95 176 169 279 169c119 0 198 -94 198 -187c0 -31 -8 -65 -32 -97c29 -10 71 -13 97 -13c29 0 53 -13 53 -44c0 -20 -9 -46 -53 -46zM372 91h31c138 0 265 10 312 25c53 17 96 38 96 83
c0 46 -48 108 -145 108c-84 0 -200 -68 -294 -216z" />
    <glyph glyph-name="uni063906D2" horiz-adv-x="649" 
d="M86 -111c0 -33 41 -55 179 -55c399 0 656 20 840 38l-26 -80c-116 -19 -419 -43 -814 -43c-165 0 -242 39 -242 124c0 45 18 90 64 130c43 38 112 73 216 106c-40 24 -88 78 -88 151c0 105 92 189 200 189c57 0 99 -14 126 -34l9 -75c-31 21 -85 30 -133 30
c-81 0 -138 -60 -138 -106c0 -74 103 -125 155 -125c40 5 120 23 183 35l-23 -91c-79 -13 -172 -31 -274 -53c-90 -20 -152 -47 -186 -72c-42 -29 -48 -57 -48 -69z" />
    <glyph glyph-name="uni063906D2.f" horiz-adv-x="777" 
d="M777 0h-17c-103 0 -193 29 -268 71c-55 -23 -123 -44 -201 -66c-170 -45 -205 -91 -205 -117c0 -33 41 -54 179 -54c427 0 751 27 935 45l-26 -80c-116 -19 -493 -50 -909 -50c-165 0 -242 38 -242 124c0 107 119 166 252 207c47 15 95 30 139 45
c-63 50 -109 109 -137 161c-21 -8 -39 -15 -55 -24l-9 72c40 20 141 62 269 62c169 0 220 -62 220 -124c0 -60 -38 -110 -114 -155c53 -16 114 -26 180 -26h9c30 0 54 -14 54 -45c0 -20 -10 -46 -54 -46zM342 304c34 -58 87 -110 157 -149c82 33 139 67 139 109
c0 18 -26 58 -160 58c-39 0 -88 -7 -136 -18z" />
    <glyph glyph-name="uni063906D2.s" horiz-adv-x="649" 
d="M86 -111c0 -33 41 -55 179 -55c260 0 400 10 523 18l-26 -80c-79 -11 -245 -23 -497 -23c-165 0 -242 39 -242 124c0 45 18 90 64 130c43 38 112 73 216 106c-40 24 -88 78 -88 151c0 105 92 189 200 189c57 0 99 -14 126 -34l9 -75c-31 21 -85 30 -133 30
c-81 0 -138 -60 -138 -106c0 -74 103 -125 155 -125c40 5 120 23 183 35l-23 -91c-79 -13 -172 -31 -274 -53c-90 -20 -152 -47 -186 -72c-42 -29 -48 -57 -48 -69z" />
    <glyph glyph-name="uni063906D2.fs" horiz-adv-x="777" 
d="M777 0h-17c-103 0 -193 29 -268 71c-55 -23 -123 -44 -201 -66c-170 -45 -205 -91 -205 -117c0 -33 41 -54 179 -54c277 0 466 10 581 18l-26 -81c-71 -9 -290 -22 -555 -22c-165 0 -242 38 -242 124c0 107 119 166 252 207c47 15 95 30 139 45c-63 50 -109 109 -137 161
c-21 -8 -39 -15 -55 -24l-9 72c40 20 141 62 269 62c169 0 220 -62 220 -124c0 -60 -38 -110 -114 -155c53 -16 114 -26 180 -26h9c30 0 54 -14 54 -45c0 -20 -10 -46 -54 -46zM342 304c34 -58 87 -110 157 -149c82 33 139 67 139 109c0 18 -26 58 -160 58
c-39 0 -88 -7 -136 -18z" />
    <glyph glyph-name="uni06A10649" horiz-adv-x="700" 
d="M50 17c0 49 14 114 35 156l54 -10c-11 -40 -21 -80 -21 -124c0 -141 102 -194 223 -194c120 0 198 39 239 85c12 13 26 34 26 52c0 40 -48 62 -142 62h-60l25 83h12c60 0 98 49 103 68c-199 -16 -231 97 -231 159c0 76 57 161 151 161c112 0 161 -111 161 -222
c0 -68 -16 -126 -70 -177c56 -15 112 -55 112 -125c0 -37 -13 -69 -32 -95c-57 -80 -173 -137 -308 -137c-187 0 -277 97 -277 258zM374 359c0 -43 36 -99 186 -87c5 114 -45 171 -109 171c-45 0 -77 -43 -77 -84z" />
    <glyph glyph-name="uni06A10649.j" horiz-adv-x="1660" 
d="M12 -53c142 -74 449 -169 791 -169c417 0 663 89 727 150c20 18 33 41 33 54c0 41 -48 62 -142 62h-57l25 83h12c60 0 95 49 100 68c-199 -16 -228 97 -228 157c0 76 56 163 150 163c112 0 162 -111 162 -222c0 -68 -17 -128 -70 -179c59 -18 112 -59 112 -122
c0 -42 -17 -70 -38 -97c-74 -96 -323 -202 -804 -202c-367 0 -646 107 -733 155l-41 98zM1334 358c0 -43 34 -99 183 -87c5 114 -43 172 -107 172c-47 0 -76 -46 -76 -85z" />
    <glyph glyph-name="uni06A106D2" horiz-adv-x="587" 
d="M266 368c0 -62 81 -100 199 -95c4 68 -34 186 -113 186c-45 0 -86 -44 -86 -91zM23 -129c0 48 17 110 135 163c79 36 162 61 208 80c78 31 91 56 94 81c-191 -7 -256 81 -256 163c0 34 8 84 51 129c36 38 74 51 107 51c77 0 168 -88 168 -274c0 -136 -34 -179 -151 -227
c-44 -18 -107 -36 -171 -60c-105 -38 -120 -71 -121 -93c0 -32 40 -51 178 -51c322 0 556 16 740 34l-26 -81c-116 -19 -346 -38 -714 -38c-165 0 -242 38 -242 123z" />
    <glyph glyph-name="uni06A106D2.f" horiz-adv-x="615" 
d="M615 0h-34c-72 0 -145 14 -206 42c-43 -21 -92 -41 -148 -60c-121 -43 -139 -80 -139 -101c0 -32 39 -47 177 -47c322 0 557 15 741 34l-26 -81c-116 -19 -347 -38 -715 -38c-165 0 -242 36 -242 122c0 47 24 113 166 169c42 16 80 31 114 45c-47 37 -76 86 -76 145
c0 108 96 198 172 198c66 0 143 -75 143 -186c0 -57 -26 -103 -74 -142c38 -6 79 -9 120 -9h27c30 0 54 -14 54 -45c0 -20 -10 -46 -54 -46zM292 235c0 -54 36 -90 91 -113c60 33 94 67 94 114c0 60 -43 112 -87 112c-55 0 -98 -62 -98 -113z" />
    <glyph glyph-name="uni06A106D2.s" horiz-adv-x="587" 
d="M266 368c0 -62 81 -100 199 -95c4 68 -34 186 -113 186c-45 0 -86 -44 -86 -91zM23 -129c0 48 17 110 135 163c79 36 162 61 208 80c78 31 91 56 94 81c-191 -7 -256 81 -256 163c0 34 8 84 51 129c36 38 74 51 107 51c77 0 168 -88 168 -274c0 -136 -34 -179 -151 -227
c-44 -18 -107 -36 -171 -60c-105 -38 -120 -71 -121 -93c0 -32 40 -51 178 -51c206 0 339 7 461 18l-26 -81c-79 -12 -196 -22 -435 -22c-165 0 -242 38 -242 123z" />
    <glyph glyph-name="uni06A106D2.fs" horiz-adv-x="615" 
d="M615 0h-34c-72 0 -145 14 -206 42c-43 -21 -92 -41 -148 -60c-121 -43 -139 -80 -139 -101c0 -32 39 -47 177 -47c183 0 310 5 419 12l-26 -81c-69 -8 -181 -16 -393 -16c-165 0 -242 36 -242 122c0 47 24 113 166 169c42 16 80 31 114 45c-47 37 -76 86 -76 145
c0 108 96 198 172 198c66 0 143 -75 143 -186c0 -57 -26 -103 -74 -142c38 -6 79 -9 120 -9h27c30 0 54 -14 54 -45c0 -20 -10 -46 -54 -46zM292 235c0 -54 36 -90 91 -113c60 33 94 67 94 114c0 60 -43 112 -87 112c-55 0 -98 -62 -98 -113z" />
    <glyph glyph-name="uni06430649" horiz-adv-x="752" 
d="M50 17c0 49 11 108 32 149l53 -9c-13 -42 -19 -83 -19 -118c0 -141 104 -194 225 -194c108 0 193 35 240 84c12 13 25 35 25 52c0 39 -46 63 -140 63h-62l26 87h17c135 0 174 25 174 57c0 22 -14 55 -89 123c-49 47 -107 90 -177 136c2 33 7 70 12 82c2 6 14 15 46 33
c84 49 223 119 350 162l-18 -90c-97 -31 -247 -100 -318 -144c38 -27 94 -70 136 -108c110 -100 122 -144 122 -185c0 -59 -38 -93 -82 -109c37 -17 64 -51 64 -98c0 -37 -14 -71 -31 -95c-54 -74 -164 -136 -310 -136c-186 0 -276 97 -276 258z" />
    <glyph glyph-name="uni06430649.j" horiz-adv-x="1720" 
d="M16 -54c69 -46 439 -168 797 -168c440 0 664 88 729 151c22 21 31 43 31 57c0 40 -32 57 -127 57h-74l26 88h18c130 0 172 26 172 57c1 23 -13 54 -88 122c-49 47 -107 91 -176 136c1 34 7 71 12 83c2 6 14 15 46 33c84 49 222 119 349 162l-17 -88
c-97 -31 -247 -102 -317 -146c37 -27 92 -71 134 -109c110 -100 123 -142 123 -184c0 -54 -40 -96 -77 -109c28 -15 58 -46 58 -93c0 -39 -16 -72 -39 -99c-72 -91 -294 -203 -787 -203c-329 0 -642 92 -754 154l-41 98z" />
    <glyph glyph-name="uni06430649.f" horiz-adv-x="882" 
d="M50 17c0 49 11 108 32 149l54 -9c-12 -42 -19 -83 -19 -118c0 -141 103 -194 224 -194c108 0 189 32 236 81c13 13 27 38 27 54c0 40 -34 63 -128 63h-72l24 88h53c127 0 135 35 135 51c0 9 -4 28 -70 105c-39 47 -104 108 -166 159c1 23 4 65 13 84c4 5 17 15 48 33
c85 51 220 117 349 160l-17 -87c-98 -31 -245 -100 -324 -148c94 -89 166 -160 267 -291c77 -103 136 -106 166 -106c29 0 54 -14 54 -45c0 -20 -10 -46 -54 -46c-67 0 -129 20 -214 139c-6 -31 -36 -48 -55 -53c38 -26 54 -58 54 -97c0 -37 -16 -72 -33 -96
c-54 -74 -162 -134 -307 -134c-187 0 -277 97 -277 258z" />
    <glyph glyph-name="uni06430649.fj" horiz-adv-x="1848" 
d="M16 -54c69 -46 439 -168 797 -168c440 0 659 89 724 150c22 21 33 44 33 58c0 35 -33 57 -128 57h-72l25 89h45c132 0 146 33 146 49c0 13 -5 29 -72 106c-39 46 -106 111 -167 162c1 23 4 62 12 81c4 5 17 15 49 33c84 51 220 117 348 160l-16 -87
c-98 -31 -245 -101 -324 -148c94 -90 165 -161 266 -291c73 -98 126 -106 166 -106c30 0 54 -14 54 -45c0 -20 -10 -46 -54 -46c-67 0 -128 18 -213 139c-7 -34 -39 -48 -55 -53c39 -25 54 -52 55 -91c0 -39 -16 -72 -39 -99c-72 -91 -294 -203 -787 -203
c-329 0 -642 92 -754 154l-41 98z" />
    <glyph glyph-name="uni064306D2" horiz-adv-x="492" 
d="M254 -243c-155 0 -231 31 -231 119c0 53 32 99 74 130c55 40 141 73 205 103c40 20 70 41 70 64c0 46 -63 138 -269 276c2 22 5 65 13 83c3 5 15 15 40 29c83 50 228 123 355 165l-17 -88c-90 -32 -247 -102 -318 -146c130 -100 260 -201 260 -316
c0 -67 -40 -110 -111 -143c-26 -12 -100 -40 -158 -69c-49 -23 -81 -44 -81 -73c0 -32 39 -50 172 -50c287 0 482 14 666 32l-26 -81c-116 -19 -286 -35 -644 -35z" />
    <glyph glyph-name="uni064306D2.f" horiz-adv-x="603" 
d="M247 -243c-155 0 -224 33 -224 121c0 49 29 95 71 125c55 40 142 74 208 102c52 24 70 48 70 66c0 14 -11 37 -43 85c-49 71 -110 134 -166 189c1 15 8 74 11 81c2 5 16 17 48 35c85 46 258 119 393 161l-17 -88c-96 -30 -299 -110 -369 -150c110 -109 155 -174 249 -309
c55 -80 86 -81 125 -84c30 0 54 -14 54 -45c0 -20 -10 -46 -54 -46c-67 1 -113 12 -184 120c-12 -36 -42 -60 -94 -84c-26 -13 -103 -40 -161 -68c-49 -24 -78 -47 -78 -76c0 -32 32 -51 165 -51c287 0 522 14 706 32l-26 -81c-116 -18 -326 -35 -684 -35z" />
    <glyph glyph-name="uni064306D2.s" horiz-adv-x="492" 
d="M254 -243c-155 0 -231 31 -231 119c0 53 32 99 74 130c55 40 141 73 205 103c40 20 70 41 70 64c0 46 -63 138 -269 276c2 22 5 65 13 83c3 5 15 15 40 29c83 50 228 123 355 165l-17 -88c-90 -32 -247 -102 -318 -146c130 -100 260 -201 260 -316
c0 -67 -40 -110 -111 -143c-26 -12 -100 -40 -158 -69c-49 -23 -81 -44 -81 -73c0 -32 39 -50 172 -50c167 0 273 6 373 12l-25 -80c-66 -8 -158 -16 -352 -16z" />
    <glyph glyph-name="uni064306D2.fs" horiz-adv-x="603" 
d="M247 -243c-155 0 -224 33 -224 121c0 49 29 95 71 125c55 40 142 74 208 102c52 24 70 48 70 66c0 14 -11 37 -43 85c-49 71 -110 134 -166 189c1 15 8 74 11 81c2 5 16 17 48 35c85 46 258 119 393 161l-17 -88c-96 -30 -299 -110 -369 -150c110 -109 155 -174 249 -309
c55 -80 86 -81 125 -84c30 0 54 -14 54 -45c0 -20 -10 -46 -54 -46c-67 1 -113 12 -184 120c-12 -36 -42 -60 -94 -84c-26 -13 -103 -40 -161 -68c-49 -24 -78 -47 -78 -76c0 -32 32 -51 165 -51c171 0 314 5 418 12l-25 -81c-70 -7 -191 -15 -397 -15z" />
    <glyph glyph-name="uni06440649" horiz-adv-x="712" 
d="M50 -11c0 49 14 114 36 156l53 -10c-11 -40 -19 -80 -19 -124c0 -141 100 -194 222 -194c100 0 193 25 246 78c19 21 31 41 31 59c0 32 -32 46 -121 46h-93l25 91c85 0 107 47 104 132l-20 497l75 6l19 -482c3 -74 -8 -133 -48 -159c90 -16 122 -57 122 -119
c0 -33 -13 -73 -36 -103c-58 -77 -175 -132 -319 -132c-187 0 -277 98 -277 258z" />
    <glyph glyph-name="uni06440649.j" horiz-adv-x="1665" 
d="M16 -72c69 -45 395 -169 797 -169c421 0 664 86 727 148c22 22 28 42 28 56c0 25 -34 37 -123 37h-86l25 90c85 0 107 48 104 133l-21 497l75 6l19 -482c4 -74 -8 -133 -48 -160c88 -16 122 -48 122 -112c0 -36 -16 -70 -37 -98c-71 -91 -305 -200 -803 -200
c-371 0 -655 107 -740 155l-41 98z" />
    <glyph glyph-name="uni06440649.f" horiz-adv-x="901" 
d="M50 -11c0 49 14 114 36 156l53 -10c-11 -40 -21 -80 -21 -124c0 -141 102 -194 224 -194c100 0 193 23 245 76c18 21 32 42 32 61c0 33 -41 46 -131 46h-31l25 90h98c104 0 135 38 131 154l-19 476l75 6l19 -492c4 -92 35 -141 115 -143c29 0 53 -14 53 -45
c0 -20 -9 -46 -53 -46c-78 0 -127 31 -151 97c-16 -43 -47 -72 -91 -87c12 -13 20 -34 20 -56c0 -27 -13 -68 -34 -95c-59 -77 -174 -128 -318 -128c-187 0 -277 98 -277 258z" />
    <glyph glyph-name="uni06440649.fj" horiz-adv-x="1846" 
d="M16 -85c76 -46 420 -156 792 -156c453 0 656 86 725 148c22 22 31 41 31 54c0 28 -25 39 -129 39h-33l25 91h98c105 0 134 44 130 153l-18 476l75 6l19 -492c4 -92 34 -141 115 -143c28 0 53 -14 53 -45c0 -20 -10 -46 -53 -46c-77 0 -127 31 -152 97
c-13 -41 -45 -71 -83 -86c10 -9 17 -22 17 -43c0 -34 -16 -65 -37 -93c-77 -91 -291 -201 -801 -201c-335 0 -643 92 -735 141l-41 98z" />
    <glyph glyph-name="uni064406D2" horiz-adv-x="465" 
d="M232 -243c-143 0 -209 33 -209 113c0 39 14 80 66 119c28 21 66 43 117 65c75 33 95 55 90 138l-23 528l74 6l24 -520c7 -139 -30 -170 -125 -213c-37 -16 -73 -32 -99 -47c-40 -23 -61 -44 -61 -65s29 -40 149 -40c210 0 391 12 575 30l-26 -81
c-76 -15 -257 -33 -552 -33z" />
    <glyph glyph-name="uni064406D2.f" horiz-adv-x="484" 
d="M229 -243c-143 0 -206 33 -206 113c0 39 13 80 73 123c21 16 59 38 110 61c67 31 95 53 89 167l-18 499l74 6l18 -466c5 -126 35 -166 115 -169c29 0 53 -14 53 -45c0 -19 -9 -46 -53 -46c-74 0 -123 29 -149 92c-12 -63 -73 -92 -104 -106c-37 -16 -58 -25 -84 -40
c-40 -23 -61 -43 -61 -66c0 -21 27 -39 147 -39c209 0 420 12 604 30l-26 -81c-76 -14 -287 -33 -582 -33z" />
    <glyph glyph-name="uni064406D2.s" horiz-adv-x="465" 
d="M232 -243c-143 0 -209 33 -209 113c0 39 14 80 66 119c28 21 66 43 117 65c75 33 95 55 90 138l-23 528l74 6l24 -520c7 -139 -30 -170 -125 -213c-37 -16 -73 -32 -99 -47c-40 -23 -61 -44 -61 -65s29 -40 149 -40c141 0 249 6 369 14l-26 -81c-50 -7 -164 -17 -346 -17
z" />
    <glyph glyph-name="uni064406D2.fs" horiz-adv-x="484" 
d="M229 -243c-143 0 -206 33 -206 113c0 39 13 80 73 123c21 16 59 38 110 61c67 31 95 53 89 167l-18 499l74 6l18 -466c5 -126 35 -166 115 -169c29 0 53 -14 53 -45c0 -19 -9 -46 -53 -46c-74 0 -123 29 -149 92c-12 -63 -73 -92 -104 -106c-37 -16 -58 -25 -84 -40
c-40 -23 -61 -43 -61 -66c0 -21 27 -39 147 -39c111 0 221 4 318 10l-26 -81c-36 -6 -143 -13 -296 -13z" />
    <glyph glyph-name="uni0645406D2" horiz-adv-x="747" 
d="M436 209c37 -34 99 -68 152 -68c28 0 49 22 49 54c0 60 -50 129 -106 129c-38 0 -66 -21 -95 -115zM194 56c102 45 154 76 183 166c41 131 83 180 160 180c95 0 162 -116 162 -206c0 -83 -46 -142 -110 -142c-50 0 -117 19 -187 73c-28 -70 -89 -104 -184 -144
c-93 -39 -132 -70 -132 -97c0 -26 45 -45 179 -45c320 0 617 21 801 39l-26 -80c-116 -19 -473 -43 -775 -43c-158 0 -242 34 -242 117c0 50 20 115 171 182z" />
    <glyph glyph-name="uni064506D2.f" horiz-adv-x="780" 
d="M1133 -180l-26 -81c-116 -19 -507 -45 -842 -45c-158 0 -242 35 -242 118c0 49 20 111 171 178c102 46 154 76 183 167c41 130 83 179 160 179c85 0 147 -92 160 -176c27 -60 54 -69 83 -69s53 -14 53 -45c0 -20 -10 -46 -53 -46c-31 0 -71 12 -97 52
c-19 -40 -53 -64 -94 -64c-50 0 -117 20 -187 73c-28 -70 -118 -115 -184 -143c-93 -38 -132 -67 -132 -95c0 -26 45 -45 179 -45c320 0 684 24 868 42zM531 258c-38 0 -66 -21 -95 -115c37 -33 99 -67 152 -67c28 0 49 21 49 54c0 60 -50 128 -106 128z" />
    <glyph glyph-name="uni064506D2.s" horiz-adv-x="747" 
d="M436 209c37 -34 99 -68 152 -68c28 0 49 22 49 54c0 60 -50 129 -106 129c-38 0 -66 -21 -95 -115zM194 56c102 45 154 76 183 166c41 131 83 180 160 180c95 0 162 -116 162 -206c0 -83 -46 -142 -110 -142c-50 0 -117 19 -187 73c-28 -70 -89 -104 -184 -144
c-93 -39 -132 -70 -132 -97c0 -26 45 -45 179 -45c248 0 475 15 621 25l-26 -81c-94 -11 -366 -28 -595 -28c-158 0 -242 34 -242 117c0 50 20 115 171 182z" />
    <glyph glyph-name="uni064506D2.fs" horiz-adv-x="780" 
d="M843 -203l-25 -80c-76 -9 -337 -23 -553 -23c-158 0 -242 35 -242 118c0 49 20 111 171 178c102 46 154 76 183 167c41 130 83 179 160 179c85 0 147 -92 160 -176c27 -60 54 -69 83 -69s53 -14 53 -45c0 -20 -10 -46 -53 -46c-31 0 -71 12 -97 52
c-19 -40 -53 -64 -94 -64c-50 0 -117 20 -187 73c-28 -70 -118 -115 -184 -143c-93 -38 -132 -67 -132 -95c0 -26 45 -45 179 -45c214 0 453 11 578 19zM531 258c-38 0 -66 -21 -95 -115c37 -33 99 -67 152 -67c28 0 49 21 49 54c0 60 -50 128 -106 128z" />
    <glyph glyph-name="uni0647406D2" horiz-adv-x="760" 
d="M321 498l42 66c43 -30 118 -80 174 -124c100 -74 177 -155 177 -251c0 -95 -79 -163 -192 -163c-42 0 -84 9 -123 25c-55 -38 -123 -69 -196 -103c-74 -34 -115 -68 -115 -99c0 -35 43 -47 177 -47c320 0 617 21 801 39l-26 -81c-116 -18 -482 -42 -785 -42
c-158 0 -232 30 -232 118c0 112 129 167 188 197c44 22 81 42 113 61c-59 45 -99 107 -99 174c0 88 57 159 139 196zM293 281c0 -61 43 -109 101 -139c57 47 80 96 80 170c0 69 -39 103 -67 103c-39 0 -114 -51 -114 -134zM648 188c0 56 -47 117 -117 171c7 -27 8 -41 8 -59
c0 -80 -25 -138 -66 -186c18 -3 36 -5 54 -5c80 0 121 29 121 79z" />
    <glyph glyph-name="uni064706D2.f" horiz-adv-x="781" 
d="M782 0h-11c-69 0 -112 25 -139 53c-30 -17 -68 -27 -110 -27s-84 9 -123 25c-55 -38 -123 -69 -196 -103c-74 -34 -115 -68 -115 -98c0 -36 43 -47 177 -47c320 0 687 25 871 43l-26 -81c-116 -19 -528 -47 -855 -47c-157 0 -232 30 -232 118c0 113 129 168 188 198
c44 22 81 42 112 61c-58 44 -98 106 -98 173c0 88 57 159 139 196l-43 35l42 65c43 -30 118 -80 174 -123c100 -75 177 -156 177 -251c0 -29 -8 -56 -21 -79c21 -15 54 -21 89 -21c29 0 54 -13 54 -44c0 -20 -10 -46 -54 -46zM293 281c0 -61 43 -109 101 -138
c57 47 80 95 80 169c0 69 -39 103 -67 103c-39 0 -114 -50 -114 -134zM648 188c0 56 -47 117 -117 172c7 -28 8 -42 8 -60c0 -79 -24 -138 -66 -185c18 -3 36 -5 54 -5c80 0 121 28 121 78z" />
    <glyph glyph-name="uni064706D2.s" horiz-adv-x="760" 
d="M321 498l42 66c43 -30 118 -80 174 -124c100 -74 177 -155 177 -251c0 -95 -79 -163 -192 -163c-42 0 -84 9 -123 25c-55 -38 -123 -69 -196 -103c-74 -34 -115 -68 -115 -99c0 -35 43 -47 177 -47c255 0 484 13 634 26l-26 -80c-97 -15 -380 -30 -618 -30
c-158 0 -232 30 -232 118c0 112 129 167 188 197c44 22 81 42 113 61c-59 45 -99 107 -99 174c0 88 57 159 139 196zM293 281c0 -61 43 -109 101 -139c57 47 80 96 80 170c0 69 -39 103 -67 103c-39 0 -114 -51 -114 -134zM648 188c0 56 -47 117 -117 171c7 -27 8 -41 8 -59
c0 -80 -25 -138 -66 -186c18 -3 36 -5 54 -5c80 0 121 29 121 79z" />
    <glyph glyph-name="uni064706D2.fs" horiz-adv-x="781" 
d="M782 0h-11c-69 0 -112 25 -139 53c-30 -17 -68 -27 -110 -27s-84 9 -123 25c-55 -38 -123 -69 -196 -103c-74 -34 -115 -68 -115 -98c0 -36 43 -47 177 -47c215 0 457 11 583 19l-26 -80c-77 -10 -356 -24 -567 -24c-157 0 -232 30 -232 118c0 113 129 168 188 198
c44 22 81 42 112 61c-58 44 -98 106 -98 173c0 88 57 159 139 196l-43 35l42 65c43 -30 118 -80 174 -123c100 -75 177 -156 177 -251c0 -29 -8 -56 -21 -79c21 -15 54 -21 89 -21c29 0 54 -13 54 -44c0 -20 -10 -46 -54 -46zM293 281c0 -61 43 -109 101 -138
c57 47 80 95 80 169c0 69 -39 103 -67 103c-39 0 -114 -50 -114 -134zM648 188c0 56 -47 117 -117 172c7 -28 8 -42 8 -60c0 -79 -24 -138 -66 -185c18 -3 36 -5 54 -5c80 0 121 28 121 78z" />
    <glyph glyph-name="uni064706D2.fa" horiz-adv-x="764" 
d="M764 0h-105c39 -27 62 -58 62 -104c0 -86 -76 -140 -147 -140c-132 0 -198 116 -214 226c-93 -26 -173 -74 -231 -127c-47 -43 -69 -85 -69 -113c0 -39 39 -61 192 -61c320 -1 681 21 865 39l-26 -80c-116 -19 -546 -44 -850 -44c-184 0 -246 57 -246 142
c0 55 33 124 86 177c80 83 167 129 269 159c3 1 5 2 8 2c12 123 78 254 140 346h26c48 -54 141 -157 141 -243c0 -30 -10 -61 -26 -88h125c29 0 53 -14 53 -45c0 -19 -9 -46 -53 -46zM511 322c-32 -53 -73 -136 -85 -233c24 2 45 2 65 2c66 0 110 29 110 70
c0 49 -43 114 -90 161zM576 -169c48 0 79 25 79 66c0 40 -51 103 -176 103c-19 0 -36 -2 -53 -4c12 -91 67 -165 150 -165z" />
    <glyph glyph-name="uni064706D2.fsa" horiz-adv-x="764" 
d="M764 0h-105c39 -27 62 -58 62 -104c0 -86 -76 -140 -147 -140c-132 0 -198 116 -214 226c-93 -26 -173 -74 -231 -127c-47 -43 -69 -85 -69 -113c0 -39 39 -61 192 -61c223 0 465 10 596 19l-25 -80c-81 -10 -375 -24 -582 -24c-184 0 -246 57 -246 142
c0 55 33 124 86 177c80 83 167 129 269 159c3 1 5 2 8 2c12 123 78 254 140 346h26c48 -54 141 -157 141 -243c0 -30 -10 -61 -26 -88h125c29 0 53 -14 53 -45c0 -19 -9 -46 -53 -46zM511 322c-32 -53 -73 -136 -85 -233c24 2 45 2 65 2c66 0 110 29 110 70
c0 49 -43 114 -90 161zM576 -169c48 0 79 25 79 66c0 40 -51 103 -176 103c-19 0 -36 -2 -53 -4c12 -91 67 -165 150 -165z" />
    <glyph glyph-name="uni06490631.f" horiz-adv-x="743" 
d="M48 -110c36 -23 77 -33 125 -33c86 0 174 73 174 166c0 47 -23 117 -87 219l72 27c34 -60 66 -74 116 -74c61 0 115 32 124 89l63 6c-6 -32 -9 -61 -9 -80c0 -89 49 -117 117 -119c30 0 54 -14 54 -45c0 -20 -10 -46 -54 -46c-92 0 -173 44 -177 161
c-26 -34 -80 -49 -124 -49c-16 0 -34 4 -44 6c10 -34 14 -81 14 -99c0 -120 -94 -251 -236 -251c-55 0 -111 19 -141 54z" />
    <glyph glyph-name="uni064906BA.f" horiz-adv-x="905" 
d="M50 32c0 56 19 121 38 158l57 -9c-14 -44 -24 -88 -24 -132c0 -106 69 -176 180 -176c143 0 204 99 204 167c0 50 -29 130 -75 223l71 32c34 -70 55 -99 124 -99c61 0 102 33 110 90l62 4c-6 -32 -10 -64 -10 -84c0 -89 53 -113 118 -115c29 0 53 -14 53 -45
c0 -20 -10 -46 -53 -46c-93 0 -173 45 -176 161c-25 -36 -68 -47 -112 -47c-21 0 -44 5 -58 11c6 -22 12 -56 12 -78c0 -42 -12 -85 -31 -123c-48 -89 -141 -140 -249 -140c-152 0 -241 100 -241 248z" />
    <glyph glyph-name="uni064906BA.fj" horiz-adv-x="1943" 
d="M35 -19c170 -71 416 -136 771 -136c373 0 676 79 730 159c6 9 8 29 8 43c0 42 -28 126 -74 220l70 31c34 -75 52 -100 122 -100c62 0 103 31 111 88l63 4c-5 -31 -9 -64 -9 -84c0 -89 53 -113 116 -115c30 0 54 -14 54 -45c0 -20 -10 -46 -54 -46c-92 0 -173 46 -176 161
c-28 -32 -71 -45 -116 -45c-21 0 -44 5 -55 10c7 -25 12 -62 12 -80c0 -45 -7 -70 -14 -82c-67 -114 -387 -210 -802 -210c-338 0 -588 66 -712 129l-47 95z" />
    <glyph glyph-name="uni06490649" horiz-adv-x="696" 
d="M50 17c0 49 14 114 36 156l55 -10c-11 -40 -20 -80 -20 -124c0 -141 99 -195 220 -195c107 0 190 35 236 83c11 13 27 36 27 53c0 40 -47 64 -140 64h-60l29 83h13c68 1 100 27 100 60c0 53 -45 124 -92 186l69 35c42 -58 90 -146 90 -210c0 -25 -7 -66 -53 -89
c72 -23 107 -70 107 -119c0 -34 -14 -72 -34 -99c-55 -71 -162 -132 -307 -132c-187 0 -276 97 -276 258z" />
    <glyph glyph-name="uni06490649.j" horiz-adv-x="1665" 
d="M14 -52c69 -46 413 -170 797 -170c448 0 661 85 726 147c22 21 33 47 33 60c0 42 -46 58 -139 58h-58l25 84h16c68 1 98 27 98 60c0 53 -42 124 -89 186l69 35c41 -58 89 -146 89 -210c0 -25 -3 -63 -48 -87c68 -21 102 -58 102 -114c0 -40 -16 -76 -38 -103
c-74 -92 -289 -201 -786 -201c-395 0 -673 106 -757 155l-41 98z" />
    <glyph glyph-name="uni06490649.f" horiz-adv-x="864" 
d="M50 -60c0 72 19 122 41 167l55 -8c-16 -42 -25 -90 -25 -121c0 -140 96 -189 222 -189c74 0 180 23 235 88c7 7 19 22 19 39s-15 28 -72 43l-61 15c-82 21 -107 49 -107 104c0 36 23 98 78 145c45 38 110 70 190 70c94 0 111 -54 115 -70c1 -6 3 -14 3 -19
c1 -62 40 -113 121 -113c29 0 53 -14 53 -45c0 -20 -9 -46 -53 -46c-117 0 -177 72 -179 160c0 3 0 6 -1 10c-5 24 -25 45 -72 45c-123 0 -187 -80 -187 -120c0 -20 11 -30 69 -44l54 -12c90 -22 118 -46 118 -99c0 -55 -35 -98 -43 -107c-68 -84 -188 -126 -313 -126
c-169 0 -260 92 -260 233z" />
    <glyph glyph-name="uni06490649.fj" horiz-adv-x="1853" 
d="M12 -87c125 -64 448 -167 860 -167c456 0 720 110 720 177c0 14 -15 27 -81 38l-113 18c-86 15 -106 57 -106 101c0 40 21 91 74 137c46 41 122 76 222 76c107 0 132 -51 139 -74c2 -7 3 -11 5 -17c16 -64 40 -111 121 -111c29 0 53 -14 53 -45c0 -20 -10 -46 -53 -46
c-117 0 -160 70 -178 157c-1 6 -2 9 -3 13c-7 28 -44 47 -99 47c-139 0 -214 -77 -214 -120c0 -20 12 -33 71 -41l107 -17c90 -13 125 -39 125 -97c0 -154 -301 -282 -804 -282c-427 0 -732 109 -806 155l-41 96z" />
    <glyph glyph-name="uni0649406D2" horiz-adv-x="533" 
d="M238 -251c-154 0 -215 39 -215 126c0 58 43 117 115 159c54 32 124 62 179 89c50 24 74 36 85 48c5 6 7 13 7 33c-2 86 -36 177 -74 240l73 30c31 -58 71 -175 71 -270c0 -26 0 -47 -10 -68c-18 -38 -61 -55 -137 -93c-51 -24 -82 -37 -146 -67c-50 -24 -98 -60 -98 -92
s34 -50 161 -50c311 0 582 19 766 37l-26 -81c-116 -19 -448 -41 -751 -41z" />
    <glyph glyph-name="uni06C106D2.f" horiz-adv-x="620" 
d="M252 -250c-155 0 -229 37 -229 125c0 58 41 115 114 157c54 32 126 62 180 91c81 45 112 76 130 133l59 5c-2 -16 -3 -35 -3 -47c0 -63 21 -121 117 -124c30 0 54 -13 54 -44c0 -20 -10 -46 -54 -46c-87 0 -157 36 -171 151c-25 -49 -70 -78 -119 -105
c-43 -23 -80 -39 -144 -70c-50 -23 -98 -61 -98 -94c0 -32 40 -48 175 -48c311 0 568 19 752 38l-26 -81c-116 -19 -433 -41 -737 -41z" />
    <glyph glyph-name="uni06C106D2.s" horiz-adv-x="533" 
d="M238 -251c-154 0 -215 39 -215 126c0 58 43 117 115 159c44 28 100 56 145 82c50 25 74 36 85 48c5 6 7 13 7 33c-2 89 -36 182 -74 247l73 30c31 -59 71 -179 71 -277c0 -26 0 -47 -10 -68c-18 -38 -61 -55 -137 -93c-38 -21 -62 -33 -112 -60c-50 -24 -98 -60 -98 -92
s34 -50 161 -50c175 0 315 9 423 14l-26 -81c-74 -7 -240 -18 -408 -18z" />
    <glyph glyph-name="uni06C106D2.fs" horiz-adv-x="620" 
d="M252 -250c-155 0 -229 37 -229 125c0 58 41 115 114 157c54 32 126 62 180 91c81 45 112 76 130 133l59 5c-2 -16 -3 -35 -3 -47c0 -63 21 -121 117 -124c30 0 54 -13 54 -44c0 -20 -10 -46 -54 -46c-87 0 -157 36 -171 151c-25 -49 -70 -78 -119 -105
c-43 -23 -80 -39 -144 -70c-50 -23 -98 -61 -98 -94c0 -32 40 -48 175 -48c185 0 313 7 425 15l-26 -81c-74 -9 -232 -18 -410 -18z" />
    <glyph glyph-name="uni06C106D2" horiz-adv-x="768" 
d="M584 -276l58 -23c-24 -32 -45 -64 -45 -110c0 -35 16 -73 45 -105l-62 -31c-25 23 -54 77 -54 133c0 52 22 95 58 136zM255 -250c-156 0 -232 37 -232 125c0 58 41 115 114 157c54 32 126 62 180 91c74 37 103 64 120 110l59 5c-2 -13 -3 -34 -3 -46
c0 -60 22 -104 81 -104c44 0 76 32 76 77c0 35 -14 86 -33 123l73 21c13 -25 24 -75 24 -130c0 -114 -60 -179 -140 -179c-70 0 -124 43 -134 134c-24 -42 -64 -64 -110 -88c-43 -23 -80 -39 -144 -70c-50 -23 -98 -61 -98 -94c0 -32 40 -48 174 -48c312 0 679 19 863 38
l-26 -81c-116 -19 -541 -41 -844 -41z" />
    <glyph glyph-name="uni064906D2.f" horiz-adv-x="764" 
d="M243 -404c-184 0 -248 61 -248 146c0 55 26 112 81 163c70 64 164 112 233 155c81 49 146 91 197 192l66 -12c-58 -105 -77 -189 -77 -246c0 -72 23 -119 73 -170l5 3c-7 27 -13 62 -13 95c0 118 56 169 152 168h47c30 0 54 -13 54 -44c0 -20 -10 -46 -54 -46h-46
c-63 0 -90 -25 -90 -99c0 -56 9 -92 21 -128l-75 -46c-110 78 -162 188 -139 326c-53 -51 -218 -136 -302 -204c-51 -40 -68 -76 -68 -104c0 -40 39 -64 192 -64c311 0 678 19 862 37l-26 -81c-116 -19 -530 -41 -845 -41z" />
    <glyph glyph-name="uni064906D2.s" horiz-adv-x="768" 
d="M584 -276l58 -23c-24 -32 -45 -64 -45 -110c0 -35 16 -73 45 -105l-62 -31c-25 23 -54 77 -54 133c0 52 22 95 58 136zM255 -250c-156 0 -232 37 -232 125c0 58 41 115 114 157c54 32 126 62 180 91c74 37 103 64 120 110l59 5c-2 -13 -3 -34 -3 -46
c0 -60 22 -104 81 -104c44 0 76 32 76 77c0 35 -14 86 -33 123l73 21c13 -25 24 -75 24 -130c0 -114 -60 -179 -140 -179c-70 0 -124 43 -134 134c-24 -42 -64 -64 -110 -88c-43 -23 -80 -39 -144 -70c-50 -23 -98 -61 -98 -94c0 -32 40 -48 174 -48c230 0 505 14 645 28
l-26 -81c-88 -14 -403 -31 -626 -31z" />
    <glyph glyph-name="uni064906D2.fs" horiz-adv-x="764" 
d="M243 -404c-184 0 -248 61 -248 146c0 55 26 112 81 163c70 64 164 112 233 155c81 49 146 91 197 192l66 -12c-58 -105 -77 -189 -77 -246c0 -72 23 -119 73 -170l5 3c-7 27 -13 62 -13 95c0 118 56 169 152 168h47c30 0 54 -13 54 -44c0 -20 -10 -46 -54 -46h-46
c-63 0 -90 -25 -90 -99c0 -56 9 -92 21 -128l-75 -46c-110 78 -162 188 -139 326c-53 -51 -218 -136 -302 -204c-51 -40 -68 -76 -68 -104c0 -40 39 -64 192 -64c231 0 499 9 638 17l-25 -81c-85 -9 -393 -21 -622 -21z" />
    <glyph glyph-name="uni0641064E0644065006440647" horiz-adv-x="1233" 
d="M583 822l-59 -16l-19 168l68 18zM633 784l43 17c17 -37 20 -66 20 -87c0 -63 -39 -95 -74 -95c-18 0 -38 10 -53 30c-16 -42 -50 -63 -72 -63c-47 0 -58 41 -58 83c0 14 3 33 7 49l42 15c-3 -18 -5 -42 -5 -58c0 -24 9 -36 23 -36c21 0 43 21 36 112l39 15
c5 -73 17 -96 42 -96c15 0 30 10 30 39c-1 20 -3 35 -20 75zM1126 726l28 -726h-76l-27 720zM888 598l17 -379c6 -152 -44 -219 -165 -219c-66 0 -116 32 -135 97c-28 -63 -74 -97 -151 -97c-53 0 -109 13 -136 88c-35 -19 -89 -28 -119 -28c-90 0 -152 48 -152 122
c0 62 32 111 96 163c34 28 95 60 149 85l-2 69l69 6l11 -290c5 -103 38 -124 90 -124c69 0 102 45 98 168l-11 270l75 7l11 -276c4 -126 37 -169 103 -169c69 0 97 36 93 129l-16 371zM301 185l-6 172c-133 -54 -179 -115 -179 -155s40 -59 95 -59c29 0 66 7 92 17
c-1 8 -2 16 -2 25z" />
    <glyph glyph-name="uni064406440647" horiz-adv-x="995" 
d="M583 822l-59 -16l-19 168l68 18zM633 784l43 17c17 -37 20 -66 20 -87c0 -63 -39 -95 -74 -95c-18 0 -38 10 -53 30c-16 -42 -50 -63 -72 -63c-47 0 -58 41 -58 83c0 14 3 33 7 49l42 15c-3 -18 -5 -42 -5 -58c0 -24 9 -36 23 -36c21 0 43 21 36 112l39 15
c5 -73 17 -96 42 -96c15 0 30 10 30 39c-1 20 -3 35 -20 75zM888 598l17 -379c6 -152 -44 -219 -165 -219c-66 0 -116 32 -135 97c-28 -63 -74 -97 -151 -97c-53 0 -109 13 -136 88c-35 -19 -89 -28 -119 -28c-90 0 -152 48 -152 122c0 62 32 111 96 163c34 28 95 60 149 85
l-2 69l69 6l11 -290c5 -103 38 -124 90 -124c69 0 102 45 98 168l-11 270l75 7l11 -276c4 -126 37 -169 103 -169c69 0 97 36 93 129l-16 371zM301 185l-6 172c-133 -54 -179 -115 -179 -155s40 -59 95 -59c29 0 66 7 92 17c-1 8 -2 16 -2 25z" />
    <glyph glyph-name="uni0640" unicode="&#x640;" horiz-adv-x="265" 
d="M0 91h265c41 0 50 -25 50 -46c0 -19 -11 -45 -50 -45h-265c-41 0 -50 25 -50 47c0 18 11 44 50 44z" />
    <glyph glyph-name="uni0640.s" horiz-adv-x="129" 
d="M129 0h-129c-41 0 -50 25 -50 47c0 18 11 44 50 44h129c41 0 50 -25 50 -46c0 -19 -11 -45 -50 -45z" />
    <glyph glyph-name="uni0640.l" horiz-adv-x="530" 
d="M0 91h530c41 0 50 -25 50 -46c0 -19 -11 -45 -50 -45h-530c-41 0 -50 25 -50 47c0 18 11 44 50 44z" />
    <glyph glyph-name="uni064E" unicode="&#x64e;" 
d="M-35 766l-10 55c87 26 187 60 255 89l11 -58c-71 -31 -175 -63 -256 -86z" />
    <glyph glyph-name="uni064B" unicode="&#x64b;" 
d="M-35 766l-10 55c83 26 187 59 255 89l11 -58c-71 -31 -174 -63 -256 -86zM-40 892l-10 55c88 28 187 59 255 89l11 -58c-71 -30 -177 -64 -256 -86z" />
    <glyph glyph-name="uni064F" unicode="&#x64f;" 
d="M39 783c-29 0 -53 6 -64 14v39c18 -5 38 -6 53 -6c34 0 82 15 99 43c-63 -4 -113 26 -113 86c0 51 40 91 92 91c36 0 88 -31 88 -108c0 -104 -83 -159 -155 -159zM149 915c7 48 -11 88 -54 88c-21 0 -40 -16 -40 -38c0 -26 25 -55 94 -50z" />
    <glyph glyph-name="uni064C" unicode="&#x64c;" 
d="M-17 770c-8 0 -20 1 -26 1c7 28 13 73 13 97s-10 28 -20 28s-33 -4 -55 -20l6 50c22 17 45 23 63 23c32 0 50 -22 50 -70c0 -17 -2 -38 -5 -53c43 0 100 15 127 47c-60 4 -105 44 -105 93c0 58 44 94 92 94c39 0 85 -34 85 -112c0 -128 -114 -178 -225 -178zM162 923
c8 35 -8 89 -50 89c-23 0 -40 -15 -40 -37c0 -30 34 -53 90 -52z" />
    <glyph glyph-name="uni0651" unicode="&#x651;" 
d="M18 781c-51 0 -65 42 -65 87c0 17 3 38 7 53l42 17c-3 -17 -5 -44 -5 -61c0 -25 10 -39 25 -39c23 0 48 23 42 119l40 16c3 -78 22 -99 46 -99c16 0 31 12 31 41c-1 20 -5 42 -21 77l46 19c17 -41 20 -75 20 -96c0 -61 -36 -98 -73 -98c-19 0 -43 9 -57 33
c-16 -47 -56 -69 -78 -69z" />
    <glyph glyph-name="uni0652" unicode="&#x652;" 
d="M93 796c-59 0 -100 36 -101 98c0 63 43 127 101 127s100 -65 100 -127s-42 -98 -100 -98zM93 845c32 0 55 17 55 51c0 41 -25 75 -55 75c-31 0 -56 -31 -56 -75c0 -31 23 -51 56 -51z" />
    <glyph glyph-name="uni0653" unicode="&#x653;" 
d="M-6 789l-49 16c1 47 27 91 81 91c48 0 84 -26 126 -26c22 0 43 9 70 33l9 -45c-17 -30 -51 -47 -88 -47c-45 0 -79 25 -113 25c-11 0 -30 -5 -36 -47z" />
    <glyph glyph-name="uni0654" unicode="&#x654;" 
d="M-13 790l6 47c9 5 31 12 46 12c-15 10 -36 29 -36 62c0 55 48 85 102 85c44 0 72 -14 86 -26l-16 -46c-17 13 -46 22 -72 22c-34 0 -51 -19 -51 -36c0 -32 37 -52 88 -52h66l-21 -51h-65c-36 0 -95 -1 -133 -17z" />
    <glyph glyph-name="uni0670" unicode="&#x670;" 
d="M67 797l-17 241l68 5l9 -242z" />
    <glyph glyph-name="uni0657" unicode="&#x657;" 
d="M72 791c-29 0 -70 25 -70 94c0 95 87 167 179 167l12 -45c-56 -2 -117 -32 -133 -85c48 5 79 -20 79 -64c0 -45 -28 -67 -67 -67z" />
    <glyph glyph-name="uni0658" unicode="&#x658;" 
d="M91 796c-59 0 -108 40 -116 147l45 11c7 -65 32 -96 77 -96c46 0 64 38 78 105l44 -5c-9 -107 -56 -162 -128 -162z" />
    <glyph glyph-name="uni0615" unicode="&#x615;" 
d="M-8 791l-28 54l58 -4c10 20 12 46 10 79l-12 164l45 4l7 -115c1 -18 2 -40 -1 -57c30 45 64 63 100 63c43 0 68 -33 68 -72c0 -87 -89 -116 -178 -116h-69zM64 842c105 0 131 29 131 57c0 16 -12 30 -34 30c-31 0 -61 -23 -97 -87z" />
    <glyph glyph-name="uni0659" unicode="&#x659;" 
d="M-30 795l10 59h249l-10 -59h-249z" />
    <glyph glyph-name="uni065A" unicode="&#x65a;" 
d="M70 795c-16 36 -52 95 -104 160l44 34c40 -46 72 -98 88 -126c20 33 48 76 92 129l39 -31c-50 -64 -86 -123 -108 -166h-51z" />
    <glyph glyph-name="uni065B" unicode="&#x65b;" 
d="M6 782l-40 31c50 64 87 123 108 166h52c15 -36 51 -95 103 -160l-44 -34c-40 46 -72 98 -88 126c-20 -33 -48 -76 -91 -129z" />
    <glyph glyph-name="uni065D" unicode="&#x65d;" 
d="M135 783c-70 0 -160 46 -160 154c0 76 53 113 96 113c51 0 87 -39 87 -91c0 -49 -42 -88 -108 -91c34 -31 88 -42 146 -35l-4 -38c-14 -7 -32 -12 -57 -12zM23 909c58 2 92 23 92 53c0 22 -20 41 -42 41c-25 0 -52 -19 -52 -70c0 -8 1 -19 2 -24z" />
    <glyph glyph-name="uni065E" unicode="&#x65e;" 
d="M3 792l-25 33l214 197l27 -32zM19 948c-22 0 -36 14 -36 37c0 22 14 38 36 38s36 -16 36 -38c0 -23 -14 -37 -36 -37zM175 786c-20 0 -35 16 -35 39c0 22 16 38 36 38c22 0 36 -16 36 -38c0 -23 -14 -39 -37 -39z" />
    <glyph glyph-name="uni06510670" 
d="M57 997l-17 173l53 13l10 -173zM24 781c-45 0 -59 43 -59 77c0 16 3 37 9 50l41 15c-4 -22 -6 -38 -6 -53c0 -24 11 -34 22 -34c22 0 42 16 36 104l39 15c5 -71 19 -89 42 -89c15 0 28 13 28 35c-1 19 -1 32 -18 71l42 17c14 -29 17 -60 17 -86c0 -50 -30 -90 -70 -90
c-17 0 -38 6 -51 30c-15 -41 -45 -62 -72 -62z" />
    <glyph glyph-name="uni064E0651" 
d="M-34 978l-10 47c87 27 167 54 229 82l9 -51c-80 -33 -149 -55 -228 -78zM24 781c-45 0 -59 43 -59 77c0 16 3 37 9 50l41 15c-4 -22 -6 -38 -6 -53c0 -24 11 -34 22 -34c22 0 42 16 36 104l39 15c5 -71 19 -89 42 -89c15 0 28 13 28 35c-1 19 -1 32 -18 71l42 17
c14 -29 17 -60 17 -86c0 -50 -30 -90 -70 -90c-17 0 -38 6 -51 30c-15 -41 -45 -62 -72 -62z" />
    <glyph glyph-name="uni064B0651" 
d="M-34 978l-10 47c87 27 167 54 229 82l9 -51c-80 -33 -149 -55 -228 -78zM-34 1091l-8 46c90 30 163 55 227 83l9 -49c-80 -35 -153 -58 -228 -80zM24 781c-45 0 -59 43 -59 77c0 16 3 37 9 50l41 15c-4 -22 -6 -38 -6 -53c0 -24 11 -34 22 -34c22 0 42 16 36 104l39 15
c5 -71 19 -89 42 -89c15 0 28 13 28 35c-1 19 -1 32 -18 71l42 17c14 -29 17 -60 17 -86c0 -50 -30 -90 -70 -90c-17 0 -38 6 -51 30c-15 -41 -45 -62 -72 -62z" />
    <glyph glyph-name="uni064F0651" 
d="M27 996c-25 0 -47 7 -57 13l5 39c17 -5 34 -7 47 -7c32 0 61 6 81 29c-57 2 -97 38 -97 81c0 49 38 85 85 85c34 0 80 -29 80 -98c0 -99 -79 -142 -144 -142zM128 1112c7 37 -8 81 -48 81c-18 0 -35 -15 -35 -35c0 -23 26 -43 83 -46zM24 781c-45 0 -59 43 -59 77
c0 16 3 37 9 50l41 15c-4 -22 -6 -38 -6 -53c0 -24 11 -34 22 -34c22 0 42 16 36 104l39 15c5 -71 19 -89 42 -89c15 0 28 13 28 35c-1 19 -1 32 -18 71l42 17c14 -29 17 -60 17 -86c0 -50 -30 -90 -70 -90c-17 0 -38 6 -51 30c-15 -41 -45 -62 -72 -62z" />
    <glyph glyph-name="uni064C0651" 
d="M-12 983h-19c5 23 13 59 13 80s-10 24 -18 24c-9 0 -29 -4 -49 -18l6 47c18 16 37 21 53 21c31 0 45 -22 45 -60c0 -14 -2 -31 -4 -43c37 0 77 9 107 38c-53 4 -90 38 -90 80c0 48 38 81 80 81c33 0 75 -27 75 -92c0 -115 -115 -158 -199 -158zM144 1117
c6 31 -6 73 -40 73c-20 0 -33 -15 -33 -31c0 -25 25 -42 73 -42zM24 781c-45 0 -59 43 -59 77c0 16 3 37 9 50l41 15c-4 -22 -6 -38 -6 -53c0 -24 11 -34 22 -34c22 0 42 16 36 104l39 15c5 -71 19 -89 42 -89c15 0 28 13 28 35c-1 19 -1 32 -18 71l42 17
c14 -29 17 -60 17 -86c0 -50 -30 -90 -70 -90c-17 0 -38 6 -51 30c-15 -41 -45 -62 -72 -62z" />
    <glyph glyph-name="uni06500651" 
d="M6 895c-45 0 -58 44 -58 78c0 15 3 36 8 50l40 14c-5 -19 -6 -39 -6 -55c0 -24 13 -35 24 -35c22 0 40 20 35 107l36 16c5 -71 18 -92 42 -92c15 0 29 12 29 39c-1 18 -1 30 -18 70l41 18c14 -31 17 -66 17 -88c0 -55 -33 -92 -69 -92c-18 0 -37 7 -50 31
c-16 -41 -45 -61 -71 -61zM-22 771l-10 47c76 20 171 56 230 79l9 -49c-60 -26 -172 -63 -229 -77z" />
    <glyph glyph-name="uni064D0651" 
d="M-30 761l-9 46c87 29 167 54 229 82l9 -51c-80 -33 -148 -54 -229 -77zM-30 874l-7 46c90 30 163 54 227 82l9 -49c-80 -33 -153 -56 -229 -79zM-2 1001c-45 0 -58 43 -58 77c0 15 3 35 8 49l40 14c-5 -19 -6 -37 -6 -53c0 -24 13 -35 24 -35c22 0 40 18 35 105l36 16
c5 -72 18 -90 42 -90c15 0 29 13 29 37c-1 19 -2 32 -18 70l41 17c14 -30 17 -64 17 -86c0 -55 -34 -91 -70 -91c-18 0 -36 7 -49 31c-16 -41 -45 -61 -71 -61z" />
    <glyph glyph-name="uni0654064E" 
d="M-31 1012l-9 51c86 28 167 55 229 82l9 -55c-80 -33 -149 -55 -229 -78zM-13 790l7 49c8 5 30 12 45 12c-14 10 -36 27 -36 60c0 55 50 87 104 87c44 0 71 -14 84 -26l-15 -48c-17 13 -45 24 -71 24c-34 0 -53 -21 -53 -38c0 -32 37 -52 89 -52h66l-21 -51h-65
c-36 0 -95 -1 -134 -17z" />
    <glyph glyph-name="uni0654064B" 
d="M-22 1028l-8 46c86 28 153 50 215 77l9 -50c-80 -33 -135 -51 -216 -73zM-22 1140l-7 47c90 29 150 50 214 79l9 -51c-80 -33 -140 -52 -216 -75zM-13 790l7 49c8 5 30 12 45 12c-14 10 -36 27 -36 60c0 55 50 87 104 87c44 0 71 -14 84 -26l-15 -48
c-17 13 -45 24 -71 24c-34 0 -53 -21 -53 -38c0 -32 37 -52 89 -52h66l-21 -51h-65c-36 0 -95 -1 -134 -17z" />
    <glyph glyph-name="uni0654064F" 
d="M31 1040c-26 0 -48 8 -58 14l5 39c17 -5 34 -7 47 -7c32 0 58 7 81 29c-57 1 -96 38 -96 81c0 49 39 85 86 85c34 0 78 -30 78 -99c0 -99 -79 -142 -143 -142zM131 1157c9 38 -8 81 -47 81c-19 0 -35 -16 -35 -35c0 -23 25 -43 82 -46zM-13 790l7 49c8 5 30 12 45 12
c-14 10 -36 27 -36 60c0 55 50 87 104 87c44 0 71 -14 84 -26l-15 -48c-17 13 -45 24 -71 24c-34 0 -53 -21 -53 -38c0 -32 37 -52 89 -52h66l-21 -51h-65c-36 0 -95 -1 -134 -17z" />
    <glyph glyph-name="uni0654064C" 
d="M-4 1037h-18c5 24 13 61 13 82c0 23 -9 26 -19 26c-9 0 -30 -4 -50 -19l5 49c18 16 38 21 54 21c27 0 48 -19 48 -64c0 -15 -2 -31 -3 -44c38 0 79 11 111 42c-55 4 -94 38 -94 83c0 50 39 84 83 84c34 0 78 -28 78 -96c0 -120 -116 -164 -208 -164zM159 1176
c7 31 -5 77 -42 77c-20 0 -34 -17 -34 -33c0 -26 27 -45 76 -44zM-13 790l7 49c8 5 30 12 45 12c-14 10 -36 27 -36 60c0 55 50 87 104 87c44 0 71 -14 84 -26l-15 -48c-17 13 -45 24 -71 24c-34 0 -53 -21 -53 -38c0 -32 37 -52 89 -52h66l-21 -51h-65
c-36 0 -95 -1 -134 -17z" />
    <glyph glyph-name="uni06540652" 
d="M86 1050c-54 0 -93 32 -93 89c0 58 40 117 93 117c52 0 91 -60 91 -117c0 -56 -39 -89 -91 -89zM86 1096c28 0 50 15 50 45c0 35 -24 68 -50 68c-27 0 -52 -27 -52 -68c0 -27 22 -45 52 -45zM-13 790l7 49c8 5 30 12 45 12c-14 10 -36 27 -36 60c0 55 50 87 104 87
c44 0 71 -14 84 -26l-15 -48c-17 13 -45 24 -71 24c-34 0 -53 -21 -53 -38c0 -32 37 -52 89 -52h66l-21 -51h-65c-36 0 -95 -1 -134 -17z" />
    <glyph glyph-name="uni0650" unicode="&#x650;" 
d="M118 -4l11 -58c-70 -30 -173 -62 -256 -86l-11 55c91 29 188 59 256 89z" />
    <glyph glyph-name="uni064D" unicode="&#x64d;" 
d="M123 -130l11 -58c-72 -30 -173 -62 -256 -86l-11 55c91 29 188 59 256 89zM118 -4l11 -58c-72 -30 -173 -62 -256 -86l-11 55c91 29 188 59 256 89z" />
    <glyph glyph-name="uni0655" unicode="&#x655;" 
d="M21 -25c44 0 72 -14 86 -27l-16 -46c-17 13 -46 23 -72 23c-34 0 -51 -20 -51 -36c0 -33 37 -53 88 -53h66l-21 -50h-65c-36 0 -95 -2 -133 -17l6 47c8 5 31 11 45 11c-14 11 -35 29 -35 63c0 55 48 85 102 85z" />
    <glyph glyph-name="uni0656" unicode="&#x656;" 
d="M31 -23l9 -242l-60 -5l-17 242z" />
    <glyph glyph-name="uni065C" unicode="&#x65c;" 
d="M1 -17c31 0 51 -23 51 -54c0 -34 -20 -55 -52 -55c-30 0 -51 21 -51 55c0 31 21 54 52 54z" />
    <glyph glyph-name="uni06550650" 
d="M126 -242l8 -55c-54 -18 -165 -41 -227 -51l-9 53c66 13 173 36 228 53zM19 -14c43 0 72 -14 85 -26l-15 -47c-17 13 -46 23 -72 23c-34 0 -52 -21 -52 -38c0 -32 37 -52 89 -52h66l-21 -51h-65c-36 0 -95 -1 -134 -17l7 48c8 5 30 11 45 12c-14 10 -36 28 -36 61
c0 55 49 87 103 87z" />
    <glyph glyph-name="uni0655064D" 
d="M126 -242l8 -50c-54 -17 -165 -41 -227 -52l-9 49c66 13 173 36 228 53zM127 -358l8 -53c-54 -18 -164 -42 -227 -52l-9 48c66 13 172 39 228 57zM19 -14c43 0 72 -14 85 -26l-15 -47c-17 13 -46 23 -72 23c-34 0 -52 -21 -52 -38c0 -32 37 -52 89 -52h66l-21 -51h-65
c-36 0 -95 -1 -134 -17l7 48c8 5 30 11 45 12c-14 10 -36 28 -36 61c0 55 49 87 103 87z" />
    <glyph glyph-name="uni0660" unicode="&#x660;" horiz-adv-x="262" 
d="M131 223c-49 0 -83 33 -83 85s34 87 84 87c47 0 82 -35 82 -87s-35 -85 -82 -85h-1z" />
    <glyph glyph-name="uni0661" unicode="&#x661;" horiz-adv-x="285" 
d="M176 0c-9 218 -50 451 -146 651l85 9c81 -169 133 -434 140 -660h-79z" />
    <glyph glyph-name="uni0662" unicode="&#x662;" horiz-adv-x="485" 
d="M175 0c-7 200 -43 436 -145 651l84 7c12 -27 31 -81 43 -97c24 -37 63 -54 113 -54c58 0 112 33 115 144l65 5c1 -6 1 -15 1 -26c0 -125 -76 -203 -174 -203c-37 0 -71 10 -94 28c30 -99 66 -284 71 -455h-79z" />
    <glyph glyph-name="uni0663" unicode="&#x663;" horiz-adv-x="533" 
d="M176 0c-8 232 -51 453 -146 651l84 9c11 -21 33 -79 39 -96c17 -40 38 -53 68 -53c38 0 63 22 63 77c0 15 -3 46 -6 63l58 4c9 -94 33 -114 61 -114s43 17 43 78c0 10 -1 21 -3 32l57 5c3 -19 5 -39 5 -61c0 -93 -45 -135 -91 -135c-22 0 -51 9 -73 43
c-15 -53 -53 -77 -91 -77c-17 0 -44 7 -59 26c32 -105 62 -272 69 -452h-78z" />
    <glyph glyph-name="uni0664" unicode="&#x664;" horiz-adv-x="451" 
d="M105 151c0 69 46 127 108 164c-98 7 -149 63 -149 130c0 105 111 191 247 218l23 -76c-153 -36 -201 -95 -201 -137c0 -37 40 -70 142 -70c25 0 56 2 81 6v-75c-139 -32 -179 -98 -179 -144c0 -37 25 -81 109 -81c38 0 92 8 144 37l4 -79c-39 -29 -91 -47 -159 -47
c-83 0 -170 50 -170 154z" />
    </font>
</defs>
</svg>
